<svg width="1780" height="700" viewBox="0 0 1780 700" fill="none" xmlns="http://www.w3.org/2000/svg">
<path d="M0 698.996L39.5124 657.815L57.6492 641.242L79.6725 624.168L90.0364 618.141C90.2523 617.806 91.4614 616.534 94.5706 614.124C98.4571 611.11 100.4 610.106 103.639 608.097C106.878 606.089 107.525 606.089 110.116 603.578C112.189 601.569 116.162 598.053 117.889 596.547L131.028 586.963C131.891 585.791 137.508 581.305 139.062 579.296C149.426 572.064 149.074 569.637 151.881 568.633C154.32 566.372 156.21 565.832 158.697 563.904C166.988 555.868 172.948 550.846 174.891 549.34C183.311 544.318 183.959 542.309 186.55 539.798C188.623 537.789 191.3 535.613 192.38 534.776C192.596 534.609 193.416 533.772 194.971 531.763C196.525 529.754 205.551 519.877 209.869 515.19L227.358 498.618L243.552 483.049L261.041 469.49L277.882 457.437L285.655 452.415L299.905 447.895L310.269 445.887H315.451H329.054L342.009 446.891L352.373 447.895L360.793 448.398L373.1 449.402H386.703L393.18 448.398L402.897 446.891L412.613 445.887L422.977 443.878L433.341 441.367L446.296 437.851L453.421 435.34L474.148 428.812L498.115 420.777L508.479 417.261L516.9 414.75L527.263 412.239L538.275 410.23L551.878 407.719L562.242 406.213L570.015 405.711L583.617 403.2L593.333 401.191L602.402 398.68L617.948 394.662L628.312 391.147L636.732 388.134L653.573 382.107L660.699 378.592L667.176 375.579L672.358 372.565L681.427 368.046L687.904 365.032L692.438 362.521L695.029 360.513L700.211 358.002L704.098 355.491L715.109 348.962L726.121 342.433L734.542 336.909L746.201 329.376L751.383 325.861L756.565 323.35L761.747 320.839L767.576 318.328L774.702 313.808L783.122 308.786L790.247 303.764L797.373 300.249L806.441 294.724L813.566 290.707L824.578 284.178L832.999 279.658L843.362 274.636L850.488 270.619L856.965 267.606L861.499 264.592L873.806 257.562L882.875 252.54L895.83 244.504L903.603 239.985L912.671 234.963L919.148 230.443L927.569 225.421L934.694 220.399L940.524 216.883L952.831 209.35L962.547 201.817L974.207 194.284L983.923 186.751L990.4 180.725L998.173 175.703L1003.36 171.685L1006.59 169.174L1007.24 168.17L1011.78 171.685L1017.61 177.209L1031.86 188.258L1038.33 193.782L1062.95 213.87L1083.03 230.443L1103.76 245.509L1127.72 263.086L1136.79 269.614L1152.98 282.672L1164 291.711L1173.06 298.742L1176.3 301.253L1177.6 303.262L1180.19 304.266L1184.08 305.773L1187.31 306.275H1192.5L1200.27 304.266L1212.58 301.755L1221 300.249L1228.77 298.24L1244.32 294.724L1251.44 292.716L1257.27 290.707L1263.1 289.2L1270.23 286.187L1284.48 281.667L1290.95 278.152L1299.37 274.134L1305.2 271.623L1324.64 262.584L1346.66 250.531L1360.26 241.993L1381.64 228.434L1395.24 219.896L1416.62 205.835L1426.33 200.311L1434.75 195.791L1442.53 191.271L1451.59 186.249L1458.72 182.734L1469.73 176.707L1476.86 172.187L1483.33 167.668L1490.46 164.152L1499.53 159.13L1511.83 152.602L1520.9 147.58L1529.97 141.553L1537.74 137.033L1545.52 132.514L1554.59 127.994L1566.24 120.963L1575.96 116.443L1586.32 109.915L1592.8 105.897L1601.22 100.875L1612.23 93.8442L1621.95 88.8222L1628.43 84.3024L1636.2 78.7782L1644.62 73.7562L1652.39 67.7298L1667.29 57.6858L1674.42 53.166L1682.19 46.6374L1694.5 38.1L1703.57 30.567L1710.04 25.545L1713.28 23.034L1714.58 21.5274L1722.35 29.5626L1730.12 36.5934L1741.14 44.6286L1745.67 48.6462L1753.44 54.6726L1758.62 59.1924L1765.75 64.2144L1768.99 67.7298L1773.52 70.743L1777.41 73.7562L1780 75.765V699.788H0V698.996Z" fill="url(#paint0_linear_2_3)"/>
<path d="M1737.9 43.122L1731.42 37.5978L1744.37 45.633L1759.27 58.188L1771.58 68.232L1778.7 74.2584V90.831V100.373L1775.47 97.3596L1771.58 91.3332L1767.69 85.809L1763.81 79.2804L1761.22 74.2584L1754.09 64.2144L1749.56 56.6814L1746.96 51.6594L1744.37 49.1484L1737.9 43.122Z" fill="#DFA6F3"/>
<path d="M1775.47 203.826L1778.7 209.853V172.69L1774.82 167.668L1768.34 159.633L1762.51 153.104L1757.33 146.575L1754.09 142.056L1746.97 131.007L1742.43 125.483L1745.67 136.029L1748.91 146.575L1750.85 154.108L1756.03 166.161L1758.62 172.69L1765.1 185.245L1771.58 196.795L1775.47 203.826Z" fill="#DFA6F3"/>
<path d="M1711.34 163.148L1708.75 165.157L1711.34 172.69L1720.41 187.756L1728.83 200.813L1739.19 214.372L1745.67 225.923L1756.03 246.513L1774.17 275.139L1778.7 281.667V209.853L1770.28 194.284L1759.27 172.69L1752.15 154.108L1742.43 125.483L1746.97 131.509L1756.68 146.073L1767.69 159.13L1778.7 172.69V100.373L1772.23 91.8355L1761.86 74.7607L1754.09 62.7079L1746.97 51.1573L1736.6 42.1177L1721.7 29.0605V67.7299V79.2805V112.426L1717.82 139.042L1716.52 146.073L1715.23 152.602L1713.28 159.13L1711.34 163.148Z" fill="#C481CF"/>
<path d="M1659.52 200.813L1658.22 202.822L1669.24 221.905L1682.84 247.518L1698.38 273.632L1710.69 295.729L1721.7 315.817L1734.66 343.438L1747.61 365.535L1754.09 363.024L1767.05 358.002L1778.7 351.975V281.667L1767.69 263.588L1754.74 241.993L1749.56 231.447L1740.49 214.875L1728.18 198.804L1718.46 183.738L1712.63 172.69L1708.75 165.157L1706.16 167.165L1702.92 170.179L1697.09 174.196L1691.91 177.712L1686.73 181.729L1680.9 185.747L1677.66 187.756L1672.47 190.267L1667.29 194.284L1664.05 196.795L1661.46 198.804L1659.52 200.813Z" fill="#DFA6F3"/>
<path d="M1641.38 253.042L1640.74 254.046L1647.21 263.086L1659.52 281.667L1673.12 296.231L1695.79 323.35L1708.75 339.42L1734.01 369.05L1747.61 365.535L1745.67 362.521L1737.9 347.455L1728.83 328.874L1721.7 313.306L1702.92 279.658L1691.26 259.57L1680.9 240.487L1667.29 215.377L1658.22 202.32L1655.63 204.831L1653.04 208.346L1651.1 211.861L1649.8 215.377L1649.16 220.399V224.919L1651.1 229.941L1652.39 235.967L1653.69 243.5V246.513L1653.04 249.526L1651.1 250.531H1649.8L1647.21 250.029L1644.62 250.531L1642.68 252.037L1641.38 253.042Z" fill="#C481CF"/>
<path d="M1623.89 271.121L1621.95 274.134L1634.26 300.249L1642.68 314.31L1651.1 332.892L1660.82 357.499L1669.88 376.583L1671.83 382.609L1673.12 384.116L1682.19 382.107L1699.03 378.09L1715.23 374.574L1734.01 369.05L1723 355.491L1711.34 340.927L1699.03 325.861L1686.73 311.297L1675.07 297.738L1660.82 281.667L1651.1 268.108L1640.74 254.046L1639.44 258.566L1635.55 262.584L1631.02 265.095L1627.13 268.108L1623.89 271.121Z" fill="#DFA6F3"/>
<path d="M1609.64 284.68L1603.17 291.209L1612.88 308.284L1634.91 342.936L1651.75 366.037L1655.63 373.068L1659.52 379.596L1663.41 386.125L1673.12 384.116L1672.47 383.112L1669.88 375.076L1663.41 359.006L1658.22 348.46L1651.75 334.398L1645.92 319.834L1641.38 309.288L1634.91 297.738L1627.13 283.174L1621.95 274.134L1615.47 280.161L1609.64 284.68Z" fill="#C481CF"/>
<path d="M1555.88 364.028L1550.05 370.557L1563.65 387.129L1570.13 396.169L1583.09 418.768L1588.92 427.807L1604.46 418.768L1614.18 411.737L1625.84 403.702L1631.02 398.178L1636.2 393.658L1642.03 390.645L1649.8 388.134L1656.28 387.129L1663.41 386.125L1656.28 371.561L1647.86 360.01L1639.44 348.46L1631.02 334.9L1625.84 325.861L1619.36 316.821L1610.29 303.262L1603.17 291.209L1601.22 293.218L1595.39 302.257L1590.86 308.786L1586.32 315.315L1582.44 323.852L1577.26 331.385L1570.13 342.936L1562.36 355.993L1555.88 364.028Z" fill="#DFA6F3"/>
<path d="M1536.45 384.116L1528.03 392.151L1538.39 400.689L1560.41 422.283L1572.72 435.843L1588.92 427.807L1583.09 417.763L1577.26 406.715L1566.89 389.64L1560.41 381.103L1550.05 370.557L1547.46 373.068L1541.63 379.094L1536.45 384.116Z" fill="#C481CF"/>
<path d="M1092.1 237.976L1087.56 233.958L1101.16 242.998L1112.18 250.531L1123.84 259.57L1134.2 267.103L1147.15 278.152L1152.98 283.676L1160.11 289.702L1168.53 296.733L1175.65 302.257L1178.89 306.275L1184.08 311.799L1190.55 319.332L1199.62 325.861L1210.63 333.394L1222.94 339.922L1235.89 344.944L1243.67 348.962L1251.44 351.975L1263.1 354.988H1279.29H1287.71L1295.49 353.984L1303.26 352.98H1312.33H1320.1L1327.87 356.495L1338.89 359.508L1349.25 365.032L1362.2 371.561L1374.51 378.592L1382.93 385.12L1392.65 391.147L1397.83 394.662L1404.31 398.178L1411.43 403.702L1410.79 406.213L1410.14 407.217L1402.37 408.222H1388.11L1374.51 411.737L1364.8 413.746L1351.19 416.257L1338.89 417.763L1329.17 418.768H1319.45L1309.09 419.772L1298.08 421.279L1290.31 422.283L1285.12 422.785L1279.29 423.79L1276.7 424.292H1275.41V423.79V421.279V418.768L1274.76 416.257L1273.46 413.746L1272.17 411.737L1270.23 410.23L1268.28 408.222L1265.69 407.217L1253.38 402.697L1248.2 400.186L1240.43 396.671L1232.01 392.151L1226.18 389.138L1217.76 383.112L1213.22 380.601L1204.8 377.085L1196.38 371.561L1185.37 364.028L1178.89 359.006L1173.06 353.984L1167.23 349.464L1164 345.447L1162.05 342.936L1160.76 340.927L1157.52 337.411L1156.87 334.398L1155.57 331.887L1154.93 329.878L1154.28 327.87L1152.34 325.359L1149.74 321.843L1147.15 317.323L1145.86 315.315L1144.56 312.804L1143.27 311.799L1138.09 308.284L1132.9 303.262L1127.72 298.24L1123.84 293.218L1121.24 290.205L1120.6 288.698L1119.95 287.191L1120.6 285.183V282.672V281.165L1121.24 280.663L1121.89 279.156L1124.48 277.147L1126.43 275.139L1127.72 274.134L1129.02 273.632L1131.61 273.13L1136.14 272.125L1119.95 259.57L1092.1 237.976Z" fill="#C481CF"/>
<path d="M1014.37 183.236V174.196L1041.57 196.293L1042.22 199.306L1046.11 207.342L1050.64 217.888L1058.41 228.434L1066.83 247.015L1073.96 256.557L1092.1 283.676L1099.87 296.733L1102.46 301.755L1106.35 307.279L1109.59 311.799L1112.82 316.319L1116.06 321.341L1120.6 329.376L1124.48 335.905L1127.07 340.425L1130.96 346.953L1134.85 351.975L1138.73 357.499L1146.51 368.548L1150.39 374.574L1154.93 381.605L1158.17 386.627L1152.34 383.614L1148.45 381.605L1146.51 380.098L1143.92 378.592L1141.32 376.081L1139.38 374.072L1136.14 370.557L1133.55 367.041L1130.31 363.526L1127.07 360.513L1119.95 353.482L1114.12 347.958L1110.88 343.438L1104.4 334.398L1102.46 331.887L1097.93 328.372L1091.45 322.848L1087.56 319.834L1085.62 317.826L1083.68 316.319L1082.38 314.812L1075.9 306.275L1069.43 296.733L1061 285.183L1055.82 277.147L1051.94 271.121L1048.7 265.095L1045.46 258.566L1042.87 253.544L1040.92 249.526L1038.98 246.011L1035.74 239.482V243.5V251.535V254.548L1036.39 256.557L1037.69 261.077L1039.63 267.103L1040.92 272.628L1041.57 277.147L1042.87 281.165L1044.16 288.698L1046.75 294.724L1050.64 304.768L1054.53 314.31L1059.06 320.839L1062.3 325.359L1062.95 327.87L1066.19 335.403L1068.78 340.425L1070.07 344.944L1072.02 348.46L1075.25 353.984L1081.08 364.53L1086.27 374.574L1090.15 382.107L1094.69 390.142L1097.93 396.169L1108.29 413.244L1114.12 422.785L1121.89 436.345L1124.48 441.869L1127.72 450.909L1122.54 448.9L1117.36 446.891L1114.12 445.384L1112.18 444.38L1110.23 442.873L1106.99 440.362L1103.11 437.851L1100.52 435.843L1096.63 431.323L1092.74 426.803L1087.56 420.274L1084.97 417.261L1081.73 413.244L1075.9 407.217L1071.37 402.697L1069.43 399.684L1062.95 390.645L1060.36 386.627L1053.23 373.57L1048.05 363.526L1046.11 360.01L1038.98 348.46L1036.39 343.438L1029.26 330.883L1023.44 322.848L1020.84 318.328L1018.25 314.812L1015.66 311.297L1011.13 302.76L1007.24 294.724L1005.95 290.707L1004.65 286.689L1007.24 284.178L1009.18 281.667L1011.78 279.156L1013.07 277.147L1013.72 274.636L1014.37 270.117V265.597V258.566V239.482V211.861V183.236Z" fill="#C481CF"/>
<path d="M951.536 372.565L947.649 367.543L952.831 365.535L956.07 364.53L958.661 363.024V360.513L958.013 358.504L956.718 354.988L954.774 348.46L953.479 344.944L952.831 340.425L952.183 336.407V331.887L952.831 329.878L953.479 327.367L955.422 324.354L958.013 321.341L961.9 317.826L972.263 333.896L985.866 357.499L998.173 381.103L1008.54 400.689L1013.07 409.226L1017.61 416.759L1022.79 426.301L1026.67 432.327L1027.97 435.843L1031.21 443.376L1034.45 450.406L1037.04 457.939L1039.63 465.472L1040.92 469.49L1046.11 476.521L1048.7 480.036L1049.34 481.041L1050.64 486.063L1053.23 493.596L1046.11 485.56L1034.45 473.508L1025.38 463.464L1010.48 444.882L998.173 428.812L985.866 414.248L978.741 404.706L969.025 393.658L959.956 383.112L951.536 372.565Z" fill="#C481CF"/>
<path d="M917.205 398.178L913.966 394.662L915.91 392.151L918.501 389.64L921.091 387.129L923.035 384.618L925.626 382.609L928.217 380.098L930.808 377.587L932.103 380.098L934.046 383.112L936.637 388.636L939.876 394.662L942.467 398.68L945.058 403.2L947.649 407.719L950.888 415.252L954.126 422.283L957.365 429.816L962.547 440.865L965.786 448.398L970.32 458.442L974.854 470.494L978.093 480.538L980.684 489.578L981.979 495.604L983.923 502.635L981.979 499.622L979.388 495.604L976.15 490.08L974.854 488.071L970.968 480.538L967.081 475.014L963.195 468.988L959.308 462.961L953.479 453.922L951.535 451.411L948.944 447.393L947.649 445.384L944.41 439.358L939.228 430.318L933.399 420.777L929.512 414.75L928.217 412.741L923.682 406.213L921.739 403.2L917.205 398.178Z" fill="#C481CF"/>
<path d="M855.022 479.032L852.431 477.525L854.374 475.516L856.965 473.508L859.556 472.001L862.795 468.486L865.386 465.975L868.624 461.957L871.215 459.446L873.159 457.437L875.102 454.926L875.75 456.935L877.693 460.45L880.932 465.472L882.227 467.983L883.522 470.494L886.761 478.027L890 484.054L893.886 491.587L898.421 499.622L902.955 506.151L906.194 510.67L909.432 516.697L912.023 521.217L916.557 527.243L918.501 530.256L921.092 533.772L924.33 537.789L926.921 540.803L928.865 543.816L932.103 547.833L935.342 553.86L937.285 558.38L935.99 557.375L935.342 556.371L933.399 555.366L932.103 553.86L930.16 552.353L926.274 549.842L923.683 547.833L921.092 545.322L919.148 543.816L917.853 542.811L912.671 537.789L908.137 533.27L904.898 530.256L901.012 525.737L897.773 522.221L896.477 520.212L895.182 518.706L893.239 516.195L891.295 514.186L889.352 512.177L886.761 509.666L880.932 504.644L873.806 496.609L869.272 491.085L862.147 484.054L860.204 482.045L857.613 480.538L855.022 479.032Z" fill="#C481CF"/>
<path d="M757.86 670.872L759.156 672.881L763.042 669.868L766.929 666.855L772.758 663.339L777.292 660.828L782.474 658.82L789.6 655.806L794.782 654.3L799.316 653.295L804.498 652.793H808.384L807.736 651.287H807.089L802.554 642.749L800.611 640.238L797.372 636.221L793.486 631.199L789.6 626.679L783.77 619.648L775.997 612.617L768.224 605.084L757.212 595.04L750.087 589.014L741.019 581.983L736.485 578.468L733.246 576.459L729.359 574.45L724.177 571.437L720.939 568.926L721.586 571.939L722.234 575.957L722.882 579.472L723.53 583.992L724.825 587.005L726.768 591.525L728.712 598.053L731.303 605.084L733.246 610.106L735.837 616.635L737.78 622.661L739.723 626.177L742.962 631.701L745.553 636.221L747.496 642.247L748.792 646.265L750.087 650.282L752.678 655.806L754.621 660.326L755.917 663.339L757.212 667.859L757.86 670.872Z" fill="#C481CF"/>
<path d="M724.177 692.467L727.416 699.498L731.303 694.476L737.78 687.947L745.553 682.925L751.383 678.405L759.156 672.881L757.86 670.872L755.917 662.837L750.087 649.78L745.553 636.221L737.78 622.661L733.894 611.613L728.064 596.044L723.53 582.987L720.939 568.926L723.53 570.934L737.132 578.97L746.848 586.503L764.985 602.071L780.531 616.635L792.191 629.692L799.963 639.234L808.384 652.793H811.623L824.578 651.789L840.124 649.78L858.26 646.767L873.806 644.256L893.886 640.238L912.671 633.207L928.217 626.177L937.933 622.159L946.354 617.137L954.126 614.124H961.899L965.786 615.63L972.263 619.146L976.798 622.661L981.979 623.665L988.457 620.652L995.582 616.133L1004 610.608L1010.48 604.08L1016.96 593.031L1019.55 588.009L1021.49 580.978C1022.14 579.974 1023.44 577.664 1023.44 576.459C1023.44 575.253 1026.03 572.274 1027.32 570.934L1030.56 563.904L1033.8 554.864L1037.69 549.34L1046.11 541.305L1055.17 536.283L1067.48 532.265L1083.03 529.252L1095.98 527.745L1108.29 526.239L1118.65 524.732H1127.07L1138.09 523.225L1147.8 520.714L1158.81 517.701L1170.47 512.679L1179.54 507.155L1186.02 502.635L1191.2 496.609L1196.38 489.076L1202.86 481.041L1208.69 473.508L1217.11 464.468L1224.24 456.935L1233.95 448.9L1239.13 442.873L1247.55 437.851L1255.98 433.834L1271.52 426.803L1276.06 423.79V417.763L1273.46 412.239L1268.28 407.719L1252.09 401.693L1242.37 396.671L1227.47 389.138L1217.76 382.107L1208.69 378.09L1199.62 373.57L1191.2 367.543L1178.25 358.002L1167.23 348.962L1158.17 337.411L1154.28 327.87L1148.45 318.83L1144.56 312.301L1136.79 306.777L1128.37 298.24L1120.6 288.698V281.165L1125.13 276.645L1128.37 273.632L1136.79 272.125L1125.13 263.086L1113.47 254.548L1095.33 240.487L1041.57 196.293V198.804L1049.99 216.883L1057.77 228.434L1066.83 247.015L1079.79 266.601L1088.86 280.161L1098.57 295.729L1116.71 322.848L1130.96 347.455L1143.27 364.028L1158.17 386.627L1149.75 382.107L1141.32 376.081L1130.96 364.028L1115.41 348.962L1102.46 331.887L1083.68 316.319L1066.83 293.218L1051.94 270.619L1035.74 239.482V254.548L1039.63 268.61L1044.16 288.698L1054.53 314.31L1061.65 325.359L1070.07 344.944L1083.68 370.054L1096.63 394.662L1110.23 416.759L1121.89 436.847L1127.72 450.909L1113.47 444.882L1102.46 436.847L1093.39 427.305L1083.68 415.252L1072.02 403.2L1062.95 390.142L1054.53 376.081L1048.7 364.028L1044.16 355.993L1039.63 348.962L1035.74 341.429L1029.91 331.887L1024.73 323.852L1020.84 317.826L1016.31 312.301L1011.78 303.262L1008.54 297.235L1004.65 286.689L1000.12 290.707L996.878 293.218L992.991 295.729L989.105 298.742L985.866 300.751L980.684 304.266L976.798 306.777L972.263 309.79L961.899 317.826L971.616 334.398L978.093 344.944L987.161 361.015L1004 392.151L1011.13 406.213L1026.67 432.829L1034.45 450.909L1040.92 469.49L1048.7 480.538L1053.23 493.596L1048.7 487.569L1040.92 479.032L1032.5 470.997L1024.73 461.957L1016.31 450.909L1008.54 441.367L1000.12 431.323L992.343 421.279L983.275 410.23L972.911 397.675L963.195 386.627L954.774 376.081L947.649 367.543L942.467 370.054L935.99 374.072L930.808 377.587L939.876 394.662L947.649 408.222L954.774 425.296L964.49 445.887L972.911 465.975L977.445 479.032L980.684 491.085L983.923 502.635L980.684 497.111L976.15 490.08L970.968 480.538L963.195 469.49L958.013 460.953L947.649 444.882L939.876 431.323L932.751 419.772L921.739 403.2L913.966 394.662L910.728 400.689L904.25 408.222L898.421 416.759L890.648 429.314L884.17 441.367L875.102 454.926L876.397 458.442L882.227 468.486L885.466 476.019L889.352 483.552L897.125 498.115L906.193 511.675L913.966 523.728L919.148 531.763L926.274 540.3L933.399 550.344L937.285 558.379L935.99 557.375L931.455 553.357L925.626 549.34L921.092 545.322L915.262 540.3L908.784 533.772L904.25 529.252L898.421 522.723L893.239 516.195L887.409 510.168L880.284 503.64L873.159 495.604L867.329 489.076L860.204 482.045L852.431 477.525L842.067 485.058L832.998 491.085L818.1 499.12L803.85 505.146L788.952 510.168L774.701 514.688L757.86 519.71L745.553 522.723L729.359 526.239L716.405 529.252L698.268 533.269L684.665 535.78L670.415 538.794L656.812 542.309L645.153 545.322L630.902 547.833L632.198 549.842L635.437 554.864L638.675 559.886L643.857 567.419L648.391 574.45L654.221 582.987L663.937 598.053L678.188 619.146L687.256 632.705L696.972 647.771L706.041 662.837L713.166 674.89L720.291 685.938L724.177 692.467Z" fill="#DFA6F3"/>
<path d="M604.993 575.454L603.05 592.529L612.766 597.049L620.539 601.569L628.312 607.093L639.971 615.128L648.392 622.159L661.994 634.212L669.767 642.247L678.188 651.286L684.018 657.815L690.495 665.85L696.972 674.388L705.393 684.934L713.814 699.498H727.416L724.178 692.467L717.052 680.916L706.689 663.841L696.325 646.767L682.074 624.67L671.063 608.097L651.63 579.472L630.903 547.833L604.993 555.366V556.873V560.388V567.921V575.454Z" fill="#C481CF"/>
<path d="M1357.67 331.385L1342.12 345.949L1360.26 343.438L1375.16 338.416L1394.59 331.385L1420.5 320.839L1459.37 301.253L1487.22 284.68L1518.31 268.108L1539.04 257.562L1563.01 241.491L1575.31 232.954L1593.45 222.408L1586.32 232.954L1580.49 239.985L1572.72 248.02L1564.95 254.548L1557.82 263.086L1552.64 270.619L1548.11 278.152L1543.57 284.68L1539.04 291.711L1530.62 299.746L1516.37 312.301L1504.06 326.363L1516.37 317.826L1526.08 310.293L1548.11 298.24L1559.12 287.694L1577.26 275.641L1585.03 269.112L1607.05 255.553L1617.42 249.024L1627.13 242.496L1640.09 234.963L1646.56 230.443L1649.16 225.421V220.399L1651.1 212.364L1654.99 206.337L1662.11 198.302L1667.29 194.284L1673.12 190.267L1679.6 186.751L1686.08 181.729L1694.5 176.205L1701.62 171.183L1706.8 166.663L1711.34 163.148L1713.93 157.624L1715.87 150.593L1717.82 139.042L1719.76 128.496L1721.7 102.382V68.7343L1715.87 78.2761L1710.69 92.8399L1701.62 102.382L1685.43 116.443L1669.24 131.509L1646.56 150.593L1625.19 169.174L1605.76 181.729L1577.26 200.813L1556.53 216.381L1530.62 234.963L1504.06 252.54L1480.09 267.103L1443.17 286.187L1412.73 301.253L1392.65 311.799L1372.57 322.345L1357.67 331.385Z" fill="white"/>
<path d="M1456.13 445.384L1479.45 431.323L1489.81 435.843L1498.88 438.856L1507.3 440.362L1519.61 441.367L1507.3 449.402L1489.81 461.455L1473.62 472.001L1447.71 487.569L1422.45 503.138L1394.59 515.693L1371.27 523.226L1377.1 517.199L1392 499.622L1405.6 485.058L1422.45 469.992L1439.29 457.437L1456.13 445.384Z" fill="white"/>
<path d="M411.965 587.507L379.578 616.635L417.147 595.542L448.238 576.459L483.217 554.864L511.717 537.789L539.57 521.217L559.65 511.173L588.799 497.111L630.255 478.53L658.107 465.975L698.915 447.895L722.234 436.345L743.61 426.301L765.633 414.75L791.543 402.195L810.327 390.645L843.362 372.063L866.681 359.508L908.137 333.896L893.886 350.469L882.875 364.028L868.624 381.103L850.487 402.195L834.942 418.266L849.192 409.226L875.749 389.138L895.829 376.583L912.023 365.032L932.103 351.975L939.228 347.455L944.41 344.442L949.592 341.931L952.183 338.918V336.407V331.887L953.479 326.865L956.07 322.848L959.956 319.332L968.377 312.804L978.093 305.773L990.4 297.738L1002.06 289.2L1013.07 278.152L1015.66 270.117V254.548L1014.37 217.385L997.525 232.954L975.502 254.548L945.706 278.152L922.387 297.738L890.648 320.839L858.908 341.931L833.646 358.002L791.543 381.103L743.61 407.217L695.677 427.807L661.994 438.354L624.425 449.402L593.333 462.961L564.185 474.512L544.752 487.569L516.899 508.159L450.829 556.873L411.965 587.507Z" fill="white"/>
<path d="M1477.5 421.781L1462.61 426.803L1478.8 432.829L1491.75 437.349L1511.83 441.367L1529.97 443.878H1546.81L1561.71 441.367L1572.72 435.843L1561.71 422.785L1546.81 408.222L1536.45 399.182L1528.03 392.151L1520.25 399.182L1510.54 405.711L1493.05 414.75L1477.5 421.781Z" fill="#DFA6F3"/>
<path d="M1192.7 309.407L1216.64 302.387V316.428L1192.7 309.407Z" fill="#EE3030"/>
<path d="M1271.61 273.803L1294.9 266.281V280.322L1271.61 273.803Z" fill="#EE3030"/>
<path d="M1346 236.694L1366.69 229.673V243.715L1346 236.694Z" fill="#EE3030"/>
<path d="M1412.62 200.588L1436.55 194.069V208.11H1435.9L1412.62 200.588Z" fill="#EE3030"/>
<path d="M1480.53 164.482L1501.23 157.963V171.001L1480.53 164.482Z" fill="#EE3030"/>
<path d="M1532.92 130.884L1552.97 124.365V135.898L1532.92 130.884Z" fill="#EE3030"/>
<path d="M1582.08 94.7779L1600.84 88.2588V99.7926L1582.08 94.7779Z" fill="#EE3030"/>
<path d="M1623.47 60.6779L1642.23 54.6603V65.1912L1623.47 60.6779Z" fill="#EE3030"/>
<path d="M1660.99 31.0912L1679.75 25.0735V35.6044L1660.99 31.0912Z" fill="#EE3030"/>
<path d="M1696.56 6.01766L1714.03 1.50443V11.0324L1696.56 6.01766Z" fill="#EE3030"/>
<path d="M431.417 406.692L455.349 398.669V413.713L431.417 406.692Z" fill="#EE3030"/>
<path d="M673.968 335.985L699.84 328.463V344.009L673.968 335.985Z" fill="#EE3030"/>
<path d="M842.783 236.193L867.362 228.67V243.715L842.783 236.193Z" fill="#EE3030"/>
<path d="M987.667 149.438L1007.07 142.919V154.954L987.667 149.438Z" fill="#EE3030"/>
<path d="M177.87 496.957L203.096 489.435V505.482L177.87 496.957Z" fill="#EE3030"/>
<path d="M527.263 686.44L513.661 700H713.813L712.518 696.987L705.393 684.934L696.972 674.388L685.96 660.326L677.54 650.282L668.471 640.74L656.164 628.687L638.027 613.621L619.243 600.564L603.049 592.529L599.163 603.577L595.276 613.621L586.856 626.176L576.492 638.731L558.355 656.811L543.457 670.37L527.263 686.44Z" fill="#DFA6F3"/>
<path d="M1447.71 691.965L1433.46 700L1487.22 699.498L1492.4 696.987L1500.17 693.974L1513.13 689.454L1524.79 684.432L1539.69 678.908L1550.05 673.886L1563.65 668.864L1580.49 662.335L1591.51 657.815L1605.76 652.793L1621.95 646.767L1647.21 638.731L1670.53 630.194L1694.5 622.661L1708.75 618.643L1724.94 613.621L1737.9 610.608L1746.32 608.097L1756.68 605.586L1767.05 600.564L1780 594.538V556.371H1776.76L1767.05 559.886L1754.74 564.406L1739.19 572.441L1724.94 578.467L1711.34 584.996L1699.68 592.027L1664.7 609.604L1647.21 618.141L1624.54 628.687L1610.29 634.714L1595.39 641.745L1572.07 651.286L1557.82 656.309L1539.04 663.339L1513.13 671.877L1496.29 676.397L1478.15 681.419L1462.61 685.938L1447.71 691.965Z" fill="white"/>
<path d="M1285.12 676.899L1274.11 685.938L1258.5 699.498H1285.12L1288.36 695.982L1301.96 685.938L1317.51 674.388L1338.89 660.326L1366.74 643.753L1389.41 630.194L1415.32 617.137L1443.17 604.08L1469.73 592.529L1512.48 572.943L1539.69 560.89L1577.9 547.331L1621.3 528.247L1644.62 515.692L1667.29 502.133L1690.61 485.56L1710.69 472.001L1732.07 456.433L1756.03 439.86L1780 423.79V386.125L1775.47 391.649L1766.4 398.68L1752.15 406.213L1739.19 413.746L1723 423.79L1709.4 435.34L1699.68 445.384L1667.29 470.494L1641.38 487.067L1581.14 518.706L1537.74 537.789L1481.39 562.899L1443.17 581.481L1460.66 566.415L1475.56 551.851L1498.88 530.256L1526.08 505.146L1550.7 484.556L1541.63 489.076L1527.38 495.604L1507.3 506.653L1483.98 519.71L1450.95 541.305L1425.04 559.384L1386.82 589.516L1363.5 609.604L1327.87 639.736L1305.85 659.322L1285.12 676.899Z" fill="white"/>
<path d="M1112.18 692.969L1108.94 700H1145.86L1149.75 689.454L1156.22 679.41L1164.64 670.872L1175.65 661.331L1187.31 652.291L1195.09 646.767L1204.8 640.74L1215.17 632.203L1228.77 621.657L1237.19 612.617L1248.85 597.049L1243.67 601.569L1237.19 607.093L1230.71 612.617L1222.94 618.644L1210.63 625.674L1196.38 632.203L1182.13 638.229L1169.18 643.754L1155.57 649.78L1144.56 656.309L1132.26 664.846L1125.13 670.872L1118.65 678.908L1115.41 685.436L1112.18 692.969Z" fill="white"/>
<path d="M35.6259 692.969L30.4439 699.498H121.128L123.071 698.493L149.629 682.925L165.822 673.383L192.38 659.322L216.346 645.26L231.892 635.718L224.119 639.234L215.051 643.251L195.619 650.282L172.3 659.322L140.56 671.877L84.8544 694.978L73.8427 698.996L70.604 698.493L78.3769 694.978L86.7976 689.454L93.2751 682.925L101.048 674.89L107.525 667.357L112.707 661.833L116.594 656.811L127.605 650.282L141.856 642.247L154.163 635.216L165.175 630.194L180.073 622.661L192.38 617.137L200.801 613.119L209.869 608.6L225.415 601.569L237.074 596.547L254.563 588.512L270.109 581.481L281.768 575.957L297.314 568.926L310.269 562.397L329.054 554.362L349.782 543.816L360.145 537.789L394.476 519.208L413.26 508.662L439.818 491.587L437.875 492.591L433.341 493.596L424.272 497.111L413.26 502.133L399.658 507.657L382.169 515.19L365.327 522.221L340.065 534.274L321.929 543.314L294.723 556.873L271.405 568.926L259.097 575.454L248.734 580.476L239.665 586.001L229.949 590.52L221.528 596.045L214.403 599.56L208.573 603.075L201.448 607.093L194.323 610.608L185.902 614.626L176.834 617.137L169.061 620.15L161.288 622.661L152.22 625.172L143.151 627.181L134.731 628.688L126.31 631.199L119.185 633.207L111.412 635.216L102.991 637.727L93.2751 640.74L86.1499 643.251L79.6724 646.767L72.5473 651.789L66.7176 656.309L60.8879 660.828L56.3537 665.348L52.4672 670.37L49.8762 673.886L46.6375 678.405L42.1033 684.432L38.2168 689.956L35.6259 692.969Z" fill="white"/>
<path d="M92.4925 641.38C131.26 625.993 155.603 600.518 203.096 528.55M203.096 528.55C312.358 519.783 367.062 498.727 455.349 438.285M203.096 528.55V488.432M455.349 438.285C580.935 440.105 631.469 421.694 699.84 367.578M455.349 438.285V397.164M699.84 367.578C799.058 344.485 834.626 321.765 867.362 266.281M699.84 367.578V326.959M867.362 266.281C937.087 241.829 967.999 221.556 1007.07 172.506M867.362 266.281V227.166M1007.07 172.506L1216.64 337.489M1007.07 172.506V141.415M1216.64 337.489L1294.9 301.885M1216.64 337.489V300.882M1294.9 301.885L1366.69 266.281M1294.9 301.885V264.776M1366.69 266.281L1436.55 229.172M1366.69 266.281V228.169M1436.55 229.172L1501.23 189.556M1436.55 229.172V192.565M1501.23 189.556L1552.97 153.45M1501.23 189.556V156.459M1552.97 153.45L1600.84 116.341M1552.97 153.45V123.362M1600.84 116.341L1642.23 84.247M1600.84 116.341V87.2558M1642.23 84.247L1679.75 54.1588M1642.23 84.247V53.6573M1679.75 54.1588L1714.03 25.0735V0M1679.75 54.1588V24.0706" stroke="black" stroke-width="2"/>
<path d="M50.4505 646.395H65.9738L73.7354 630.348L80.8502 646.395H95.7267V640.378H91.199L74.3822 620.82L73.0886 617.31L72.4418 620.82L55.6249 640.378H50.4505V646.395Z" fill="#EE3030"/>
<defs>
<linearGradient id="paint0_linear_2_3" x1="1138.73" y1="78.276" x2="1082.37" y2="702.829" gradientUnits="userSpaceOnUse">
<stop stop-color="#FEF8F8"/>
<stop offset="1" stop-color="#A663AC"/>
</linearGradient>
</defs>
</svg>
