<svg width="1440" height="708" viewBox="0 0 1440 708" fill="none" xmlns="http://www.w3.org/2000/svg">
<path d="M0 706.9L31.9651 663.93L46.6376 646.638L64.4541 628.821L72.8384 622.533C73.0131 622.183 73.9913 620.856 76.5065 618.341C79.6507 615.196 81.2227 614.148 83.8428 612.052C86.4629 609.956 86.9869 609.956 89.083 607.336C90.7598 605.24 93.9738 601.572 95.3712 600L106 590C106.699 588.777 111.242 584.096 112.5 582C120.884 574.454 120.599 571.921 122.87 570.873C124.843 568.514 126.372 567.951 128.384 565.939C135.092 557.555 139.913 552.314 141.485 550.742C148.297 545.502 148.821 543.406 150.917 540.786C152.594 538.69 154.76 536.419 155.633 535.546C155.808 535.371 156.472 534.498 157.729 532.402C158.987 530.306 166.288 520 169.782 515.109L183.93 497.817L197.031 481.572L211.179 467.424L224.803 454.847L231.092 449.607L242.62 444.891L251.004 442.795H255.197H266.201L276.681 443.843L285.065 444.891L291.878 445.415L301.834 446.463H312.838L318.079 445.415L325.939 443.843L333.799 442.795L342.183 440.699L350.568 438.079L361.048 434.41L366.812 431.79L383.581 424.978L402.969 416.594L411.354 412.926L418.166 410.306L426.55 407.686L435.458 405.59L446.463 402.969L454.847 401.397L461.135 400.873L472.14 398.253L480 396.157L487.336 393.537L499.913 389.345L508.297 385.677L515.109 382.533L528.734 376.245L534.498 372.576L539.738 369.432L543.93 366.288L551.266 361.572L556.507 358.428L560.175 355.808L562.271 353.712L566.463 351.092L569.607 348.472L578.515 341.659L587.424 334.847L594.236 329.083L603.668 321.223L607.86 317.555L612.052 314.934L616.245 312.314L620.961 309.694L626.725 304.978L633.537 299.738L639.301 294.498L645.065 290.83L652.402 285.065L658.166 280.873L667.074 274.061L673.886 269.345L682.271 264.105L688.035 259.913L693.275 256.769L696.943 253.624L706.9 246.288L714.236 241.048L724.716 232.664L731.004 227.948L738.341 222.707L743.581 217.991L750.393 212.751L756.157 207.511L760.873 203.843L770.83 195.983L778.69 188.122L788.122 180.262L795.982 172.402L801.223 166.114L807.511 160.873L811.703 156.681L814.323 154.061L814.847 153.013L818.515 156.681L823.231 162.445L834.76 173.974L840 179.738L859.913 200.699L876.157 217.991L892.926 233.712L912.314 252.052L919.651 258.865L932.751 272.489L941.659 281.921L948.996 289.258L951.616 291.878L952.664 293.974L954.76 295.022L957.904 296.594L960.524 297.118H964.716L971.004 295.022L980.961 292.402L987.773 290.83L994.061 288.734L1006.64 285.065L1012.4 282.969L1017.12 280.873L1021.83 279.301L1027.6 276.157L1039.13 271.441L1044.37 267.773L1051.18 263.581L1055.9 260.961L1071.62 251.528L1089.43 238.952L1100.44 230.044L1117.73 215.895L1128.73 206.987L1146.03 192.314L1153.89 186.55L1160.7 181.834L1166.99 177.118L1174.32 171.878L1180.09 168.21L1189 161.921L1194.76 157.205L1200 152.489L1205.76 148.821L1213.1 143.581L1223.06 136.769L1230.39 131.528L1237.73 125.24L1244.02 120.524L1250.31 115.808L1257.64 111.092L1267.07 103.755L1274.93 99.0393L1283.32 92.2271L1288.56 88.0349L1295.37 82.7948L1304.28 75.4585L1312.14 70.2183L1317.38 65.5022L1323.67 59.738L1330.48 54.4978L1336.77 48.2096L1348.82 37.7293L1354.59 33.0131L1360.87 26.2009L1370.83 17.2926L1378.17 9.43231L1383.41 4.19214L1386.03 1.57205L1387.07 0L1393.36 8.38428L1399.65 15.7205L1408.56 24.1048L1412.23 28.2969L1418.52 34.5852L1422.71 39.3013L1428.47 44.5415L1431.09 48.2096L1434.76 51.3537L1437.9 54.4978L1440 56.5939V707.726H0V706.9Z" fill="url(#paint0_linear_2_3)"/>
<path d="M1405.94 22.5327L1400.7 16.7686L1411.18 25.1528L1423.23 38.2533L1433.19 48.7336L1438.95 55.0218V72.3144V82.2707L1436.33 79.1266L1433.19 72.8384L1430.04 67.0742L1426.9 60.262L1424.8 55.0218L1419.04 44.5415L1415.37 36.6812L1413.27 31.441L1411.18 28.821L1405.94 22.5327Z" fill="#DFA6F3"/>
<path d="M1436.33 190.218L1438.95 196.507V157.729L1435.81 152.489L1430.57 144.105L1425.85 137.293L1421.66 130.48L1419.04 125.764L1413.28 114.236L1409.61 108.472L1412.23 119.476L1414.85 130.48L1416.42 138.341L1420.61 150.917L1422.71 157.729L1427.95 170.83L1433.19 182.882L1436.33 190.218Z" fill="#DFA6F3"/>
<path d="M1384.45 147.773L1382.36 149.869L1384.45 157.729L1391.79 173.45L1398.6 187.074L1406.99 201.223L1412.23 213.275L1420.61 234.76L1435.28 264.629L1438.95 271.441V196.507L1432.14 180.262L1423.23 157.729L1417.47 138.341L1409.61 108.472L1413.28 114.76L1421.14 129.956L1430.04 143.581L1438.95 157.729V82.2708L1433.71 73.3625L1425.33 55.5459L1419.04 42.9695L1413.28 30.9171L1404.89 21.4847L1392.84 7.86029V48.2096V60.262V94.8472L1389.69 122.62L1388.65 129.956L1387.6 136.769L1386.03 143.581L1384.45 147.773Z" fill="#C481CF"/>
<path d="M1342.53 187.074L1341.48 189.17L1350.39 209.083L1361.4 235.808L1373.97 263.057L1383.93 286.114L1392.84 307.074L1403.32 335.895L1413.8 358.952L1419.04 356.332L1429.52 351.092L1438.95 344.803V271.441L1430.04 252.576L1419.56 230.044L1415.37 219.039L1408.04 201.747L1398.08 184.978L1390.22 169.258L1385.5 157.729L1382.36 149.869L1380.26 151.965L1377.64 155.109L1372.93 159.301L1368.73 162.969L1364.54 167.162L1359.83 171.354L1357.21 173.45L1353.01 176.07L1348.82 180.262L1346.2 182.882L1344.1 184.978L1342.53 187.074Z" fill="#DFA6F3"/>
<path d="M1327.86 241.572L1327.34 242.62L1332.58 252.052L1342.53 271.441L1353.54 286.638L1371.88 314.935L1382.36 331.703L1402.79 362.62L1413.8 358.952L1412.23 355.808L1405.94 340.087L1398.6 320.699L1392.84 304.454L1377.64 269.345L1368.21 248.384L1359.83 228.472L1348.82 202.271L1341.48 188.646L1339.39 191.266L1337.29 194.935L1335.72 198.603L1334.67 202.271L1334.15 207.511V212.227L1335.72 217.467L1336.77 223.755L1337.82 231.616V234.76L1337.29 237.904L1335.72 238.952H1334.67L1332.58 238.428L1330.48 238.952L1328.91 240.524L1327.86 241.572Z" fill="#C481CF"/>
<path d="M1313.71 260.437L1312.14 263.581L1322.1 290.83L1328.91 305.502L1335.72 324.891L1343.58 350.568L1350.92 370.48L1352.49 376.769L1353.54 378.341L1360.87 376.245L1374.5 372.052L1387.6 368.384L1402.79 362.62L1393.89 348.472L1384.45 333.275L1374.5 317.555L1364.54 302.358L1355.11 288.21L1343.58 271.441L1335.72 257.293L1327.34 242.62L1326.29 247.336L1323.14 251.528L1319.48 254.149L1316.33 257.293L1313.71 260.437Z" fill="#DFA6F3"/>
<path d="M1302.18 274.585L1296.94 281.397L1304.8 299.214L1322.62 335.371L1336.24 359.476L1339.39 366.812L1342.53 373.624L1345.68 380.437L1353.54 378.341L1353.01 377.293L1350.92 368.908L1345.68 352.14L1341.48 341.135L1336.24 326.463L1331.53 311.266L1327.86 300.262L1322.62 288.21L1316.33 273.013L1312.14 263.581L1306.9 269.869L1302.18 274.585Z" fill="#C481CF"/>
<path d="M1258.69 357.38L1253.97 364.192L1264.98 381.485L1270.22 390.917L1280.7 414.498L1285.41 423.93L1297.99 414.498L1305.85 407.162L1315.28 398.777L1319.48 393.013L1323.67 388.297L1328.38 385.153L1334.67 382.533L1339.91 381.485L1345.68 380.437L1339.91 365.24L1333.1 353.188L1326.29 341.135L1319.48 326.987L1315.28 317.555L1310.04 308.122L1302.71 293.974L1296.94 281.397L1295.37 283.493L1290.65 292.926L1286.99 299.738L1283.32 306.55L1280.17 315.459L1275.98 323.319L1270.22 335.371L1263.93 348.996L1258.69 357.38Z" fill="#DFA6F3"/>
<path d="M1242.97 378.341L1236.16 386.725L1244.54 395.633L1262.36 418.166L1272.31 432.314L1285.41 423.93L1280.7 413.45L1275.98 401.921L1267.6 384.105L1262.36 375.197L1253.97 364.192L1251.88 366.812L1247.16 373.1L1242.97 378.341Z" fill="#C481CF"/>
<path d="M883.493 225.852L879.825 221.659L890.83 231.092L899.738 238.952L909.17 248.384L917.554 256.245L928.035 267.773L932.751 273.537L938.515 279.825L945.327 287.162L951.092 292.926L953.712 297.118L957.904 302.882L963.144 310.742L970.48 317.555L979.388 325.415L989.345 332.227L999.825 337.467L1006.11 341.659L1012.4 344.804L1021.83 347.948H1034.93H1041.75L1048.03 346.9L1054.32 345.852H1061.66H1067.95L1074.24 349.52L1083.14 352.664L1091.53 358.428L1102.01 365.24L1111.96 372.576L1118.78 379.389L1126.64 385.677L1130.83 389.345L1136.07 393.013L1141.83 398.777L1141.31 401.397L1140.79 402.445L1134.5 403.493H1122.97L1111.96 407.162L1104.1 409.258L1093.1 411.878L1083.14 413.45L1075.28 414.498H1067.42L1059.04 415.546L1050.13 417.118L1043.84 418.166L1039.65 418.69L1034.93 419.738L1032.84 420.262H1031.79V419.738V417.118V414.498L1031.27 411.878L1030.22 409.258L1029.17 407.162L1027.6 405.59L1026.03 403.493L1023.93 402.445L1013.97 397.729L1009.78 395.109L1003.49 391.441L996.681 386.725L991.965 383.581L985.153 377.293L981.485 374.673L974.672 371.004L967.86 365.24L958.952 357.38L953.712 352.14L948.995 346.9L944.279 342.183L941.659 337.991L940.087 335.371L939.039 333.275L936.419 329.607L935.895 326.463L934.847 323.843L934.323 321.747L933.799 319.651L932.227 317.031L930.131 313.362L928.035 308.646L926.987 306.55L925.939 303.93L924.891 302.882L920.698 299.214L916.506 293.974L912.314 288.734L909.17 283.493L907.074 280.349L906.55 278.777L906.026 277.205L906.55 275.109V272.489V270.917L907.074 270.393L907.598 268.821L909.694 266.725L911.266 264.629L912.314 263.581L913.362 263.057L915.458 262.533L919.126 261.485L906.026 248.384L883.493 225.852Z" fill="#C481CF"/>
<path d="M820.611 168.734V159.301L842.62 182.358L843.144 185.502L846.288 193.886L849.956 204.891L856.245 215.895L863.057 235.284L868.821 245.24L883.493 273.537L889.782 287.162L891.878 292.402L895.022 298.166L897.642 302.882L900.262 307.598L902.882 312.838L906.55 321.223L909.694 328.035L911.79 332.751L914.935 339.563L918.079 344.803L921.223 350.568L927.511 362.096L930.655 368.384L934.323 375.721L936.943 380.961L932.227 377.817L929.083 375.721L927.511 374.148L925.415 372.576L923.319 369.956L921.747 367.86L919.127 364.192L917.031 360.524L914.41 356.856L911.79 353.712L906.026 346.376L901.31 340.611L898.69 335.895L893.45 326.463L891.878 323.843L888.21 320.175L882.969 314.41L879.825 311.266L878.253 309.17L876.681 307.598L875.633 306.026L870.393 297.118L865.153 287.162L858.341 275.109L854.148 266.725L851.004 260.437L848.384 254.148L845.764 247.336L843.668 242.096L842.096 237.904L840.524 234.236L837.904 227.424V231.616V240V243.144L838.428 245.24L839.476 249.956L841.048 256.245L842.096 262.009L842.62 266.725L843.668 270.917L844.716 278.777L846.812 285.065L849.956 295.546L853.1 305.502L856.769 312.314L859.389 317.031L859.913 319.651L862.533 327.511L864.629 332.751L865.677 337.467L867.249 341.135L869.869 346.9L874.585 357.904L878.777 368.384L881.921 376.245L885.59 384.629L888.21 390.917L896.594 408.734L901.31 418.69L907.598 432.838L909.694 438.603L912.314 448.035L908.122 445.939L903.93 443.843L901.31 442.271L899.738 441.223L898.166 439.651L895.546 437.031L892.402 434.41L890.306 432.314L887.162 427.598L884.017 422.882L879.825 416.07L877.729 412.926L875.109 408.734L870.393 402.445L866.725 397.729L865.153 394.585L859.913 385.153L857.817 380.961L852.052 367.336L847.86 356.856L846.288 353.188L840.524 341.135L838.428 335.895L832.664 322.795L827.948 314.41L825.852 309.694L823.755 306.026L821.659 302.358L817.991 293.45L814.847 285.065L813.799 280.873L812.751 276.681L814.847 274.061L816.419 271.441L818.515 268.821L819.563 266.725L820.087 264.105L820.611 259.389V254.672V247.336V227.424V198.603V168.734Z" fill="#C481CF"/>
<path d="M769.781 366.288L766.637 361.048L770.83 358.952L773.45 357.904L775.546 356.332V353.712L775.022 351.616L773.974 347.948L772.402 341.135L771.354 337.467L770.83 332.751L770.306 328.559V323.843L770.83 321.747L771.354 319.127L772.926 315.983L775.022 312.838L778.166 309.17L786.55 325.939L797.554 350.568L807.511 375.196L815.895 395.633L819.563 404.541L823.231 412.402L827.423 422.358L830.568 428.646L831.616 432.314L834.236 440.175L836.856 447.511L838.952 455.371L841.048 463.231L842.096 467.424L846.288 474.76L848.384 478.428L848.908 479.476L849.956 484.716L852.052 492.576L846.288 484.192L836.856 471.616L829.519 461.135L817.467 441.747L807.511 424.978L797.554 409.782L791.79 399.825L783.93 388.297L776.594 377.293L769.781 366.288Z" fill="#C481CF"/>
<path d="M742.009 393.013L739.388 389.345L740.961 386.725L743.057 384.105L745.153 381.485L746.725 378.865L748.821 376.769L750.917 374.148L753.013 371.528L754.061 374.148L755.633 377.293L757.729 383.057L760.349 389.345L762.445 393.537L764.541 398.253L766.637 402.969L769.257 410.83L771.878 418.166L774.498 426.026L778.69 437.555L781.31 445.415L784.978 455.895L788.646 468.472L791.266 478.952L793.362 488.384L794.41 494.672L795.982 502.009L794.41 498.865L792.314 494.672L789.694 488.908L788.646 486.812L785.502 478.952L782.358 473.188L779.214 466.9L776.07 460.611L771.354 451.179L769.782 448.559L767.685 444.367L766.637 442.271L764.017 435.983L759.825 426.55L755.109 416.594L751.965 410.306L750.917 408.21L747.249 401.397L745.677 398.253L742.009 393.013Z" fill="#C481CF"/>
<path d="M691.703 477.38L689.607 475.808L691.179 473.712L693.275 471.616L695.371 470.044L697.991 466.376L700.087 463.755L702.707 459.563L704.804 456.943L706.376 454.847L707.948 452.227L708.472 454.323L710.044 457.991L712.664 463.231L713.712 465.852L714.76 468.472L717.38 476.332L720 482.62L723.144 490.48L726.812 498.865L730.48 505.677L733.101 510.393L735.721 516.681L737.817 521.397L741.485 527.686L743.057 530.83L745.153 534.498L747.773 538.69L749.869 541.834L751.441 544.978L754.061 549.17L756.681 555.458L758.253 560.175L757.205 559.127L756.681 558.079L755.109 557.031L754.061 555.458L752.489 553.886L749.345 551.266L747.249 549.17L745.153 546.55L743.581 544.978L742.533 543.93L738.341 538.69L734.673 533.974L732.052 530.83L728.908 526.114L726.288 522.445L725.24 520.349L724.192 518.777L722.62 516.157L721.048 514.061L719.476 511.965L717.38 509.345L712.664 504.105L706.9 495.721L703.232 489.956L697.467 482.62L695.895 480.524L693.799 478.952L691.703 477.38Z" fill="#C481CF"/>
<path d="M613.101 677.555L614.149 679.651L617.293 676.507L620.437 673.362L625.153 669.694L628.821 667.074L633.013 664.978L638.777 661.834L642.969 660.262L646.638 659.214L650.83 658.69H653.974L653.45 657.118H652.926L649.258 648.21L647.686 645.589L645.066 641.397L641.921 636.157L638.777 631.441L634.061 624.105L627.773 616.769L621.485 608.908L612.576 598.428L606.812 592.14L599.476 584.803L595.808 581.135L593.188 579.039L590.044 576.943L585.852 573.799L583.232 571.179L583.756 574.323L584.28 578.515L584.804 582.183L585.328 586.9L586.376 590.044L587.948 594.76L589.52 601.572L591.616 608.908L593.188 614.148L595.284 620.961L596.856 627.249L598.428 630.917L601.048 636.681L603.144 641.397L604.716 647.686L605.764 651.878L606.812 656.07L608.908 661.834L610.48 666.55L611.528 669.694L612.576 674.41L613.101 677.555Z" fill="#C481CF"/>
<path d="M585.851 700.087L588.472 707.424L591.616 702.183L596.856 695.371L603.144 690.131L607.86 685.415L614.148 679.651L613.1 677.555L611.528 669.17L606.812 655.546L603.144 641.397L596.856 627.249L593.712 615.72L588.996 599.476L585.327 585.851L583.231 571.179L585.327 573.275L596.332 581.659L604.192 589.52L618.865 605.764L631.441 620.961L640.873 634.585L647.161 644.541L653.974 658.69H656.594L667.074 657.642L679.651 655.546L694.323 652.402L706.899 649.782L723.144 645.589L738.341 638.253L750.917 630.917L758.777 626.725L765.589 621.485L771.878 618.341H778.166L781.31 619.913L786.55 623.581L790.218 627.249L794.41 628.297L799.651 625.153L805.415 620.437L812.227 614.672L817.467 607.86L822.707 596.332L824.803 591.092L826.375 583.755C826.899 582.707 827.948 580.297 827.948 579.039C827.948 577.782 830.044 574.672 831.092 573.275L833.712 565.939L836.332 556.507L839.476 550.742L846.288 542.358L853.624 537.118L863.581 532.926L876.157 529.782L886.637 528.21L896.594 526.638L904.978 525.065H911.79L920.699 523.493L928.559 520.873L937.467 517.729L946.899 512.489L954.236 506.725L959.476 502.009L963.668 495.72L967.86 487.86L973.1 479.476L977.816 471.616L984.629 462.183L990.393 454.323L998.253 445.939L1002.45 439.651L1009.26 434.41L1016.07 430.218L1028.65 422.882L1032.31 419.738V413.45L1030.22 407.686L1026.03 402.969L1012.93 396.681L1005.07 391.441L993.013 383.581L985.153 376.244L977.816 372.052L970.48 367.336L963.668 361.048L953.188 351.092L944.279 341.659L936.943 329.607L933.799 319.651L929.083 310.218L925.939 303.406L919.651 297.642L912.838 288.734L906.55 278.777V270.917L910.218 266.201L912.838 263.057L919.651 261.485L910.218 252.052L900.786 243.144L886.113 228.472L842.62 182.358V184.978L849.432 203.843L855.72 215.895L863.057 235.284L873.537 255.72L880.873 269.869L888.734 286.113L903.406 314.41L914.934 340.087L924.891 357.38L936.943 380.961L930.131 376.244L923.319 369.956L914.934 357.38L902.358 341.659L891.878 323.843L876.681 307.598L863.057 283.493L851.004 259.913L837.904 227.424V243.144L841.048 257.817L844.716 278.777L853.1 305.502L858.865 317.031L865.677 337.467L876.681 363.668L887.161 389.345L898.166 412.402L907.598 433.362L912.314 448.035L900.786 441.747L891.878 433.362L884.541 423.406L876.681 410.83L867.249 398.253L859.913 384.629L853.1 369.956L848.384 357.38L844.716 348.996L841.048 341.659L837.904 333.799L833.188 323.843L828.996 315.458L825.851 309.17L822.183 303.406L818.515 293.974L815.895 287.686L812.751 276.681L809.083 280.873L806.463 283.493L803.319 286.113L800.175 289.258L797.555 291.354L793.362 295.022L790.218 297.642L786.55 300.786L778.166 309.17L786.026 326.463L791.266 337.467L798.603 354.236L812.227 386.725L817.991 401.397L830.568 429.17L836.856 448.035L842.096 467.424L848.384 478.952L852.052 492.576L848.384 486.288L842.096 477.38L835.284 468.996L828.996 459.563L822.183 448.035L815.895 438.079L809.083 427.598L802.795 417.118L795.458 405.589L787.074 392.489L779.214 380.961L772.402 369.956L766.637 361.048L762.445 363.668L757.205 367.86L753.013 371.528L760.349 389.345L766.637 403.493L772.402 421.31L780.262 442.795L787.074 463.755L790.742 477.38L793.362 489.956L795.982 502.009L793.362 496.244L789.694 488.908L785.502 478.952L779.214 467.424L775.022 458.515L766.637 441.747L760.349 427.598L754.585 415.546L745.677 398.253L739.389 389.345L736.768 395.633L731.528 403.493L726.812 412.402L720.524 425.502L715.284 438.079L707.948 452.227L708.996 455.895L713.712 466.375L716.332 474.236L719.476 482.096L725.764 497.293L733.1 511.441L739.389 524.017L743.581 532.402L749.345 541.31L755.109 551.79L758.253 560.175L757.205 559.127L753.537 554.934L748.821 550.742L745.153 546.55L740.437 541.31L735.196 534.498L731.528 529.782L726.812 522.969L722.62 516.157L717.904 509.869L712.14 503.057L706.375 494.672L701.659 487.86L695.895 480.524L689.607 475.808L681.223 483.668L673.886 489.956L661.834 498.341L650.306 504.629L638.253 509.869L626.725 514.585L613.1 519.825L603.144 522.969L590.044 526.638L579.563 529.782L564.891 533.974L553.886 536.594L542.358 539.738L531.354 543.406L521.921 546.55L510.393 549.17L511.441 551.266L514.061 556.507L516.681 561.747L520.873 569.607L524.541 576.943L529.258 585.851L537.118 601.572L548.646 623.581L555.982 637.729L563.843 653.45L571.179 669.17L576.943 681.747L582.707 693.275L585.851 700.087Z" fill="#DFA6F3"/>
<path d="M489.432 577.991L487.86 595.808L495.721 600.524L502.009 605.24L508.297 611.004L517.729 619.389L524.542 626.725L535.546 639.301L541.834 647.686L548.646 657.118L553.363 663.93L558.603 672.314L563.843 681.223L570.655 692.227L577.467 707.423H588.472L585.852 700.087L580.087 688.035L571.703 670.218L563.319 652.402L551.791 629.345L542.882 612.052L527.162 582.183L510.393 549.17L489.432 557.03V558.603V562.271V570.131V577.991Z" fill="#C481CF"/>
<path d="M1098.34 323.319L1085.76 338.515L1100.44 335.895L1112.49 330.655L1128.21 323.319L1149.17 312.314L1180.61 291.878L1203.14 274.585L1228.3 257.293L1245.07 246.288L1264.45 229.52L1274.41 220.611L1289.08 209.607L1283.32 220.611L1278.6 227.948L1272.31 236.332L1266.03 243.144L1260.26 252.052L1256.07 259.913L1252.4 267.773L1248.73 274.585L1245.07 281.921L1238.25 290.306L1226.72 303.406L1216.77 318.079L1226.72 309.17L1234.59 301.31L1252.4 288.734L1261.31 277.729L1275.98 265.153L1282.27 258.341L1300.09 244.192L1308.47 237.38L1316.33 230.568L1326.81 222.707L1332.05 217.991L1334.15 212.751V207.511L1335.72 199.127L1338.86 192.838L1344.63 184.454L1348.82 180.262L1353.54 176.07L1358.78 172.402L1364.02 167.162L1370.83 161.397L1376.59 156.157L1380.79 151.441L1384.45 147.773L1386.55 142.009L1388.12 134.672L1389.69 122.62L1391.27 111.616L1392.84 84.3668V49.2576L1388.12 59.214L1383.93 74.4105L1376.59 84.3668L1363.49 99.0393L1350.39 114.76L1332.05 134.672L1314.76 154.061L1299.04 167.162L1275.98 187.074L1259.21 203.319L1238.25 222.707L1216.77 241.048L1197.38 256.245L1167.51 276.157L1142.88 291.878L1126.64 302.882L1110.39 313.886L1098.34 323.319Z" fill="white"/>
<path d="M1177.99 442.271L1196.86 427.598L1205.24 432.314L1212.58 435.459L1219.39 437.031L1229.35 438.079L1219.39 446.463L1205.24 459.039L1192.14 470.044L1171.18 486.288L1150.74 502.533L1128.21 515.633L1109.35 523.493L1114.06 517.205L1126.11 498.865L1137.12 483.668L1150.74 467.948L1164.37 454.847L1177.99 442.271Z" fill="white"/>
<path d="M333.275 590.568L307.074 620.961L337.467 598.952L362.62 579.039L390.917 556.507L413.974 538.69L436.506 521.397L452.751 510.917L476.332 496.245L509.869 476.856L532.402 463.755L565.415 444.891L584.279 432.838L601.572 422.358L619.388 410.306L640.349 397.205L655.546 385.153L682.271 365.764L701.135 352.664L734.672 325.939L723.144 343.231L714.236 357.38L702.707 375.197L688.035 397.205L675.458 413.974L686.987 404.541L708.471 383.581L724.716 370.48L737.816 358.428L754.061 344.803L759.825 340.087L764.017 336.943L768.209 334.323L770.305 331.179V328.559V323.843L771.353 318.603L773.45 314.41L776.594 310.742L783.406 303.93L791.266 296.594L801.223 288.21L810.655 279.301L819.563 267.773L821.659 259.389V243.144L820.611 204.367L806.987 220.611L789.17 243.144L765.065 267.773L746.201 288.21L720.524 312.314L694.847 334.323L674.41 351.092L640.349 375.197L601.572 402.445L562.795 423.93L535.546 434.934L505.153 446.463L480 460.611L456.419 472.664L440.698 486.288L418.166 507.773L364.716 558.603L333.275 590.568Z" fill="white"/>
<path d="M1195.28 417.642L1183.23 422.882L1196.33 429.17L1206.81 433.886L1223.06 438.079L1237.73 440.699H1251.35L1263.41 438.079L1272.31 432.314L1263.41 418.69L1251.35 403.493L1242.97 394.061L1236.16 386.725L1229.87 394.061L1222.01 400.873L1207.86 410.306L1195.28 417.642Z" fill="#DFA6F3"/>
<path d="M426.55 693.799L415.546 707.948H577.467L576.419 704.803L570.655 692.227L563.843 681.223L554.935 666.55L548.122 656.07L540.786 646.114L530.83 633.537L516.157 617.817L500.961 604.192L487.86 595.808L484.716 607.336L481.572 617.817L474.76 630.917L466.376 644.017L451.703 662.882L439.651 677.031L426.55 693.799Z" fill="#DFA6F3"/>
<path d="M1171.18 699.563L1159.65 707.948L1203.14 707.424L1207.34 704.803L1213.62 701.659L1224.1 696.943L1233.54 691.703L1245.59 685.939L1253.97 680.699L1264.98 675.459L1278.6 668.646L1287.51 663.93L1299.04 658.69L1312.14 652.402L1332.58 644.017L1351.44 635.109L1370.83 627.249L1382.36 623.057L1395.46 617.817L1405.94 614.672L1412.75 612.052L1421.14 609.432L1429.52 604.192L1440 597.904V558.079H1437.38L1429.52 561.747L1419.56 566.463L1406.99 574.847L1395.46 581.135L1384.45 587.948L1375.02 595.284L1346.73 613.624L1332.58 622.533L1314.24 633.537L1302.71 639.825L1290.66 647.162L1271.79 657.118L1260.26 662.358L1245.07 669.694L1224.1 678.603L1210.48 683.319L1195.81 688.559L1183.23 693.275L1171.18 699.563Z" fill="white"/>
<path d="M1039.65 683.843L1030.74 693.275L1018.11 707.424H1039.65L1042.27 703.755L1053.28 693.275L1065.85 681.223L1083.14 666.55L1105.68 649.258L1124.02 635.109L1144.98 621.485L1167.51 607.86L1189 595.808L1223.58 575.371L1245.59 562.795L1276.51 548.646L1311.62 528.734L1330.48 515.633L1348.82 501.485L1367.69 484.192L1383.93 470.044L1401.22 453.799L1420.61 436.507L1440 419.738V380.437L1436.33 386.201L1429 393.537L1417.47 401.397L1406.99 409.258L1393.89 419.738L1382.88 431.79L1375.02 442.271L1348.82 468.472L1327.86 485.764L1279.13 518.777L1244.02 538.69L1198.43 564.891L1167.51 584.279L1181.66 568.559L1193.71 553.362L1212.58 530.83L1234.59 504.629L1254.5 483.144L1247.16 487.86L1235.63 494.672L1219.39 506.201L1200.52 519.825L1173.8 542.358L1152.84 561.223L1121.92 592.664L1103.06 613.624L1074.24 645.065L1056.42 665.502L1039.65 683.843Z" fill="white"/>
<path d="M899.738 700.611L897.118 707.948H926.987L930.131 696.943L935.371 686.463L942.183 677.555L951.092 667.598L960.524 658.166L966.812 652.402L974.672 646.114L983.057 637.205L994.061 626.201L1000.87 616.769L1010.31 600.524L1006.11 605.24L1000.87 611.004L995.633 616.769L989.345 623.057L979.388 630.393L967.86 637.205L956.332 643.493L945.851 649.258L934.847 655.546L925.939 662.358L915.982 671.266L910.218 677.555L904.978 685.939L902.358 692.751L899.738 700.611Z" fill="white"/>
<path d="M28.821 700.611L24.6289 707.424H97.9913L99.5634 706.376L121.048 690.131L134.149 680.175L155.633 665.502L175.022 650.83L187.598 640.873L181.31 644.541L173.974 648.734L158.253 656.07L139.389 665.502L113.712 678.603L68.6464 702.707L59.7381 706.9L57.118 706.376L63.4062 702.707L70.2184 696.943L75.4586 690.131L81.7468 681.747L86.987 673.886L91.1791 668.122L94.3232 662.882L103.232 656.07L114.76 647.686L124.716 640.349L133.625 635.109L145.677 627.249L155.633 621.485L162.445 617.293L169.782 612.576L182.358 605.24L191.79 600L205.939 591.616L218.515 584.279L227.948 578.515L240.524 571.179L251.004 564.367L266.201 555.983L282.97 544.978L291.354 538.69L319.127 519.301L334.323 508.297L355.808 490.48L354.236 491.528L350.568 492.576L343.232 496.245L334.323 501.485L323.319 507.249L309.17 515.109L295.546 522.445L275.109 535.022L260.437 544.454L238.428 558.603L219.563 571.179L209.607 577.991L201.223 583.231L193.887 588.996L186.026 593.712L179.214 599.476L173.45 603.144L168.734 606.812L162.97 611.004L157.205 614.672L150.393 618.865L143.057 621.485L136.769 624.629L130.48 627.249L123.144 629.869L115.808 631.965L108.996 633.537L102.183 636.157L96.4193 638.253L90.1311 640.349L83.3189 642.969L75.4586 646.114L69.6944 648.734L64.4542 652.402L58.69 657.642L53.9739 662.358L49.2577 667.074L45.5896 671.79L42.4455 677.031L40.3494 680.699L37.7293 685.415L34.0612 691.703L30.9171 697.467L28.821 700.611Z" fill="white"/>
<defs>
<linearGradient id="paint0_linear_2_3" x1="921.223" y1="59.214" x2="845.764" y2="707.424" gradientUnits="userSpaceOnUse">
<stop stop-color="#FEF8F8"/>
<stop offset="1" stop-color="#A663AC"/>
</linearGradient>
</defs>
</svg>
