<svg width="2232" height="792" viewBox="0 0 2232 792" fill="none" xmlns="http://www.w3.org/2000/svg">
<path d="M0 790.828L49.5458 742.757L72.2882 723.411L99.9039 703.479L112.9 696.444C113.17 696.053 114.686 694.568 118.585 691.754C123.458 688.237 125.895 687.064 129.956 684.719C134.017 682.375 134.83 682.375 138.079 679.443C140.678 677.099 145.659 672.995 147.825 671.236L164.3 660.049C165.383 658.681 172.426 653.444 174.375 651.099C187.371 642.657 186.929 639.824 190.449 638.651C193.507 636.012 195.877 635.382 198.996 633.131C209.392 623.751 216.865 617.889 219.301 616.13C229.86 610.268 230.672 607.923 233.921 604.992C236.52 602.647 239.878 600.107 241.231 599.13C241.502 598.934 242.531 597.957 244.48 595.612C246.43 593.267 257.747 581.738 263.162 576.266L285.092 556.921L305.397 538.748L327.327 522.919L348.445 508.85L358.192 502.987L376.061 497.711L389.057 495.366H395.555H412.611L428.856 496.539L441.851 497.711L452.41 498.298L467.843 499.47H484.899L493.022 498.298L505.205 496.539L517.389 495.366L530.384 493.021L543.38 490.09L559.624 485.987L568.559 483.056L594.55 475.435L624.603 466.055L637.598 461.951L648.157 459.02L661.153 456.089L674.961 453.744L692.017 450.813L705.013 449.054L714.76 448.468L731.817 445.537L744 443.192L755.371 440.261L774.865 435.571L787.86 431.467L798.419 427.95L819.537 420.915L828.471 416.811L836.594 413.294L843.092 409.776L854.463 404.5L862.585 400.983L868.271 398.052L871.52 395.707L878.017 392.776L882.891 389.845L896.699 382.224L910.506 374.603L921.065 368.154L935.685 359.36L942.183 355.257L948.681 352.326L955.179 349.395L962.489 346.463L971.423 341.187L981.982 335.325L990.917 329.463L999.851 325.359L1011.22 318.91L1020.16 314.221L1033.96 306.6L1044.52 301.323L1057.52 295.461L1066.45 290.771L1074.58 287.254L1080.26 283.737L1095.69 275.529L1107.07 269.667L1123.31 260.287L1133.06 255.011L1144.43 249.149L1152.55 243.873L1163.11 238.01L1172.04 232.148L1179.35 228.044L1194.79 219.251L1206.97 210.457L1221.59 201.664L1233.77 192.87L1241.9 185.836L1251.64 179.973L1258.14 175.283L1262.2 172.352L1263.01 171.18L1268.7 175.283L1276.01 181.732L1293.88 194.629L1302 201.078L1332.86 224.527L1358.04 243.873L1384.03 261.46L1414.09 281.978L1425.46 289.599L1445.76 304.841L1459.57 315.393L1470.94 323.6L1475 326.531L1476.63 328.876L1479.88 330.049L1484.75 331.808L1488.81 332.394H1495.31L1505.06 330.049L1520.49 327.118L1531.05 325.359L1540.79 323.014L1560.29 318.91L1569.22 316.566L1576.53 314.221L1583.84 312.462L1592.78 308.944L1610.65 303.668L1618.77 299.565L1629.33 294.875L1636.64 291.944L1661 281.392L1688.62 267.322L1705.68 257.356L1732.48 241.528L1749.54 231.562L1776.34 215.147L1788.52 208.699L1799.08 203.423L1808.83 198.147L1820.2 192.284L1829.14 188.181L1842.94 181.146L1851.88 175.87L1860 170.594L1868.93 166.49L1880.31 160.628L1895.74 153.007L1907.11 147.144L1918.48 140.11L1928.23 134.833L1937.97 129.557L1949.34 124.281L1963.96 116.074L1976.15 110.798L1989.14 103.177L1997.27 98.4871L2007.82 92.6247L2021.63 84.4175L2033.82 78.5551L2041.94 73.2791L2051.69 66.8305L2062.24 60.9682L2071.99 53.9334L2090.67 42.2087L2099.61 36.9326L2109.35 29.3116L2124.79 19.3457L2136.16 10.5522L2144.28 4.68986L2148.34 1.7587L2149.96 0L2159.71 9.37972L2169.46 17.587L2183.27 26.9667L2188.95 31.6566L2198.7 38.6913L2205.2 43.9674L2214.13 49.8298L2218.19 53.9334L2223.88 57.4508L2228.75 60.9682L2232 63.3131V791.753H0V790.828Z" fill="url(#paint0_linear_12_100)"/>
<path d="M2179.2 25.208L2171.08 18.7594L2187.33 28.1392L2206.01 42.795L2221.44 54.5196L2230.37 61.5544V80.9001V92.0385L2226.31 88.5211L2221.44 81.4863L2216.57 75.0378L2211.69 67.4167L2208.44 61.5544L2199.51 49.8298L2193.82 41.0363L2190.58 35.174L2187.33 32.2428L2179.2 25.208Z" fill="#DFA6F3"/>
<path d="M2226.31 212.802L2230.37 219.837V176.456L2225.5 170.594L2217.38 161.214L2210.07 153.593L2203.57 145.972L2199.51 140.696L2190.58 127.799L2184.89 121.35L2188.95 133.661L2193.01 145.972L2195.45 154.765L2201.95 168.835L2205.2 176.456L2213.32 191.112L2221.44 204.595L2226.31 212.802Z" fill="#DFA6F3"/>
<path d="M2145.9 165.318L2142.66 167.663L2145.9 176.456L2157.28 194.043L2167.83 209.285L2180.83 225.113L2188.95 238.597L2201.95 262.632L2224.69 296.047L2230.38 303.668V219.837L2219.82 201.664L2206.01 176.456L2197.07 154.765L2184.89 121.35L2190.58 128.385L2202.76 145.386L2216.57 160.628L2230.38 176.456V92.0385L2222.25 82.0726L2209.26 62.1407L2199.51 48.0711L2190.58 34.5877L2177.58 24.0356L2158.9 8.79351V53.9334V67.4168V106.108L2154.03 137.178L2152.4 145.386L2150.78 153.007L2148.34 160.628L2145.9 165.318Z" fill="#C481CF"/>
<path d="M2080.93 209.285L2079.3 211.63L2093.11 233.907L2110.17 263.805L2129.66 294.289L2145.09 320.083L2158.9 343.532L2175.14 375.775L2191.39 401.569L2199.51 398.638L2215.76 392.776L2230.38 385.741V303.668L2216.57 282.564L2200.32 257.356L2193.83 245.045L2182.45 225.699L2167.02 206.94L2154.84 189.353L2147.53 176.456L2142.66 167.662L2139.41 170.007L2135.35 173.525L2128.04 178.215L2121.54 182.318L2115.04 187.008L2107.73 191.698L2103.67 194.043L2097.17 196.974L2090.67 201.664L2086.61 204.595L2083.36 206.94L2080.93 209.285Z" fill="#DFA6F3"/>
<path d="M2058.18 270.253L2057.37 271.426L2065.49 281.978L2080.93 303.668L2097.98 320.669L2126.41 352.326L2142.66 371.085L2174.33 405.673L2191.39 401.569L2188.95 398.052L2179.21 380.465L2167.83 358.774L2158.9 340.601L2135.35 301.323L2120.73 277.874L2107.73 255.597L2090.67 226.286L2079.3 211.044L2076.05 213.975L2072.8 218.078L2070.37 222.182L2068.74 226.286L2067.93 232.148V237.424L2070.37 243.286L2071.99 250.321L2073.62 259.115V262.632L2072.8 266.15L2070.37 267.322H2068.74L2065.49 266.736L2062.25 267.322L2059.81 269.081L2058.18 270.253Z" fill="#C481CF"/>
<path d="M2036.25 291.358L2033.82 294.875L2049.25 325.359L2059.81 341.774L2070.37 363.464L2082.55 392.19L2093.92 414.466L2096.36 421.501L2097.98 423.26L2109.35 420.915L2130.47 416.225L2150.78 412.121L2174.33 405.673L2160.52 389.845L2145.9 372.844L2130.47 355.257L2115.04 338.256L2100.42 322.428L2082.55 303.668L2070.37 287.84L2057.37 271.426L2055.75 276.702L2050.87 281.392L2045.19 284.323L2040.31 287.84L2036.25 291.358Z" fill="#DFA6F3"/>
<path d="M2018.38 307.186L2010.26 314.807L2022.45 334.739L2050.06 375.189L2071.18 402.155L2076.05 410.363L2080.93 417.984L2085.8 425.605L2097.98 423.26L2097.17 422.087L2093.92 412.708L2085.8 393.948L2079.3 381.637L2071.18 365.223L2063.87 348.222L2058.18 335.911L2050.06 322.428L2040.31 305.427L2033.82 294.875L2025.69 301.91L2018.38 307.186Z" fill="#C481CF"/>
<path d="M1950.97 399.811L1943.66 407.432L1960.72 426.777L1968.84 437.329L1985.08 463.71L1992.39 474.262L2011.89 463.71L2024.07 455.503L2038.69 446.123L2045.19 439.674L2051.68 434.398L2058.99 430.881L2068.74 427.95L2076.86 426.777L2085.8 425.605L2076.86 408.604L2066.3 395.121L2055.75 381.637L2045.19 365.809L2038.69 355.257L2030.57 344.705L2019.2 328.876L2010.26 314.807L2007.82 317.152L2000.51 327.704L1994.83 335.325L1989.14 342.946L1984.27 352.912L1977.77 361.705L1968.84 375.189L1959.09 390.431L1950.97 399.811Z" fill="#DFA6F3"/>
<path d="M1926.6 423.26L1916.04 432.64L1929.04 442.605L1956.65 467.813L1972.09 483.642L1992.39 474.262L1985.08 462.537L1977.77 449.64L1964.78 429.708L1956.65 419.742L1943.66 407.432L1940.41 410.363L1933.1 417.397L1926.6 423.26Z" fill="#C481CF"/>
<path d="M1369.41 252.666L1363.73 247.976L1380.79 258.529L1394.59 267.322L1409.21 277.874L1422.21 286.668L1438.45 299.565L1445.76 306.013L1454.7 313.048L1465.26 321.255L1474.19 327.704L1478.25 332.394L1484.75 338.842L1492.87 347.636L1504.24 355.257L1518.05 364.05L1533.48 371.671L1549.73 377.534L1559.48 382.224L1569.22 385.741L1583.84 389.258H1604.15H1614.71L1624.45 388.086L1634.2 386.913H1645.57H1655.32L1665.06 391.017L1678.87 394.534L1691.87 400.983L1708.11 408.604L1723.55 416.811L1734.1 424.432L1746.29 431.467L1752.79 435.571L1760.91 439.674L1769.84 446.123L1769.03 449.054L1768.22 450.227L1758.47 451.399H1740.6L1723.55 455.503L1711.36 457.848L1694.3 460.779L1678.87 462.537L1666.69 463.71H1654.51L1641.51 464.882L1627.7 466.641L1617.96 467.813L1611.46 468.4L1604.15 469.572L1600.9 470.158H1599.27V469.572V466.641V463.71L1598.46 460.779L1596.84 457.848L1595.21 455.503L1592.78 453.744L1590.34 451.399L1587.09 450.227L1571.66 444.95L1565.16 442.019L1555.41 437.916L1544.86 432.64L1537.55 429.122L1526.99 422.087L1521.3 419.156L1510.74 415.053L1500.18 408.604L1486.37 399.811L1478.25 393.948L1470.94 388.086L1463.63 382.81L1459.57 378.12L1457.13 375.189L1455.51 372.844L1451.45 368.74L1450.64 365.223L1449.01 362.292L1448.2 359.947L1447.39 357.602L1444.95 354.671L1441.7 350.567L1438.45 345.291L1436.83 342.946L1435.2 340.015L1433.58 338.842L1427.08 334.739L1420.58 328.876L1414.09 323.014L1409.21 317.152L1405.96 313.634L1405.15 311.876L1404.34 310.117L1405.15 307.772V304.841V303.082L1405.96 302.496L1406.78 300.737L1410.03 298.392L1412.46 296.047L1414.09 294.875L1415.71 294.289L1418.96 293.702L1424.65 292.53L1404.34 277.874L1369.41 252.666Z" fill="#C481CF"/>
<path d="M1271.95 188.767V178.215L1306.06 204.009L1306.87 207.526L1311.75 216.906L1317.43 229.217L1327.18 241.528L1337.74 263.218L1346.67 274.357L1369.41 306.013L1379.16 321.255L1382.41 327.118L1387.28 333.566L1391.34 338.842L1395.41 344.118L1399.47 349.981L1405.15 359.36L1410.03 366.981L1413.27 372.258L1418.15 379.879L1423.02 385.741L1427.89 392.189L1437.64 405.087L1442.51 412.121L1448.2 420.329L1452.26 426.191L1444.95 422.674L1440.08 420.329L1437.64 418.57L1434.39 416.811L1431.14 413.88L1428.71 411.535L1424.65 407.432L1421.4 403.328L1417.34 399.224L1413.27 395.707L1404.34 387.5L1397.03 381.051L1392.97 375.775L1384.85 365.223L1382.41 362.292L1376.72 358.188L1368.6 351.739L1363.73 348.222L1361.29 345.877L1358.86 344.118L1357.23 342.36L1349.11 332.394L1340.99 321.255L1330.43 307.772L1323.93 298.392L1319.06 291.357L1315 284.323L1310.93 276.702L1307.69 270.839L1305.25 266.15L1302.81 262.046L1298.75 254.425V259.115V268.494V272.012L1299.56 274.357L1301.19 279.633L1303.62 286.668L1305.25 293.116L1306.06 298.392L1307.69 303.082L1309.31 311.876L1312.56 318.91L1317.43 330.635L1322.31 341.773L1327.99 349.395L1332.05 354.671L1332.86 357.602L1336.93 366.395L1340.17 372.258L1341.8 377.534L1344.24 381.637L1348.3 388.086L1355.61 400.397L1362.1 412.121L1366.98 420.915L1372.66 430.295L1376.72 437.329L1389.72 457.261L1397.03 468.4L1406.78 484.228L1410.03 490.677L1414.09 501.229L1407.59 498.884L1401.09 496.539L1397.03 494.78L1394.59 493.608L1392.16 491.849L1388.1 488.918L1383.22 485.987L1379.97 483.642L1375.1 478.366L1370.23 473.09L1363.73 465.469L1360.48 461.951L1356.42 457.261L1349.11 450.227L1343.42 444.95L1340.99 441.433L1332.86 430.881L1329.62 426.191L1320.68 410.949L1314.18 399.224L1311.75 395.121L1302.81 381.637L1299.56 375.775L1290.63 361.119L1283.32 351.739L1280.07 346.463L1276.82 342.36L1273.57 338.256L1267.89 328.29L1263.01 318.91L1261.39 314.221L1259.76 309.531L1263.01 306.6L1265.45 303.668L1268.7 300.737L1270.32 298.392L1271.13 295.461L1271.95 290.185V284.909V276.702V254.425V222.182V188.767Z" fill="#C481CF"/>
<path d="M1193.16 409.776L1188.29 403.914L1194.79 401.569L1198.85 400.397L1202.1 398.638V395.707L1201.28 393.362L1199.66 389.258L1197.22 381.637L1195.6 377.534L1194.79 372.258L1193.97 367.568V362.292L1194.79 359.947L1195.6 357.016L1198.03 353.498L1201.28 349.981L1206.16 345.877L1219.15 364.637L1236.21 392.189L1251.64 419.742L1264.64 442.605L1270.32 452.571L1276.01 461.365L1282.51 472.503L1287.38 479.538L1289 483.642L1293.06 492.435L1297.13 500.642L1300.37 509.436L1303.62 518.229L1305.25 522.919L1311.75 531.127L1315 535.23L1315.81 536.403L1317.43 542.265L1320.68 551.058L1311.75 541.679L1297.13 527.609L1285.75 515.885L1267.07 494.194L1251.64 475.434L1236.21 458.434L1227.27 447.295L1215.09 434.398L1203.72 422.087L1193.16 409.776Z" fill="#C481CF"/>
<path d="M1150.11 439.674L1146.05 435.571L1148.49 432.64L1151.74 429.708L1154.99 426.777L1157.42 423.846L1160.67 421.501L1163.92 418.57L1167.17 415.639L1168.79 418.57L1171.23 422.087L1174.48 428.536L1178.54 435.571L1181.79 440.261L1185.04 445.537L1188.29 450.813L1192.35 459.606L1196.41 467.813L1200.47 476.607L1206.97 489.504L1211.03 498.298L1216.72 510.022L1222.4 524.092L1226.46 535.816L1229.71 546.369L1231.34 553.403L1233.77 561.611L1231.34 558.093L1228.09 553.403L1224.03 546.955L1222.4 544.61L1217.53 535.816L1212.65 529.368L1207.78 522.333L1202.91 515.298L1195.6 504.746L1193.16 501.815L1189.91 497.125L1188.29 494.78L1184.23 487.745L1177.73 477.193L1170.42 466.055L1165.55 459.02L1163.92 456.675L1158.24 449.054L1155.8 445.537L1150.11 439.674Z" fill="#C481CF"/>
<path d="M1072.14 534.058L1068.89 532.299L1071.33 529.954L1074.58 527.609L1077.82 525.85L1081.89 521.747L1085.13 518.816L1089.2 514.126L1092.44 511.195L1094.88 508.85L1097.32 505.919L1098.13 508.263L1100.57 512.367L1104.63 518.229L1106.25 521.161L1107.88 524.092L1111.94 532.885L1116 539.92L1120.87 548.714L1126.56 558.093L1132.24 565.714L1136.3 570.99L1140.37 578.025L1143.62 583.301L1149.3 590.336L1151.74 593.853L1154.99 597.957L1159.05 602.647L1162.3 606.164L1164.73 609.682L1168.79 614.372L1172.86 621.406L1175.29 626.682L1173.67 625.51L1172.86 624.338L1170.42 623.165L1168.79 621.406L1166.36 619.648L1161.48 616.716L1158.24 614.372L1154.99 611.44L1152.55 609.682L1150.93 608.509L1144.43 602.647L1138.74 597.371L1134.68 593.853L1129.81 588.577L1125.75 584.474L1124.12 582.129L1122.5 580.37L1120.06 577.439L1117.62 575.094L1115.19 572.749L1111.94 569.818L1104.63 563.956L1095.69 554.576L1090.01 548.127L1081.07 539.92L1078.64 537.575L1075.39 535.816L1072.14 534.058Z" fill="#C481CF"/>
<path d="M950.306 757.998L951.931 760.343L956.804 756.826L961.677 753.309L968.987 749.205L974.673 746.274L981.171 743.929L990.105 740.411L996.603 738.653L1002.29 737.48L1008.79 736.894H1013.66L1012.85 735.135H1012.04L1006.35 725.169L1003.91 722.238L999.852 717.548L994.979 711.686L990.105 706.41L982.795 698.203L973.049 689.996L963.302 681.202L949.494 669.477L940.559 662.443L929.188 654.235L923.503 650.132L919.442 647.787L914.568 645.442L908.07 641.924L904.009 638.993L904.822 642.511L905.634 647.201L906.446 651.304L907.258 656.58L908.883 660.098L911.319 665.374L913.756 672.995L917.005 681.202L919.442 687.064L922.69 694.685L925.127 701.72L927.564 705.824L931.625 712.272L934.874 717.548L937.311 724.583L938.935 729.273L940.559 733.963L943.808 740.411L946.245 745.688L947.87 749.205L949.494 754.481L950.306 757.998Z" fill="#C481CF"/>
<path d="M908.07 783.206L912.131 791.414L917.004 785.551L925.126 777.93L934.873 772.068L942.183 766.792L951.93 760.343L950.305 757.998L947.869 748.619L940.559 733.377L934.873 717.548L925.126 701.72L920.253 688.823L912.943 670.65L907.257 655.408L904.008 638.993L907.257 641.338L924.314 650.718L936.498 659.511L959.24 677.685L978.733 694.685L993.353 709.927L1003.1 721.066L1013.66 736.894H1017.72L1033.96 735.722L1053.46 733.377L1076.2 729.859L1095.69 726.928L1120.87 722.238L1144.43 714.031L1163.92 705.824L1176.1 701.134L1186.66 695.272L1196.41 691.754H1206.16L1211.03 693.513L1219.15 697.617L1224.84 701.72L1231.34 702.893L1239.46 699.375L1248.39 694.099L1258.95 687.651L1267.07 680.03L1275.2 667.132L1278.45 661.27L1280.88 653.063C1281.69 651.89 1283.32 649.194 1283.32 647.787C1283.32 646.38 1286.57 642.902 1288.19 641.338L1292.25 633.131L1296.31 622.579L1301.19 616.13L1311.75 606.751L1323.12 600.888L1338.55 596.198L1358.04 592.681L1374.29 590.922L1389.72 589.164L1402.72 587.405H1413.27L1427.08 585.646L1439.27 582.715L1453.07 579.198L1467.69 573.335L1479.07 566.887L1487.19 561.611L1493.69 554.576L1500.18 545.782L1508.31 536.403L1515.62 527.609L1526.17 517.057L1535.11 508.264L1547.29 498.884L1553.79 491.849L1564.35 485.987L1574.91 481.297L1594.4 473.09L1600.09 469.572V462.537L1596.84 456.089L1590.34 450.813L1570.03 443.778L1557.85 437.916L1539.17 429.122L1526.99 420.915L1515.62 416.225L1504.24 410.949L1493.69 403.914L1477.44 392.776L1463.63 382.224L1452.26 368.74L1447.39 357.602L1440.08 347.05L1435.2 339.429L1425.46 332.98L1414.9 323.014L1405.15 311.876V303.082L1410.84 297.806L1414.9 294.289L1425.46 292.53L1410.84 281.978L1396.22 272.012L1373.48 255.597L1306.06 204.009V206.94L1316.62 228.044L1326.37 241.528L1337.74 263.218L1353.98 286.081L1365.35 301.91L1377.54 320.083L1400.28 351.739L1418.15 380.465L1433.58 399.811L1452.26 426.191L1441.7 420.915L1431.14 413.88L1418.15 399.811L1398.65 382.224L1382.41 362.292L1358.86 344.118L1337.74 317.152L1319.06 290.771L1298.75 254.425V272.012L1303.62 288.426L1309.31 311.876L1322.31 341.773L1331.24 354.671L1341.8 377.534L1358.86 406.845L1375.1 435.571L1392.16 461.365L1406.78 484.814L1414.09 501.229L1396.22 494.194L1382.41 484.814L1371.04 473.676L1358.86 459.606L1344.24 445.537L1332.86 430.295L1322.31 413.88L1315 399.811L1309.31 390.431L1303.62 382.224L1298.75 373.43L1291.44 362.292L1284.94 352.912L1280.07 345.877L1274.38 339.429L1268.7 328.876L1264.64 321.842L1259.76 309.531L1254.08 314.221L1250.02 317.152L1245.14 320.083L1240.27 323.6L1236.21 325.945L1229.71 330.049L1224.84 332.98L1219.15 336.497L1206.16 345.877L1218.34 365.223L1226.46 377.534L1237.83 396.293L1258.95 432.64L1267.89 449.054L1287.38 480.124L1297.13 501.229L1305.25 522.919L1315 535.816L1320.68 551.058L1315 544.024L1305.25 534.058L1294.69 524.678L1284.94 514.126L1274.38 501.229L1264.64 490.09L1254.08 478.366L1244.33 466.641L1232.96 453.744L1219.96 439.088L1207.78 426.191L1197.22 413.88L1188.29 403.914L1181.79 406.845L1173.67 411.535L1167.17 415.639L1178.54 435.571L1188.29 451.399L1197.22 471.331L1209.41 495.366L1219.96 518.816L1225.65 534.058L1229.71 548.127L1233.77 561.611L1229.71 555.162L1224.03 546.955L1217.53 535.816L1207.78 522.919L1201.28 512.953L1188.29 494.194L1178.54 478.366L1169.61 464.882L1155.8 445.537L1146.05 435.571L1141.99 442.605L1133.87 451.399L1126.56 461.365L1116.81 476.021L1108.69 490.09L1097.32 505.919L1098.94 510.022L1106.25 521.747L1110.31 530.54L1115.19 539.334L1124.93 556.335L1136.31 572.163L1146.05 586.232L1152.55 595.612L1161.48 605.578L1170.42 617.303L1175.29 626.682L1173.67 625.51L1167.98 620.82L1160.67 616.13L1154.99 611.44L1147.68 605.578L1139.55 597.957L1133.87 592.681L1126.56 585.06L1120.06 577.439L1112.75 570.404L1103.82 562.783L1094.88 553.403L1087.57 545.782L1078.64 537.575L1068.89 532.299L1055.89 541.093L1044.52 548.127L1025.84 557.507L1007.97 564.542L989.292 570.404L971.423 575.68L950.305 581.543L934.873 585.06L914.567 589.164L898.323 592.681L875.58 597.371L858.524 600.302L840.655 603.819L823.598 607.923L808.978 611.44L791.109 614.372L792.733 616.717L796.794 622.579L800.856 628.441L807.353 637.235L813.039 645.442L820.349 655.408L832.532 672.995L850.401 697.617L861.773 713.445L873.956 731.032L885.327 748.619L894.262 762.688L903.196 775.585L908.07 783.206Z" fill="#DFA6F3"/>
<path d="M758.62 646.614L756.184 666.546L768.367 671.822L778.114 677.098L787.86 683.547L802.481 692.927L813.039 701.134L830.096 715.203L839.843 724.583L850.402 735.135L857.712 742.756L865.834 752.136L873.956 762.102L884.515 774.413L895.074 791.414H912.131L908.07 783.206L899.136 769.723L886.14 749.791L873.144 729.859L855.275 704.065L841.467 684.719L817.101 651.304L791.109 614.371L758.62 623.165V624.924V629.027V637.821V646.614Z" fill="#C481CF"/>
<path d="M1702.43 361.705L1682.93 378.706L1705.68 375.775L1724.36 369.913L1748.72 361.705L1781.21 349.395L1829.95 326.531L1864.87 307.186L1903.86 287.84L1929.85 275.529L1959.9 256.77L1975.34 246.804L1998.08 234.493L1989.14 246.804L1981.83 255.011L1972.09 264.391L1962.34 272.012L1953.41 281.978L1946.91 290.771L1941.22 299.565L1935.54 307.186L1929.85 315.393L1919.29 324.773L1901.42 339.429L1885.99 355.843L1901.42 345.877L1913.61 337.084L1941.22 323.014L1955.03 310.703L1977.77 296.634L1987.52 289.013L2015.14 273.184L2028.13 265.563L2040.31 257.942L2056.56 249.149L2064.68 243.873L2067.93 238.01V232.148L2070.37 222.768L2075.24 215.734L2084.17 206.354L2090.67 201.664L2097.98 196.974L2106.1 192.87L2114.23 187.008L2124.79 180.56L2133.72 174.697L2140.22 169.421L2145.9 165.318L2149.15 158.869L2151.59 150.662L2154.03 137.178L2156.46 124.867L2158.9 94.3834V55.1058L2151.59 66.2443L2145.09 83.245L2133.72 94.3834L2113.41 110.798L2093.11 128.385L2064.68 150.662L2037.88 172.352L2013.51 187.008L1977.77 209.285L1951.78 227.458L1919.29 249.149L1885.99 269.667L1855.94 286.668L1809.64 308.944L1771.47 326.531L1746.29 338.842L1721.11 351.153L1702.43 361.705Z" fill="white"/>
<path d="M1825.89 494.78L1855.13 478.366L1868.12 483.642L1879.49 487.159L1890.05 488.918L1905.48 490.09L1890.05 499.47L1868.12 513.54L1847.82 525.85L1815.33 544.024L1783.65 562.197L1748.73 576.853L1719.48 585.646L1726.79 578.611L1745.48 558.093L1762.53 541.093L1783.65 523.506L1804.77 508.85L1825.89 494.78Z" fill="white"/>
<path d="M516.577 660.684L475.965 694.685L523.074 670.064L562.061 647.787L605.922 622.579L641.66 602.647L676.585 583.301L701.764 571.577L738.315 555.162L790.297 533.471L825.223 518.816L876.393 497.711L905.633 484.228L932.437 472.503L960.053 459.02L992.542 444.364L1016.1 430.881L1057.52 409.19L1086.76 394.534L1138.74 364.637L1120.87 383.982L1107.07 399.81L1089.2 419.742L1066.45 444.364L1046.96 463.124L1064.83 452.571L1098.13 429.122L1123.31 414.466L1143.62 400.983L1168.79 385.741L1177.73 380.465L1184.23 376.947L1190.73 374.016L1193.97 370.499V367.568V362.292L1195.6 356.429L1198.85 351.739L1203.72 347.636L1214.28 340.015L1226.46 331.808L1241.9 322.428L1256.52 312.462L1270.32 299.565L1273.57 290.185V272.012L1271.95 228.631L1250.83 246.804L1223.21 272.012L1185.85 299.565L1156.61 322.428L1116.81 349.394L1077.01 374.016L1045.34 392.776L992.542 419.742L932.437 450.226L872.332 474.262L830.096 486.573L782.987 499.47L744 515.298L707.45 528.782L683.083 544.024L648.157 568.059L565.31 624.924L516.577 660.684Z" fill="white"/>
<path d="M1852.69 467.227L1834.01 473.09L1854.31 480.124L1870.56 485.401L1895.74 490.09L1918.48 493.022H1939.6L1958.28 490.09L1972.09 483.642L1958.28 468.4L1939.6 451.399L1926.6 440.847L1916.04 432.64L1906.3 440.847L1894.11 448.468L1872.18 459.02L1852.69 467.227Z" fill="#DFA6F3"/>
<path d="M661.152 776.172L644.096 792H895.074L893.449 788.483L884.515 774.413L873.956 762.102L860.148 745.688L849.589 733.963L838.218 722.825L822.786 708.755L800.043 691.168L776.489 675.926L756.183 666.546L751.31 679.443L746.436 691.168L735.877 705.824L722.882 720.48L700.139 741.584L681.458 757.412L661.152 776.172Z" fill="#DFA6F3"/>
<path d="M1815.33 782.62L1797.46 792L1864.87 791.414L1871.37 788.483L1881.12 784.965L1897.36 779.689L1911.98 773.827L1930.66 767.378L1943.66 761.516L1960.72 755.654L1981.83 748.033L1995.64 742.757L2013.51 736.894L2033.82 729.859L2065.49 720.48L2094.73 710.514L2124.79 701.72L2142.65 697.03L2162.96 691.168L2179.21 687.651L2189.76 684.72L2202.76 681.788L2215.76 675.926L2232 668.891V624.338H2227.94L2215.76 628.441L2200.32 633.717L2180.83 643.097L2162.96 650.132L2145.9 657.753L2131.28 665.96L2087.42 686.478L2065.49 696.444L2037.07 708.755L2019.2 715.79L2000.52 723.997L1971.28 735.136L1953.41 740.998L1929.85 749.205L1897.36 759.171L1876.24 764.447L1853.5 770.309L1834.01 775.586L1815.33 782.62Z" fill="white"/>
<path d="M1611.46 765.033L1597.65 775.586L1578.07 791.414H1611.46L1615.52 787.31L1632.58 775.586L1652.07 762.102L1678.87 745.688L1713.8 726.342L1742.23 710.514L1774.72 695.272L1809.64 680.03L1842.94 666.546L1896.55 643.683L1930.66 629.614L1978.58 613.785L2033 591.508L2062.24 576.853L2090.67 561.024L2119.91 541.679L2145.09 525.85L2171.89 507.677L2201.95 488.332L2232 469.572V425.605L2226.31 432.053L2214.94 440.261L2197.07 449.054L2180.83 457.847L2160.52 469.572L2143.47 483.055L2131.28 494.78L2090.67 524.092L2058.18 543.437L1982.65 580.37L1928.23 602.647L1857.56 631.959L1809.64 653.649L1831.57 636.062L1850.25 619.061L1879.49 593.853L1913.61 564.542L1944.47 540.506L1933.1 545.782L1915.23 553.403L1890.05 566.301L1860.81 581.543L1819.39 606.751L1786.9 627.855L1738.98 663.029L1709.74 686.478L1665.06 721.652L1637.45 744.515L1611.46 765.033Z" fill="white"/>
<path d="M1394.59 783.793L1390.53 792H1436.83L1441.7 779.689L1449.82 767.965L1460.38 757.999L1474.19 746.86L1488.81 736.308L1498.56 729.859L1510.74 722.825L1523.74 712.859L1540.79 700.548L1551.35 689.996L1565.97 671.822L1559.47 677.098L1551.35 683.547L1543.23 689.996L1533.48 697.03L1518.05 705.238L1500.18 712.859L1482.31 719.893L1466.07 726.342L1449.01 733.377L1435.2 740.998L1419.77 750.964L1410.84 757.999L1402.72 767.378L1398.65 774.999L1394.59 783.793Z" fill="white"/>
<path d="M44.6726 783.793L38.1748 791.414H151.887L154.323 790.241L187.625 772.068L207.93 760.93L241.232 744.515L271.284 728.101L290.777 716.962L281.031 721.066L269.659 725.756L245.293 733.963L216.052 744.515L176.253 759.171L106.402 786.138L92.594 790.828L88.5329 790.241L98.2796 786.138L108.839 779.689L116.961 772.068L126.708 762.688L134.83 753.895L141.328 747.446L146.201 741.584L160.009 733.963L177.878 724.583L193.31 716.376L207.118 710.514L225.799 701.72L241.232 695.272L251.79 690.582L263.162 685.306L282.655 677.098L297.275 671.236L319.205 661.856L338.699 653.649L353.319 647.201L372.812 638.993L389.057 631.372L412.611 621.993L438.603 609.682L451.598 602.647L494.646 580.956L518.201 568.645L551.502 548.714L549.066 549.886L543.38 551.058L532.009 555.162L518.201 561.024L501.144 567.473L479.214 576.266L458.096 584.474L426.419 598.543L403.677 609.096L369.563 624.924L340.323 638.993L324.891 646.614L311.895 652.477L300.524 658.925L288.341 664.201L277.782 670.65L268.847 674.754L261.537 678.857L252.603 683.547L243.668 687.651L233.109 692.34L221.738 695.272L211.991 698.789L202.245 701.72L190.873 704.651L179.502 706.996L168.943 708.755L158.384 711.686L149.45 714.031L139.703 716.376L129.144 719.307L116.961 722.825L108.026 725.756L99.904 729.859L90.9696 735.722L83.6595 740.998L76.3495 746.274L70.6639 751.55L65.7905 757.412L62.5416 761.516L58.4805 766.792L52.7949 773.827L47.9215 780.275L44.6726 783.793Z" fill="white"/>
<defs>
<linearGradient id="paint0_linear_12_100" x1="1427.9" y1="66.2443" x2="1366.57" y2="796.089" gradientUnits="userSpaceOnUse">
<stop stop-color="#FEF8F8"/>
<stop offset="1" stop-color="#A663AC"/>
</linearGradient>
</defs>
</svg>
