<svg width="1940" height="700" viewBox="0 0 1940 700" fill="none" xmlns="http://www.w3.org/2000/svg">
<path d="M0 698.996L43.064 657.815L62.8312 641.242L86.8341 624.168L98.1295 618.141C98.3649 617.806 99.6827 616.534 103.071 614.124C107.307 611.11 109.425 610.106 112.955 608.097C116.485 606.089 117.191 606.089 120.015 603.578C122.274 601.569 126.604 598.053 128.486 596.547L142.806 586.963C143.747 585.791 149.868 581.305 151.562 579.296C162.858 572.064 162.474 569.637 165.533 568.633C168.191 566.372 170.252 565.832 172.962 563.904C181.999 555.868 188.493 550.846 190.611 549.34C199.789 544.318 200.495 542.309 203.319 539.798C205.578 537.789 208.496 535.613 209.672 534.776C209.908 534.609 210.802 533.772 212.496 531.763C214.191 529.754 224.027 519.877 228.734 515.19L247.795 498.618L265.444 483.049L284.505 469.49L302.86 457.437L311.332 452.415L326.863 447.895L338.159 445.887H343.806H358.632L372.751 446.891L384.047 447.895L393.224 448.398L406.638 449.402H421.463L428.523 448.398L439.112 446.891L449.702 445.887L460.997 443.878L472.293 441.367L486.412 437.851L494.178 435.34L516.769 428.812L542.889 420.777L554.185 417.261L563.362 414.75L574.658 412.239L586.659 410.23L601.485 407.719L612.78 406.213L621.252 405.711L636.077 403.2L646.667 401.191L656.55 398.68L673.493 394.662L684.789 391.147L693.966 388.134L712.322 382.107L720.087 378.592L727.147 375.579L732.795 372.565L742.678 368.046L749.738 365.032L754.68 362.521L757.504 360.513L763.151 358.002L767.387 355.491L779.389 348.962L791.39 342.433L800.568 336.909L813.275 329.376L818.923 325.861L824.571 323.35L830.218 320.839L836.572 318.328L844.338 313.808L853.515 308.786L861.281 303.764L869.047 300.249L878.93 294.724L886.696 290.707L898.697 284.178L907.875 279.658L919.17 274.636L926.936 270.619L933.996 267.606L938.937 264.592L952.351 257.562L962.234 252.54L976.354 244.504L984.825 239.985L994.709 234.963L1001.77 230.443L1010.95 225.421L1018.71 220.399L1025.07 216.883L1038.48 209.35L1049.07 201.817L1061.78 194.284L1072.37 186.751L1079.42 180.725L1087.9 175.703L1093.54 171.685L1097.07 169.174L1097.78 168.17L1102.72 171.685L1109.08 177.209L1124.61 188.258L1131.67 193.782L1158.49 213.87L1180.38 230.443L1202.97 245.509L1229.09 263.086L1238.97 269.614L1256.62 282.672L1268.62 291.711L1278.51 298.742L1282.04 301.253L1283.45 303.262L1286.27 304.266L1290.51 305.773L1294.04 306.275H1299.69L1308.16 304.266L1321.57 301.755L1330.75 300.249L1339.22 298.24L1356.16 294.724L1363.93 292.716L1370.28 290.707L1376.64 289.2L1384.4 286.187L1399.93 281.667L1406.99 278.152L1416.17 274.134L1422.53 271.623L1443.7 262.584L1467.71 250.531L1482.53 241.993L1505.83 228.434L1520.66 219.896L1543.95 205.835L1554.54 200.311L1563.72 195.791L1572.19 191.271L1582.07 186.249L1589.84 182.734L1601.84 176.707L1609.61 172.187L1616.67 167.668L1624.43 164.152L1634.32 159.13L1647.73 152.602L1657.61 147.58L1667.5 141.553L1675.97 137.033L1684.44 132.514L1694.32 127.994L1707.03 120.963L1717.62 116.443L1728.92 109.915L1735.98 105.897L1745.15 100.875L1757.15 93.8442L1767.74 88.8222L1774.8 84.3024L1783.28 78.7782L1792.45 73.7562L1800.92 67.7298L1817.16 57.6858L1824.93 53.166L1833.4 46.6374L1846.81 38.1L1856.7 30.567L1863.76 25.545L1867.29 23.034L1868.7 21.5274L1877.17 29.5626L1885.64 36.5934L1897.64 44.6286L1902.58 48.6462L1911.06 54.6726L1916.7 59.1924L1924.47 64.2144L1928 67.7298L1932.94 70.743L1937.18 73.7562L1940 75.765V699.788H0V698.996Z" fill="url(#paint0_linear_2_3)"/>
<path d="M1894.11 43.122L1887.05 37.5978L1901.17 45.633L1917.41 58.188L1930.82 68.232L1938.59 74.2584V90.831V100.373L1935.06 97.3596L1930.82 91.3332L1926.59 85.809L1922.35 79.2804L1919.53 74.2584L1911.76 64.2144L1906.82 56.6814L1904 51.6594L1901.17 49.1484L1894.11 43.122Z" fill="#DFA6F3"/>
<path d="M1935.06 203.826L1938.59 209.853V172.69L1934.35 167.668L1927.29 159.633L1920.94 153.104L1915.29 146.575L1911.76 142.056L1904 131.007L1899.05 125.483L1902.58 136.029L1906.11 146.575L1908.23 154.108L1913.88 166.161L1916.7 172.69L1923.76 185.245L1930.82 196.795L1935.06 203.826Z" fill="#DFA6F3"/>
<path d="M1865.17 163.148L1862.34 165.157L1865.17 172.69L1875.05 187.756L1884.23 200.813L1895.52 214.372L1902.58 225.923L1913.88 246.513L1933.65 275.139L1938.59 281.667V209.853L1929.41 194.284L1917.41 172.69L1909.64 154.108L1899.05 125.483L1904 131.509L1914.59 146.073L1926.59 159.13L1938.59 172.69V100.373L1931.53 91.8355L1920.23 74.7607L1911.76 62.7079L1904 51.1573L1892.7 42.1177L1876.46 29.0605V67.7299V79.2805V112.426L1872.23 139.042L1870.82 146.073L1869.4 152.602L1867.29 159.13L1865.17 163.148Z" fill="#C481CF"/>
<path d="M1808.69 200.813L1807.28 202.822L1819.28 221.905L1834.11 247.518L1851.05 273.632L1864.46 295.729L1876.46 315.817L1890.58 343.438L1904.7 365.535L1911.76 363.024L1925.88 358.002L1938.59 351.975V281.667L1926.59 263.588L1912.47 241.993L1906.82 231.447L1896.94 214.875L1883.52 198.804L1872.93 183.738L1866.58 172.69L1862.34 165.157L1859.52 167.165L1855.99 170.179L1849.64 174.196L1843.99 177.712L1838.34 181.729L1831.99 185.747L1828.46 187.756L1822.81 190.267L1817.16 194.284L1813.63 196.795L1810.81 198.804L1808.69 200.813Z" fill="#DFA6F3"/>
<path d="M1788.92 253.042L1788.22 254.046L1795.28 263.086L1808.69 281.667L1823.52 296.231L1848.22 323.35L1862.34 339.42L1889.88 369.05L1904.7 365.535L1902.58 362.521L1894.11 347.455L1884.23 328.874L1876.46 313.306L1855.99 279.658L1843.28 259.57L1831.99 240.487L1817.16 215.377L1807.28 202.32L1804.45 204.831L1801.63 208.346L1799.51 211.861L1798.1 215.377L1797.39 220.399V224.919L1799.51 229.941L1800.92 235.967L1802.34 243.5V246.513L1801.63 249.526L1799.51 250.531H1798.1L1795.28 250.029L1792.45 250.531L1790.33 252.037L1788.92 253.042Z" fill="#C481CF"/>
<path d="M1769.86 271.121L1767.74 274.134L1781.16 300.249L1790.33 314.31L1799.51 332.892L1810.1 357.499L1819.99 376.583L1822.1 382.609L1823.52 384.116L1833.4 382.107L1851.75 378.09L1869.4 374.574L1889.88 369.05L1877.87 355.491L1865.17 340.927L1851.75 325.861L1838.34 311.297L1825.63 297.738L1810.1 281.667L1799.51 268.108L1788.22 254.046L1786.8 258.566L1782.57 262.584L1777.63 265.095L1773.39 268.108L1769.86 271.121Z" fill="#DFA6F3"/>
<path d="M1754.33 284.68L1747.27 291.209L1757.86 308.284L1781.86 342.936L1800.22 366.037L1804.45 373.068L1808.69 379.596L1812.93 386.125L1823.52 384.116L1822.81 383.112L1819.99 375.076L1812.93 359.006L1807.28 348.46L1800.22 334.398L1793.86 319.834L1788.92 309.288L1781.86 297.738L1773.39 283.174L1767.74 274.134L1760.68 280.161L1754.33 284.68Z" fill="#C481CF"/>
<path d="M1695.73 364.028L1689.38 370.557L1704.21 387.129L1711.27 396.169L1725.39 418.768L1731.74 427.807L1748.68 418.768L1759.27 411.737L1771.98 403.702L1777.63 398.178L1783.27 393.658L1789.63 390.645L1798.1 388.134L1805.16 387.129L1812.93 386.125L1805.16 371.561L1795.98 360.01L1786.8 348.46L1777.63 334.9L1771.98 325.861L1764.92 316.821L1755.04 303.262L1747.27 291.209L1745.15 293.218L1738.8 302.257L1733.86 308.786L1728.92 315.315L1724.68 323.852L1719.03 331.385L1711.27 342.936L1702.79 355.993L1695.73 364.028Z" fill="#DFA6F3"/>
<path d="M1674.56 384.116L1665.38 392.151L1676.67 400.689L1700.68 422.283L1714.09 435.843L1731.74 427.807L1725.39 417.763L1719.03 406.715L1707.74 389.64L1700.68 381.103L1689.38 370.557L1686.56 373.068L1680.2 379.094L1674.56 384.116Z" fill="#C481CF"/>
<path d="M1190.26 237.976L1185.32 233.958L1200.15 242.998L1212.15 250.531L1224.85 259.57L1236.15 267.103L1250.27 278.152L1256.62 283.676L1264.39 289.702L1273.57 296.733L1281.33 302.257L1284.86 306.275L1290.51 311.799L1297.57 319.332L1307.45 325.861L1319.45 333.394L1332.87 339.922L1346.99 344.944L1355.46 348.962L1363.93 351.975L1376.64 354.988H1394.29H1403.46L1411.94 353.984L1420.41 352.98H1430.29H1438.76L1447.23 356.495L1459.24 359.508L1470.53 365.032L1484.65 371.561L1498.06 378.592L1507.24 385.12L1517.83 391.147L1523.48 394.662L1530.54 398.178L1538.3 403.702L1537.6 406.213L1536.89 407.217L1528.42 408.222H1512.89L1498.06 411.737L1487.47 413.746L1472.65 416.257L1459.24 417.763L1448.65 418.768H1438.06L1426.76 419.772L1414.76 421.279L1406.29 422.283L1400.64 422.785L1394.29 423.79L1391.46 424.292H1390.05V423.79V421.279V418.768L1389.34 416.257L1387.93 413.746L1386.52 411.737L1384.4 410.23L1382.28 408.222L1379.46 407.217L1366.05 402.697L1360.4 400.186L1351.93 396.671L1342.75 392.151L1336.4 389.138L1327.22 383.112L1322.28 380.601L1313.1 377.085L1303.92 371.561L1291.92 364.028L1284.86 359.006L1278.51 353.984L1272.15 349.464L1268.62 345.447L1266.51 342.936L1265.09 340.927L1261.56 337.411L1260.86 334.398L1259.45 331.887L1258.74 329.878L1258.03 327.87L1255.92 325.359L1253.09 321.843L1250.27 317.323L1248.86 315.315L1247.45 312.804L1246.03 311.799L1240.39 308.284L1234.74 303.262L1229.09 298.24L1224.85 293.218L1222.03 290.205L1221.32 288.698L1220.62 287.191L1221.32 285.183V282.672V281.165L1222.03 280.663L1222.74 279.156L1225.56 277.147L1227.68 275.139L1229.09 274.134L1230.5 273.632L1233.33 273.13L1238.27 272.125L1220.62 259.57L1190.26 237.976Z" fill="#C481CF"/>
<path d="M1105.55 183.236V174.196L1135.2 196.293L1135.9 199.306L1140.14 207.342L1145.08 217.888L1153.55 228.434L1162.73 247.015L1170.5 256.557L1190.26 283.676L1198.73 296.733L1201.56 301.755L1205.79 307.279L1209.32 311.799L1212.85 316.319L1216.38 321.341L1221.32 329.376L1225.56 335.905L1228.38 340.425L1232.62 346.953L1236.86 351.975L1241.09 357.499L1249.56 368.548L1253.8 374.574L1258.74 381.605L1262.27 386.627L1255.92 383.614L1251.68 381.605L1249.56 380.098L1246.74 378.592L1243.92 376.081L1241.8 374.072L1238.27 370.557L1235.44 367.041L1231.91 363.526L1228.38 360.513L1220.62 353.482L1214.27 347.958L1210.74 343.438L1203.68 334.398L1201.56 331.887L1196.62 328.372L1189.56 322.848L1185.32 319.834L1183.2 317.826L1181.08 316.319L1179.67 314.812L1172.61 306.275L1165.55 296.733L1156.38 285.183L1150.73 277.147L1146.49 271.121L1142.96 265.095L1139.43 258.566L1136.61 253.544L1134.49 249.526L1132.37 246.011L1128.84 239.482V243.5V251.535V254.548L1129.55 256.557L1130.96 261.077L1133.08 267.103L1134.49 272.628L1135.2 277.147L1136.61 281.165L1138.02 288.698L1140.84 294.724L1145.08 304.768L1149.32 314.31L1154.26 320.839L1157.79 325.359L1158.49 327.87L1162.02 335.403L1164.85 340.425L1166.26 344.944L1168.38 348.46L1171.91 353.984L1178.26 364.53L1183.91 374.574L1188.14 382.107L1193.09 390.142L1196.62 396.169L1207.91 413.244L1214.27 422.785L1222.74 436.345L1225.56 441.869L1229.09 450.909L1223.44 448.9L1217.79 446.891L1214.27 445.384L1212.15 444.38L1210.03 442.873L1206.5 440.362L1202.26 437.851L1199.44 435.843L1195.2 431.323L1190.97 426.803L1185.32 420.274L1182.5 417.261L1178.97 413.244L1172.61 407.217L1167.67 402.697L1165.55 399.684L1158.49 390.645L1155.67 386.627L1147.9 373.57L1142.26 363.526L1140.14 360.01L1132.37 348.46L1129.55 343.438L1121.78 330.883L1115.43 322.848L1112.61 318.328L1109.78 314.812L1106.96 311.297L1102.02 302.76L1097.78 294.724L1096.37 290.707L1094.96 286.689L1097.78 284.178L1099.9 281.667L1102.72 279.156L1104.13 277.147L1104.84 274.636L1105.55 270.117V265.597V258.566V239.482V211.861V183.236Z" fill="#C481CF"/>
<path d="M1037.07 372.565L1032.83 367.543L1038.48 365.535L1042.01 364.53L1044.83 363.024V360.513L1044.13 358.504L1042.71 354.988L1040.6 348.46L1039.18 344.944L1038.48 340.425L1037.77 336.407V331.887L1038.48 329.878L1039.18 327.367L1041.3 324.354L1044.13 321.341L1048.36 317.826L1059.66 333.896L1074.48 357.499L1087.9 381.103L1099.19 400.689L1104.13 409.226L1109.08 416.759L1114.72 426.301L1118.96 432.327L1120.37 435.843L1123.9 443.376L1127.43 450.406L1130.25 457.939L1133.08 465.472L1134.49 469.49L1140.14 476.521L1142.96 480.036L1143.67 481.041L1145.08 486.063L1147.9 493.596L1140.14 485.56L1127.43 473.508L1117.55 463.464L1101.31 444.882L1087.9 428.812L1074.48 414.248L1066.72 404.706L1056.13 393.658L1046.24 383.112L1037.07 372.565Z" fill="#C481CF"/>
<path d="M999.651 398.178L996.121 394.662L998.239 392.151L1001.06 389.64L1003.89 387.129L1006 384.618L1008.83 382.609L1011.65 380.098L1014.48 377.587L1015.89 380.098L1018.01 383.112L1020.83 388.636L1024.36 394.662L1027.18 398.68L1030.01 403.2L1032.83 407.719L1036.36 415.252L1039.89 422.283L1043.42 429.816L1049.07 440.865L1052.6 448.398L1057.54 458.442L1062.48 470.494L1066.01 480.538L1068.84 489.578L1070.25 495.604L1072.37 502.635L1070.25 499.622L1067.42 495.604L1063.89 490.08L1062.48 488.071L1058.25 480.538L1054.01 475.014L1049.77 468.988L1045.54 462.961L1039.18 453.922L1037.07 451.411L1034.24 447.393L1032.83 445.384L1029.3 439.358L1023.65 430.318L1017.3 420.777L1013.06 414.75L1011.65 412.741L1006.71 406.213L1004.59 403.2L999.651 398.178Z" fill="#C481CF"/>
<path d="M931.878 479.032L929.054 477.525L931.172 475.516L933.996 473.508L936.819 472.001L940.349 468.486L943.173 465.975L946.703 461.957L949.527 459.446L951.645 457.437L953.763 454.926L954.469 456.935L956.587 460.45L960.116 465.472L961.528 467.983L962.94 470.494L966.47 478.027L970 484.054L974.236 491.587L979.178 499.622L984.119 506.151L987.649 510.67L991.179 516.697L994.003 521.217L998.945 527.243L1001.06 530.256L1003.89 533.772L1007.42 537.789L1010.24 540.803L1012.36 543.816L1015.89 547.833L1019.42 553.86L1021.54 558.38L1020.12 557.375L1019.42 556.371L1017.3 555.366L1015.89 553.86L1013.77 552.353L1009.53 549.842L1006.71 547.833L1003.89 545.322L1001.77 543.816L1000.36 542.811L994.709 537.789L989.767 533.27L986.237 530.256L982.001 525.737L978.472 522.221L977.06 520.212L975.648 518.706L973.53 516.195L971.412 514.186L969.294 512.177L966.47 509.666L960.116 504.644L952.351 496.609L947.409 491.085L939.643 484.054L937.525 482.045L934.702 480.538L931.878 479.032Z" fill="#C481CF"/>
<path d="M825.982 670.872L827.394 672.881L831.63 669.868L835.866 666.855L842.22 663.339L847.161 660.828L852.809 658.82L860.575 655.806L866.223 654.3L871.164 653.295L876.812 652.793H881.048L880.342 651.287H879.636L874.694 642.749L872.576 640.238L869.046 636.221L864.811 631.199L860.575 626.679L854.221 619.648L845.749 612.617L837.278 605.084L825.276 595.04L817.511 589.014L807.627 581.983L802.685 578.468L799.156 576.459L794.92 574.45L789.272 571.437L785.742 568.926L786.448 571.939L787.154 575.957L787.86 579.472L788.566 583.992L789.978 587.005L792.096 591.525L794.214 598.053L797.038 605.084L799.156 610.106L801.979 616.635L804.097 622.661L806.215 626.177L809.745 631.701L812.569 636.221L814.687 642.247L816.099 646.265L817.511 650.282L820.335 655.806L822.453 660.326L823.864 663.339L825.276 667.859L825.982 670.872Z" fill="#C481CF"/>
<path d="M789.272 692.467L792.802 699.498L797.038 694.476L804.097 687.947L812.569 682.925L818.923 678.405L827.394 672.881L825.982 670.872L823.864 662.837L817.511 649.78L812.569 636.221L804.097 622.661L799.861 611.613L793.508 596.044L788.566 582.987L785.742 568.926L788.566 570.934L803.391 578.97L813.981 586.503L833.748 602.071L850.691 616.635L863.399 629.692L871.87 639.234L881.048 652.793H884.578L898.697 651.789L915.64 649.78L935.407 646.767L952.351 644.256L974.236 640.238L994.709 633.207L1011.65 626.177L1022.24 622.159L1031.42 617.137L1039.89 614.124H1048.36L1052.6 615.63L1059.66 619.146L1064.6 622.661L1070.25 623.665L1077.31 620.652L1085.07 616.133L1094.25 610.608L1101.31 604.08L1108.37 593.031L1111.19 588.009L1113.31 580.978C1114.02 579.974 1115.43 577.664 1115.43 576.459C1115.43 575.253 1118.25 572.274 1119.66 570.934L1123.19 563.904L1126.72 554.864L1130.96 549.34L1140.14 541.305L1150.02 536.283L1163.43 532.265L1180.38 529.252L1194.5 527.745L1207.91 526.239L1219.21 524.732H1228.38L1240.39 523.225L1250.97 520.714L1262.98 517.701L1275.68 512.679L1285.57 507.155L1292.63 502.635L1298.27 496.609L1303.92 489.076L1310.98 481.041L1317.34 473.508L1326.51 464.468L1334.28 456.935L1344.87 448.9L1350.52 442.873L1359.69 437.851L1368.87 433.834L1385.81 426.803L1390.76 423.79V417.763L1387.93 412.239L1382.29 407.719L1364.64 401.693L1354.05 396.671L1337.81 389.138L1327.22 382.107L1317.34 378.09L1307.45 373.57L1298.27 367.543L1284.16 358.002L1272.15 348.962L1262.27 337.411L1258.03 327.87L1251.68 318.83L1247.45 312.301L1238.97 306.777L1229.8 298.24L1221.32 288.698V281.165L1226.27 276.645L1229.8 273.632L1238.97 272.125L1226.27 263.086L1213.56 254.548L1193.79 240.487L1135.2 196.293V198.804L1144.37 216.883L1152.85 228.434L1162.73 247.015L1176.85 266.601L1186.73 280.161L1197.32 295.729L1217.09 322.848L1232.62 347.455L1246.03 364.028L1262.27 386.627L1253.09 382.107L1243.92 376.081L1232.62 364.028L1215.68 348.962L1201.56 331.887L1181.08 316.319L1162.73 293.218L1146.49 270.619L1128.84 239.482V254.548L1133.08 268.61L1138.02 288.698L1149.32 314.31L1157.08 325.359L1166.26 344.944L1181.08 370.054L1195.2 394.662L1210.03 416.759L1222.74 436.847L1229.09 450.909L1213.56 444.882L1201.56 436.847L1191.67 427.305L1181.08 415.252L1168.38 403.2L1158.49 390.142L1149.32 376.081L1142.96 364.028L1138.02 355.993L1133.08 348.962L1128.84 341.429L1122.49 331.887L1116.84 323.852L1112.61 317.826L1107.66 312.301L1102.72 303.262L1099.19 297.235L1094.96 286.689L1090.01 290.707L1086.48 293.218L1082.25 295.729L1078.01 298.742L1074.48 300.751L1068.84 304.266L1064.6 306.777L1059.66 309.79L1048.36 317.826L1058.95 334.398L1066.01 344.944L1075.89 361.015L1094.25 392.151L1102.02 406.213L1118.96 432.829L1127.43 450.909L1134.49 469.49L1142.96 480.538L1147.9 493.596L1142.96 487.569L1134.49 479.032L1125.31 470.997L1116.84 461.957L1107.66 450.909L1099.19 441.367L1090.01 431.323L1081.54 421.279L1071.66 410.23L1060.36 397.675L1049.77 386.627L1040.6 376.081L1032.83 367.543L1027.18 370.054L1020.12 374.072L1014.48 377.587L1024.36 394.662L1032.83 408.222L1040.6 425.296L1051.19 445.887L1060.36 465.975L1065.31 479.032L1068.84 491.085L1072.37 502.635L1068.84 497.111L1063.89 490.08L1058.25 480.538L1049.77 469.49L1044.13 460.953L1032.83 444.882L1024.36 431.323L1016.59 419.772L1004.59 403.2L996.121 394.662L992.591 400.689L985.531 408.222L979.177 416.759L970.706 429.314L963.646 441.367L953.762 454.926L955.174 458.442L961.528 468.486L965.058 476.019L969.294 483.552L977.765 498.115L987.649 511.675L996.121 523.728L1001.77 531.763L1009.53 540.3L1017.3 550.344L1021.54 558.379L1020.12 557.375L1015.18 553.357L1008.83 549.34L1003.89 545.322L997.532 540.3L990.473 533.772L985.531 529.252L979.177 522.723L973.53 516.195L967.176 510.168L959.41 503.64L951.645 495.604L945.291 489.076L937.525 482.045L929.054 477.525L917.758 485.058L907.875 491.085L891.637 499.12L876.106 505.146L859.869 510.168L844.337 514.688L825.982 519.71L812.569 522.723L794.92 526.239L780.8 529.252L761.033 533.269L746.208 535.78L730.677 538.794L715.851 542.309L703.144 545.322L687.613 547.833L689.024 549.842L692.554 554.864L696.084 559.886L701.732 567.419L706.674 574.45L713.027 582.987L723.617 598.053L739.148 619.146L749.032 632.705L759.621 647.771L769.505 662.837L777.27 674.89L785.036 685.938L789.272 692.467Z" fill="#DFA6F3"/>
<path d="M659.374 575.454L657.256 592.529L667.846 597.049L676.317 601.569L684.789 607.093L697.496 615.128L706.674 622.159L721.499 634.212L729.971 642.247L739.149 651.286L745.502 657.815L752.562 665.85L759.622 674.388L768.799 684.934L777.977 699.498H792.802L789.272 692.467L781.507 680.916L770.211 663.841L758.916 646.767L743.384 624.67L731.383 608.097L710.204 579.472L687.613 547.833L659.374 555.366V556.873V560.388V567.921V575.454Z" fill="#C481CF"/>
<path d="M1479.71 331.385L1462.77 345.949L1482.53 343.438L1498.77 338.416L1519.95 331.385L1548.19 320.839L1590.55 301.253L1620.9 284.68L1654.79 268.108L1677.38 257.562L1703.5 241.491L1716.91 232.954L1736.68 222.408L1728.92 232.954L1722.56 239.985L1714.09 248.02L1705.62 254.548L1697.85 263.086L1692.2 270.619L1687.26 278.152L1682.32 284.68L1677.38 291.711L1668.2 299.746L1652.67 312.301L1639.26 326.363L1652.67 317.826L1663.26 310.293L1687.26 298.24L1699.26 287.694L1719.03 275.641L1727.5 269.112L1751.51 255.553L1762.8 249.024L1773.39 242.496L1787.51 234.963L1794.57 230.443L1797.39 225.421V220.399L1799.51 212.364L1803.75 206.337L1811.51 198.302L1817.16 194.284L1823.52 190.267L1830.57 186.751L1837.63 181.729L1846.81 176.205L1854.58 171.183L1860.23 166.663L1865.17 163.148L1867.99 157.624L1870.11 150.593L1872.23 139.042L1874.34 128.496L1876.46 102.382V68.7343L1870.11 78.2761L1864.46 92.8399L1854.58 102.382L1836.93 116.443L1819.28 131.509L1794.57 150.593L1771.27 169.174L1750.09 181.729L1719.03 200.813L1696.44 216.381L1668.2 234.963L1639.26 252.54L1613.14 267.103L1572.9 286.187L1539.72 301.253L1517.83 311.799L1495.95 322.345L1479.71 331.385Z" fill="white"/>
<path d="M1587.02 445.384L1612.43 431.323L1623.73 435.843L1633.61 438.856L1642.79 440.362L1656.2 441.367L1642.79 449.402L1623.73 461.455L1606.08 472.001L1577.84 487.569L1550.31 503.138L1519.95 515.693L1494.53 523.226L1500.89 517.199L1517.13 499.622L1531.95 485.058L1550.31 469.992L1568.66 457.437L1587.02 445.384Z" fill="white"/>
<path d="M448.995 587.507L413.697 616.635L454.643 595.542L488.53 576.459L526.652 554.864L557.714 537.789L588.071 521.217L609.956 511.173L641.725 497.111L686.906 478.53L717.263 465.975L761.739 447.895L787.154 436.345L810.451 426.301L834.454 414.75L862.693 402.195L883.166 390.645L919.17 372.063L944.585 359.508L989.767 333.896L974.235 350.469L962.234 364.028L946.703 381.103L926.936 402.195L909.992 418.266L925.524 409.226L954.468 389.138L976.353 376.583L994.003 365.032L1015.89 351.975L1023.65 347.455L1029.3 344.442L1034.95 341.931L1037.77 338.918V336.407V331.887L1039.18 326.865L1042.01 322.848L1046.24 319.332L1055.42 312.804L1066.01 305.773L1079.42 297.738L1092.13 289.2L1104.13 278.152L1106.96 270.117V254.548L1105.55 217.385L1087.19 232.954L1063.19 254.548L1030.71 278.152L1005.3 297.738L970.706 320.839L936.113 341.931L908.58 358.002L862.693 381.103L810.451 407.217L758.209 427.807L721.499 438.354L680.553 449.402L646.666 462.961L614.898 474.512L593.719 487.569L563.362 508.159L491.353 556.873L448.995 587.507Z" fill="white"/>
<path d="M1610.31 421.781L1594.08 426.803L1611.73 432.829L1625.84 437.349L1647.73 441.367L1667.5 443.878H1685.85L1702.09 441.367L1714.09 435.843L1702.09 422.785L1685.85 408.222L1674.56 399.182L1665.38 392.151L1656.91 399.182L1646.32 405.711L1627.26 414.75L1610.31 421.781Z" fill="#DFA6F3"/>
<path d="M1299.91 309.407L1326 302.387V316.428L1299.91 309.407Z" fill="#EE3030"/>
<path d="M1385.92 273.803L1411.29 266.281V280.322L1385.92 273.803Z" fill="#EE3030"/>
<path d="M1466.98 236.694L1489.54 229.673V243.715L1466.98 236.694Z" fill="#EE3030"/>
<path d="M1539.59 200.588L1565.68 194.069V208.11H1564.97L1539.59 200.588Z" fill="#EE3030"/>
<path d="M1613.61 164.482L1636.17 157.963V171.001L1613.61 164.482Z" fill="#EE3030"/>
<path d="M1670.71 130.884L1692.57 124.365V135.898L1670.71 130.884Z" fill="#EE3030"/>
<path d="M1724.29 94.7779L1744.73 88.2588V99.7926L1724.29 94.7779Z" fill="#EE3030"/>
<path d="M1769.4 60.6779L1789.85 54.6603V65.1912L1769.4 60.6779Z" fill="#EE3030"/>
<path d="M1810.29 31.0912L1830.73 25.0735V35.6044L1810.29 31.0912Z" fill="#EE3030"/>
<path d="M1849.06 6.01766L1868.1 1.50443V11.0324L1849.06 6.01766Z" fill="#EE3030"/>
<path d="M470.196 406.692L496.279 398.669V413.713L470.196 406.692Z" fill="#EE3030"/>
<path d="M734.549 335.985L762.747 328.463V344.009L734.549 335.985Z" fill="#EE3030"/>
<path d="M918.539 236.193L945.327 228.67V243.715L918.539 236.193Z" fill="#EE3030"/>
<path d="M1076.45 149.438L1097.59 142.919V154.954L1076.45 149.438Z" fill="#EE3030"/>
<path d="M193.859 496.957L221.352 489.435V505.482L193.859 496.957Z" fill="#EE3030"/>
<path d="M574.658 686.44L559.833 700H777.977L776.565 696.987L768.799 684.934L759.621 674.388L747.62 660.326L738.442 650.282L728.559 640.74L715.145 628.687L695.378 613.621L674.905 600.564L657.256 592.529L653.02 603.577L648.784 613.621L639.607 626.176L628.311 638.731L608.544 656.811L592.307 670.37L574.658 686.44Z" fill="#DFA6F3"/>
<path d="M1577.84 691.965L1562.31 700L1620.9 699.498L1626.55 696.987L1635.02 693.974L1649.14 689.454L1661.85 684.432L1678.09 678.908L1689.38 673.886L1704.21 668.864L1722.56 662.335L1734.56 657.815L1750.09 652.793L1767.74 646.767L1795.28 638.731L1820.69 630.194L1846.81 622.661L1862.34 618.643L1879.99 613.621L1894.11 610.608L1903.29 608.097L1914.59 605.586L1925.88 600.564L1940 594.538V556.371H1936.47L1925.88 559.886L1912.47 564.406L1895.52 572.441L1879.99 578.467L1865.17 584.996L1852.46 592.027L1814.34 609.604L1795.28 618.141L1770.57 628.687L1755.04 634.714L1738.8 641.745L1713.38 651.286L1697.85 656.309L1677.38 663.339L1649.14 671.877L1630.79 676.397L1611.02 681.419L1594.08 685.938L1577.84 691.965Z" fill="white"/>
<path d="M1400.64 676.899L1388.64 685.938L1371.62 699.498H1400.64L1404.17 695.982L1419 685.938L1435.94 674.388L1459.24 660.326L1489.59 643.753L1514.3 630.194L1542.54 617.137L1572.9 604.08L1601.84 592.529L1648.44 572.943L1678.09 560.89L1719.74 547.331L1767.04 528.247L1792.45 515.692L1817.16 502.133L1842.58 485.56L1864.46 472.001L1887.76 456.433L1913.88 439.86L1940 423.79V386.125L1935.06 391.649L1925.17 398.68L1909.64 406.213L1895.52 413.746L1877.87 423.79L1863.05 435.34L1852.46 445.384L1817.16 470.494L1788.92 487.067L1723.27 518.706L1675.97 537.789L1614.55 562.899L1572.9 581.481L1591.96 566.415L1608.2 551.851L1633.61 530.256L1663.26 505.146L1690.09 484.556L1680.2 489.076L1664.67 495.604L1642.79 506.653L1617.37 519.71L1581.37 541.305L1553.13 559.384L1511.48 589.516L1486.06 609.604L1447.23 639.736L1423.23 659.322L1400.64 676.899Z" fill="white"/>
<path d="M1212.15 692.969L1208.62 700H1248.86L1253.09 689.454L1260.15 679.41L1269.33 670.872L1281.33 661.331L1294.04 652.291L1302.51 646.767L1313.1 640.74L1324.4 632.203L1339.22 621.657L1348.4 612.617L1361.11 597.049L1355.46 601.569L1348.4 607.093L1341.34 612.617L1332.87 618.644L1319.45 625.674L1303.92 632.203L1288.39 638.229L1274.27 643.754L1259.45 649.78L1247.45 656.309L1234.03 664.846L1226.27 670.872L1219.21 678.908L1215.68 685.436L1212.15 692.969Z" fill="white"/>
<path d="M38.8282 692.969L33.1805 699.498H132.016L134.134 698.493L163.079 682.925L180.728 673.383L209.672 659.322L235.793 645.26L252.737 635.718L244.265 639.234L234.381 643.251L213.202 650.282L187.787 659.322L153.195 671.877L92.4818 694.978L80.4803 698.996L76.9505 698.493L85.4221 694.978L94.5997 689.454L101.659 682.925L110.131 674.89L117.191 667.357L122.838 661.833L127.074 656.811L139.076 650.282L154.607 642.247L168.02 635.216L180.022 630.194L196.259 622.661L209.672 617.137L218.85 613.119L228.734 608.6L245.677 601.569L258.384 596.547L277.445 588.512L294.389 581.481L307.096 575.957L324.039 568.926L338.159 562.397L358.632 554.362L381.223 543.816L392.518 537.789L429.934 519.208L450.408 508.662L479.352 491.587L477.234 492.591L472.293 493.596L462.409 497.111L450.408 502.133L435.582 507.657L416.521 515.19L398.166 522.221L370.633 534.274L350.866 543.314L321.215 556.873L295.801 568.926L282.387 575.454L271.092 580.476L261.208 586.001L250.619 590.52L241.441 596.045L233.675 599.56L227.322 603.075L219.556 607.093L211.79 610.608L202.613 614.626L192.729 617.137L184.258 620.15L175.786 622.661L165.902 625.172L156.019 627.181L146.841 628.688L137.664 631.199L129.898 633.207L121.426 635.216L112.249 637.727L101.659 640.74L93.8937 643.251L86.834 646.767L79.0684 651.789L72.7147 656.309L66.361 660.828L61.4192 665.348L57.1834 670.37L54.3595 673.886L50.8297 678.405L45.8879 684.432L41.6521 689.956L38.8282 692.969Z" fill="white"/>
<path d="M100.807 641.38C143.058 625.993 169.59 600.518 221.352 528.55M221.352 528.55C340.436 519.783 400.056 498.727 496.279 438.285M221.352 528.55V488.432M496.279 438.285C633.154 440.105 688.23 421.694 762.747 367.578M496.279 438.285V397.164M762.747 367.578C870.883 344.485 909.649 321.765 945.327 266.281M762.747 367.578V326.959M945.327 266.281C1021.32 241.829 1055.01 221.556 1097.59 172.506M945.327 266.281V227.166M1097.59 172.506L1326 337.489M1097.59 172.506V141.415M1326 337.489L1411.29 301.885M1326 337.489V300.882M1411.29 301.885L1489.54 266.281M1411.29 301.885V264.776M1489.54 266.281L1565.68 229.172M1489.54 266.281V228.169M1565.68 229.172L1636.17 189.556M1565.68 229.172V192.565M1636.17 189.556L1692.57 153.45M1636.17 189.556V156.459M1692.57 153.45L1744.73 116.341M1692.57 153.45V123.362M1744.73 116.341L1789.85 84.247M1744.73 116.341V87.2558M1789.85 84.247L1830.73 54.1588M1789.85 84.247V53.6573M1830.73 54.1588L1868.1 25.0735V0M1830.73 54.1588V24.0706" stroke="black" stroke-width="2"/>
<path d="M54.9853 646.395H71.9039L80.3632 630.348L88.1176 646.395H104.331V640.378H99.3966L81.0681 620.82L79.6583 617.31L78.9533 620.82L60.6248 640.378H54.9853V646.395Z" fill="#EE3030"/>
<defs>
<linearGradient id="paint0_linear_2_3" x1="1241.09" y1="78.276" x2="1189.31" y2="703.628" gradientUnits="userSpaceOnUse">
<stop stop-color="#FEF8F8"/>
<stop offset="1" stop-color="#A663AC"/>
</linearGradient>
</defs>
</svg>
