<svg width="1650" height="700" viewBox="0 0 1650 700" fill="none" xmlns="http://www.w3.org/2000/svg">
<path d="M0 698.996L36.6266 657.815L53.4389 641.242L73.8537 624.168L83.4607 618.141C83.6608 617.806 84.7817 616.534 87.6638 614.124C91.2664 611.11 93.0677 610.106 96.0699 608.097C99.0721 606.089 99.6725 606.089 102.074 603.578C103.996 601.569 107.678 598.053 109.279 596.547L121.458 586.963C122.259 585.791 127.465 581.305 128.906 579.296C138.513 572.064 138.187 569.637 140.789 568.633C143.049 566.372 144.802 565.832 147.107 563.904C154.793 555.868 160.317 550.846 162.118 549.34C169.924 544.318 170.524 542.309 172.926 539.798C174.847 537.789 177.329 535.613 178.33 534.776C178.53 534.609 179.29 533.772 180.731 531.763C182.172 529.754 190.539 519.877 194.541 515.19L210.753 498.618L225.764 483.049L241.976 469.49L257.587 457.437L264.793 452.415L278.002 447.895L287.609 445.887H292.413H305.022L317.031 446.891L326.638 447.895L334.443 448.398L345.852 449.402H358.461L364.465 448.398L373.472 446.891L382.478 445.887L392.085 443.878L401.692 441.367L413.701 437.851L420.306 435.34L439.52 428.812L461.736 420.777L471.343 417.261L479.148 414.75L488.755 412.239L498.963 410.23L511.572 407.719L521.179 406.213L528.384 405.711L540.993 403.2L550 401.191L558.406 398.68L572.817 394.662L582.424 391.147L590.229 388.134L605.841 382.107L612.445 378.592L618.45 375.579L623.253 372.565L631.659 368.046L637.664 365.032L641.867 362.521L644.269 360.513L649.072 358.002L652.675 355.491L662.882 348.962L673.09 342.433L680.895 336.909L691.703 329.376L696.507 325.861L701.31 323.35L706.114 320.839L711.517 318.328L718.122 313.808L725.928 308.786L732.533 303.764L739.138 300.249L747.544 294.724L754.148 290.707L764.356 284.178L772.162 279.658L781.769 274.636L788.373 270.619L794.378 267.606L798.581 264.592L809.989 257.562L818.395 252.54L830.404 244.504L837.609 239.985L846.015 234.963L852.02 230.443L859.825 225.421L866.43 220.399L871.834 216.883L883.242 209.35L892.249 201.817L903.057 194.284L912.063 186.751L918.068 180.725L925.273 175.703L930.076 171.685L933.079 169.174L933.679 168.17L937.882 171.685L943.286 177.209L956.496 188.258L962.5 193.782L985.317 213.87L1003.93 230.443L1023.14 245.509L1045.36 263.086L1053.77 269.614L1068.78 282.672L1078.98 291.711L1087.39 298.742L1090.39 301.253L1091.59 303.262L1094 304.266L1097.6 305.773L1100.6 306.275H1105.4L1112.61 304.266L1124.02 301.755L1131.82 300.249L1139.03 298.24L1153.44 294.724L1160.04 292.716L1165.45 290.707L1170.85 289.2L1177.46 286.187L1190.67 281.667L1196.67 278.152L1204.48 274.134L1209.88 271.623L1227.89 262.584L1248.31 250.531L1260.92 241.993L1280.73 228.434L1293.34 219.896L1313.16 205.835L1322.16 200.311L1329.97 195.791L1337.17 191.271L1345.58 186.249L1352.18 182.734L1362.39 176.707L1369 172.187L1375 167.668L1381.6 164.152L1390.01 159.13L1401.42 152.602L1409.83 147.58L1418.23 141.553L1425.44 137.033L1432.64 132.514L1441.05 127.994L1451.86 120.963L1460.86 116.443L1470.47 109.915L1476.47 105.897L1484.28 100.875L1494.49 93.8442L1503.49 88.8222L1509.5 84.3024L1516.7 78.7782L1524.51 73.7562L1531.71 67.7298L1545.52 57.6858L1552.13 53.166L1559.33 46.6374L1570.74 38.1L1579.15 30.567L1585.15 25.545L1588.16 23.034L1589.36 21.5274L1596.56 29.5626L1603.77 36.5934L1613.97 44.6286L1618.18 48.6462L1625.38 54.6726L1630.19 59.1924L1636.79 64.2144L1639.79 67.7298L1644 70.743L1647.6 73.7562L1650 75.765V699.788H0V698.996Z" fill="url(#paint0_linear_2_3)"/>
<path d="M1610.97 43.122L1604.97 37.5978L1616.98 45.633L1630.79 58.188L1642.19 68.232L1648.8 74.2584V90.831V100.373L1645.8 97.3596L1642.19 91.3332L1638.59 85.809L1634.99 79.2804L1632.59 74.2584L1625.98 64.2144L1621.78 56.6814L1619.38 51.6594L1616.98 49.1484L1610.97 43.122Z" fill="#DFA6F3"/>
<path d="M1645.8 203.826L1648.8 209.853V172.69L1645.2 167.668L1639.19 159.633L1633.79 153.104L1628.99 146.575L1625.98 142.056L1619.38 131.007L1615.18 125.483L1618.18 136.029L1621.18 146.575L1622.98 154.108L1627.78 166.161L1630.19 172.69L1636.19 185.245L1642.19 196.795L1645.8 203.826Z" fill="#DFA6F3"/>
<path d="M1586.35 163.148L1583.95 165.157L1586.35 172.69L1594.76 187.756L1602.57 200.813L1612.17 214.372L1618.18 225.923L1627.78 246.513L1644.6 275.139L1648.8 281.667V209.853L1640.99 194.284L1630.79 172.69L1624.18 154.108L1615.17 125.483L1619.38 131.509L1628.38 146.073L1638.59 159.13L1648.8 172.69V100.373L1642.79 91.8355L1633.19 74.7607L1625.98 62.7079L1619.38 51.1573L1609.77 42.1177L1595.96 29.0605V67.7299V79.2805V112.426L1592.36 139.042L1591.16 146.073L1589.96 152.602L1588.16 159.13L1586.35 163.148Z" fill="#C481CF"/>
<path d="M1538.32 200.813L1537.12 202.822L1547.33 221.905L1559.93 247.518L1574.35 273.632L1585.75 295.729L1595.96 315.817L1607.97 343.438L1619.98 365.535L1625.98 363.024L1637.99 358.002L1648.8 351.975V281.667L1638.59 263.588L1626.58 241.993L1621.78 231.447L1613.37 214.875L1601.97 198.804L1592.96 183.738L1587.55 172.69L1583.95 165.157L1581.55 167.165L1578.55 170.179L1573.14 174.196L1568.34 177.712L1563.54 181.729L1558.13 185.747L1555.13 187.756L1550.33 190.267L1545.52 194.284L1542.52 196.795L1540.12 198.804L1538.32 200.813Z" fill="#DFA6F3"/>
<path d="M1521.51 253.042L1520.91 254.046L1526.91 263.086L1538.32 281.667L1550.93 296.231L1571.94 323.35L1583.95 339.42L1607.37 369.05L1619.98 365.535L1618.18 362.521L1610.97 347.455L1602.57 328.874L1595.96 313.306L1578.55 279.658L1567.74 259.57L1558.13 240.487L1545.52 215.377L1537.12 202.32L1534.72 204.831L1532.31 208.346L1530.51 211.861L1529.31 215.377L1528.71 220.399V224.919L1530.51 229.941L1531.71 235.967L1532.91 243.5V246.513L1532.31 249.526L1530.51 250.531H1529.31L1526.91 250.029L1524.51 250.531L1522.71 252.037L1521.51 253.042Z" fill="#C481CF"/>
<path d="M1505.29 271.121L1503.49 274.134L1514.9 300.249L1522.71 314.31L1530.51 332.892L1539.52 357.499L1547.93 376.583L1549.73 382.609L1550.93 384.116L1559.33 382.107L1574.95 378.09L1589.96 374.574L1607.37 369.05L1597.16 355.491L1586.35 340.927L1574.95 325.861L1563.54 311.297L1552.73 297.738L1539.52 281.667L1530.51 268.108L1520.91 254.046L1519.71 258.566L1516.1 262.584L1511.9 265.095L1508.3 268.108L1505.29 271.121Z" fill="#DFA6F3"/>
<path d="M1492.08 284.68L1486.08 291.209L1495.09 308.284L1515.5 342.936L1531.11 366.037L1534.72 373.068L1538.32 379.596L1541.92 386.125L1550.93 384.116L1550.33 383.112L1547.93 375.076L1541.92 359.006L1537.12 348.46L1531.11 334.398L1525.71 319.834L1521.51 309.288L1515.5 297.738L1508.3 283.174L1503.49 274.134L1497.49 280.161L1492.08 284.68Z" fill="#C481CF"/>
<path d="M1442.25 364.028L1436.84 370.557L1449.45 387.129L1455.46 396.169L1467.47 418.768L1472.87 427.807L1487.28 418.768L1496.29 411.737L1507.1 403.702L1511.9 398.178L1516.7 393.658L1522.11 390.645L1529.31 388.134L1535.32 387.129L1541.92 386.125L1535.32 371.561L1527.51 360.01L1519.7 348.46L1511.9 334.9L1507.1 325.861L1501.09 316.821L1492.69 303.262L1486.08 291.209L1484.28 293.218L1478.88 302.257L1474.67 308.786L1470.47 315.315L1466.87 323.852L1462.06 331.385L1455.46 342.936L1448.25 355.993L1442.25 364.028Z" fill="#DFA6F3"/>
<path d="M1424.24 384.116L1416.43 392.151L1426.04 400.689L1446.45 422.283L1457.86 435.843L1472.87 427.807L1467.47 417.763L1462.06 406.715L1452.46 389.64L1446.45 381.103L1436.84 370.557L1434.44 373.068L1429.04 379.094L1424.24 384.116Z" fill="#C481CF"/>
<path d="M1012.34 237.976L1008.13 233.958L1020.74 242.998L1030.95 250.531L1041.76 259.57L1051.36 267.103L1063.37 278.152L1068.78 283.676L1075.38 289.702L1083.19 296.733L1089.79 302.257L1092.79 306.275L1097.6 311.799L1103.6 319.332L1112.01 325.861L1122.22 333.394L1133.62 339.922L1145.63 344.944L1152.84 348.962L1160.04 351.975L1170.85 354.988H1185.86H1193.67L1200.87 353.984L1208.08 352.98H1216.48H1223.69L1230.89 356.495L1241.1 359.508L1250.71 365.032L1262.72 371.561L1274.13 378.592L1281.93 385.12L1290.94 391.147L1295.74 394.662L1301.75 398.178L1308.35 403.702L1307.75 406.213L1307.15 407.217L1299.95 408.222H1286.74L1274.13 411.737L1265.12 413.746L1252.51 416.257L1241.1 417.763L1232.1 418.768H1223.09L1213.48 419.772L1203.27 421.279L1196.07 422.283L1191.27 422.785L1185.86 423.79L1183.46 424.292H1182.26V423.79V421.279V418.768L1181.66 416.257L1180.46 413.746L1179.26 411.737L1177.46 410.23L1175.65 408.222L1173.25 407.217L1161.84 402.697L1157.04 400.186L1149.84 396.671L1142.03 392.151L1136.63 389.138L1128.82 383.112L1124.62 380.601L1116.81 377.085L1109.01 371.561L1098.8 364.028L1092.79 359.006L1087.39 353.984L1081.99 349.464L1078.98 345.447L1077.18 342.936L1075.98 340.927L1072.98 337.411L1072.38 334.398L1071.18 331.887L1070.58 329.878L1069.98 327.87L1068.18 325.359L1065.77 321.843L1063.37 317.323L1062.17 315.315L1060.97 312.804L1059.77 311.799L1054.97 308.284L1050.16 303.262L1045.36 298.24L1041.76 293.218L1039.36 290.205L1038.76 288.698L1038.15 287.191L1038.76 285.183V282.672V281.165L1039.36 280.663L1039.96 279.156L1042.36 277.147L1044.16 275.139L1045.36 274.134L1046.56 273.632L1048.96 273.13L1053.17 272.125L1038.15 259.57L1012.34 237.976Z" fill="#C481CF"/>
<path d="M940.284 183.236V174.196L965.502 196.293L966.103 199.306L969.705 207.342L973.908 217.888L981.114 228.434L988.919 247.015L995.524 256.557L1012.34 283.676L1019.54 296.733L1021.94 301.755L1025.55 307.279L1028.55 311.799L1031.55 316.319L1034.55 321.341L1038.76 329.376L1042.36 335.905L1044.76 340.425L1048.36 346.953L1051.97 351.975L1055.57 357.499L1062.77 368.548L1066.38 374.574L1070.58 381.605L1073.58 386.627L1068.18 383.614L1064.57 381.605L1062.77 380.098L1060.37 378.592L1057.97 376.081L1056.17 374.072L1053.17 370.557L1050.76 367.041L1047.76 363.526L1044.76 360.513L1038.16 353.482L1032.75 347.958L1029.75 343.438L1023.74 334.398L1021.94 331.887L1017.74 328.372L1011.74 322.848L1008.13 319.834L1006.33 317.826L1004.53 316.319L1003.33 314.812L997.325 306.275L991.321 296.733L983.515 285.183L978.712 277.147L975.109 271.121L972.107 265.095L969.105 258.566L966.703 253.544L964.902 249.526L963.1 246.011L960.098 239.482V243.5V251.535V254.548L960.699 256.557L961.9 261.077L963.701 267.103L964.902 272.628L965.502 277.147L966.703 281.165L967.904 288.698L970.306 294.724L973.908 304.768L977.511 314.31L981.714 320.839L984.716 325.359L985.317 327.87L988.319 335.403L990.721 340.425L991.921 344.944L993.723 348.46L996.725 353.984L1002.13 364.53L1006.93 374.574L1010.53 382.107L1014.74 390.142L1017.74 396.169L1027.35 413.244L1032.75 422.785L1039.96 436.345L1042.36 441.869L1045.36 450.909L1040.56 448.9L1035.75 446.891L1032.75 445.384L1030.95 444.38L1029.15 442.873L1026.15 440.362L1022.54 437.851L1020.14 435.843L1016.54 431.323L1012.94 426.803L1008.13 420.274L1005.73 417.261L1002.73 413.244L997.325 407.217L993.122 402.697L991.321 399.684L985.317 390.645L982.915 386.627L976.31 373.57L971.507 363.526L969.705 360.01L963.1 348.46L960.699 343.438L954.094 330.883L948.69 322.848L946.288 318.328L943.887 314.812L941.485 311.297L937.282 302.76L933.679 294.724L932.478 290.707L931.277 286.689L933.679 284.178L935.48 281.667L937.882 279.156L939.083 277.147L939.683 274.636L940.284 270.117V265.597V258.566V239.482V211.861V183.236Z" fill="#C481CF"/>
<path d="M882.041 372.565L878.439 367.543L883.242 365.535L886.245 364.53L888.646 363.024V360.513L888.046 358.504L886.845 354.988L885.044 348.46L883.843 344.944L883.242 340.425L882.642 336.407V331.887L883.242 329.878L883.843 327.367L885.644 324.354L888.046 321.341L891.648 317.826L901.255 333.896L913.865 357.499L925.273 381.103L934.88 400.689L939.083 409.226L943.286 416.759L948.09 426.301L951.692 432.327L952.893 435.843L955.895 443.376L958.897 450.406L961.299 457.939L963.701 465.472L964.902 469.49L969.705 476.521L972.107 480.036L972.707 481.041L973.908 486.063L976.31 493.596L969.705 485.56L958.897 473.508L950.491 463.464L936.681 444.882L925.273 428.812L913.865 414.248L907.26 404.706L898.253 393.658L889.847 383.112L882.041 372.565Z" fill="#C481CF"/>
<path d="M850.218 398.178L847.216 394.662L849.017 392.151L851.419 389.64L853.821 387.129L855.622 384.618L858.024 382.609L860.426 380.098L862.827 377.587L864.028 380.098L865.83 383.112L868.231 388.636L871.234 394.662L873.635 398.68L876.037 403.2L878.439 407.719L881.441 415.252L884.443 422.283L887.445 429.816L892.249 440.865L895.251 448.398L899.454 458.442L903.657 470.494L906.659 480.538L909.061 489.578L910.262 495.604L912.063 502.635L910.262 499.622L907.86 495.604L904.858 490.08L903.657 488.071L900.054 480.538L896.452 475.014L892.849 468.988L889.247 462.961L883.843 453.922L882.041 451.411L879.64 447.393L878.439 445.384L875.437 439.358L870.633 430.318L865.229 420.777L861.627 414.75L860.426 412.741L856.223 406.213L854.421 403.2L850.218 398.178Z" fill="#C481CF"/>
<path d="M792.576 479.032L790.175 477.525L791.976 475.516L794.378 473.508L796.779 472.001L799.782 468.486L802.183 465.975L805.185 461.957L807.587 459.446L809.389 457.437L811.19 454.926L811.79 456.935L813.592 460.45L816.594 465.472L817.795 467.983L818.996 470.494L821.998 478.027L825 484.054L828.603 491.587L832.806 499.622L837.009 506.151L840.011 510.67L843.013 516.697L845.415 521.217L849.618 527.243L851.419 530.256L853.821 533.772L856.823 537.789L859.225 540.803L861.026 543.816L864.028 547.833L867.03 553.86L868.832 558.38L867.631 557.375L867.03 556.371L865.229 555.366L864.028 553.86L862.227 552.353L858.624 549.842L856.223 547.833L853.821 545.322L852.02 543.816L850.819 542.811L846.015 537.789L841.812 533.27L838.81 530.256L835.207 525.737L832.205 522.221L831.004 520.212L829.803 518.706L828.002 516.195L826.201 514.186L824.399 512.177L821.998 509.666L816.594 504.644L809.989 496.609L805.786 491.085L799.181 484.054L797.38 482.045L794.978 480.538L792.576 479.032Z" fill="#C481CF"/>
<path d="M702.511 670.872L703.712 672.881L707.314 669.868L710.917 666.855L716.321 663.339L720.524 660.828L725.327 658.82L731.932 655.806L736.736 654.3L740.939 653.295L745.742 652.793H749.345L748.744 651.287H748.144L743.941 642.749L742.14 640.238L739.137 636.221L735.535 631.199L731.932 626.679L726.528 619.648L719.323 612.617L712.118 605.084L701.91 595.04L695.306 589.014L686.899 581.983L682.696 578.468L679.694 576.459L676.092 574.45L671.288 571.437L668.286 568.926L668.886 571.939L669.487 575.957L670.087 579.472L670.688 583.992L671.889 587.005L673.69 591.525L675.491 598.053L677.893 605.084L679.694 610.106L682.096 616.635L683.897 622.661L685.699 626.177L688.701 631.701L691.102 636.221L692.904 642.247L694.105 646.265L695.306 650.282L697.707 655.806L699.509 660.326L700.709 663.339L701.91 667.859L702.511 670.872Z" fill="#C481CF"/>
<path d="M671.288 692.467L674.29 699.498L677.893 694.476L683.897 687.947L691.102 682.925L696.506 678.405L703.712 672.881L702.511 670.872L700.709 662.837L695.306 649.78L691.102 636.221L683.897 622.661L680.295 611.613L674.891 596.044L670.688 582.987L668.286 568.926L670.688 570.934L683.297 578.97L692.303 586.503L709.116 602.071L723.526 616.635L734.334 629.692L741.539 639.234L749.345 652.793H752.347L764.356 651.789L778.766 649.78L795.578 646.767L809.989 644.256L828.602 640.238L846.015 633.207L860.426 626.177L869.432 622.159L877.238 617.137L884.443 614.124H891.648L895.251 615.63L901.255 619.146L905.458 622.661L910.262 623.665L916.266 620.652L922.871 616.133L930.677 610.608L936.681 604.08L942.685 593.031L945.087 588.009L946.889 580.978C947.489 579.974 948.69 577.664 948.69 576.459C948.69 575.253 951.092 572.274 952.292 570.934L955.295 563.904L958.297 554.864L961.899 549.34L969.705 541.305L978.111 536.283L989.52 532.265L1003.93 529.252L1015.94 527.745L1027.35 526.239L1036.95 524.732H1044.76L1054.97 523.225L1063.97 520.714L1074.18 517.701L1084.99 512.679L1093.4 507.155L1099.4 502.635L1104.2 496.609L1109.01 489.076L1115.01 481.041L1120.41 473.508L1128.22 464.468L1134.83 456.935L1143.83 448.9L1148.64 442.873L1156.44 437.851L1164.25 433.834L1178.66 426.803L1182.86 423.79V417.763L1180.46 412.239L1175.65 407.719L1160.64 401.693L1151.64 396.671L1137.83 389.138L1128.82 382.107L1120.41 378.09L1112.01 373.57L1104.2 367.543L1092.19 358.002L1081.99 348.962L1073.58 337.411L1069.98 327.87L1064.57 318.83L1060.97 312.301L1053.77 306.777L1045.96 298.24L1038.76 288.698V281.165L1042.96 276.645L1045.96 273.632L1053.77 272.125L1042.96 263.086L1032.15 254.548L1015.34 240.487L965.502 196.293V198.804L973.308 216.883L980.513 228.434L988.919 247.015L1000.93 266.601L1009.33 280.161L1018.34 295.729L1035.15 322.848L1048.36 347.455L1059.77 364.028L1073.58 386.627L1065.77 382.107L1057.97 376.081L1048.36 364.028L1033.95 348.962L1021.94 331.887L1004.53 316.319L988.919 293.218L975.109 270.619L960.098 239.482V254.548L963.701 268.61L967.904 288.698L977.511 314.31L984.116 325.359L991.921 344.944L1004.53 370.054L1016.54 394.662L1029.15 416.759L1039.96 436.847L1045.36 450.909L1032.15 444.882L1021.94 436.847L1013.54 427.305L1004.53 415.252L993.723 403.2L985.316 390.142L977.511 376.081L972.107 364.028L967.904 355.993L963.701 348.962L960.098 341.429L954.694 331.887L949.891 323.852L946.288 317.826L942.085 312.301L937.882 303.262L934.88 297.235L931.277 286.689L927.074 290.707L924.072 293.218L920.469 295.729L916.867 298.742L913.865 300.751L909.061 304.266L905.458 306.777L901.255 309.79L891.648 317.826L900.655 334.398L906.659 344.944L915.065 361.015L930.677 392.151L937.282 406.213L951.692 432.829L958.897 450.909L964.902 469.49L972.107 480.538L976.31 493.596L972.107 487.569L964.902 479.032L957.096 470.997L949.891 461.957L942.085 450.909L934.88 441.367L927.074 431.323L919.869 421.279L911.463 410.23L901.856 397.675L892.849 386.627L885.044 376.081L878.439 367.543L873.635 370.054L867.631 374.072L862.827 377.587L871.233 394.662L878.439 408.222L885.044 425.296L894.05 445.887L901.856 465.975L906.059 479.032L909.061 491.085L912.063 502.635L909.061 497.111L904.858 490.08L900.054 480.538L892.849 469.49L888.046 460.953L878.439 444.882L871.233 431.323L864.629 419.772L854.421 403.2L847.216 394.662L844.214 400.689L838.209 408.222L832.806 416.759L825.6 429.314L819.596 441.367L811.19 454.926L812.391 458.442L817.795 468.486L820.797 476.019L824.399 483.552L831.605 498.115L840.011 511.675L847.216 523.728L852.02 531.763L858.624 540.3L865.229 550.344L868.832 558.379L867.631 557.375L863.428 553.357L858.024 549.34L853.821 545.322L848.417 540.3L842.413 533.772L838.209 529.252L832.806 522.723L828.002 516.195L822.598 510.168L815.993 503.64L809.389 495.604L803.985 489.076L797.38 482.045L790.175 477.525L780.568 485.058L772.161 491.085L758.351 499.12L745.142 505.146L731.332 510.168L718.122 514.688L702.511 519.71L691.102 522.723L676.092 526.239L664.083 529.252L647.271 533.269L634.661 535.78L621.452 538.794L608.843 542.309L598.035 545.322L584.825 547.833L586.026 549.842L589.028 554.864L592.03 559.886L596.834 567.419L601.037 574.45L606.441 582.987L615.447 598.053L628.657 619.146L637.063 632.705L646.07 647.771L654.476 662.837L661.081 674.89L667.685 685.938L671.288 692.467Z" fill="#DFA6F3"/>
<path d="M560.808 575.454L559.007 592.529L568.013 597.049L575.218 601.569L582.424 607.093L593.231 615.128L601.037 622.159L613.646 634.212L620.852 642.247L628.657 651.286L634.061 657.815L640.066 665.85L646.07 674.388L653.876 684.934L661.681 699.498H674.29L671.288 692.467L664.683 680.916L655.076 663.841L645.469 646.767L632.26 624.67L622.052 608.097L604.039 579.472L584.825 547.833L560.808 555.366V556.873V560.388V567.921V575.454Z" fill="#C481CF"/>
<path d="M1258.51 331.385L1244.1 345.949L1260.92 343.438L1274.73 338.416L1292.74 331.385L1316.76 320.839L1352.78 301.253L1378.6 284.68L1407.42 268.108L1426.64 257.562L1448.85 241.491L1460.26 232.954L1477.07 222.408L1470.47 232.954L1465.07 239.985L1457.86 248.02L1450.65 254.548L1444.05 263.086L1439.25 270.619L1435.04 278.152L1430.84 284.68L1426.64 291.711L1418.83 299.746L1405.62 312.301L1394.21 326.363L1405.62 317.826L1414.63 310.293L1435.04 298.24L1445.25 287.694L1462.06 275.641L1469.27 269.112L1489.68 255.553L1499.29 249.024L1508.3 242.496L1520.31 234.963L1526.31 230.443L1528.71 225.421V220.399L1530.51 212.364L1534.12 206.337L1540.72 198.302L1545.52 194.284L1550.93 190.267L1556.93 186.751L1562.94 181.729L1570.74 176.205L1577.35 171.183L1582.15 166.663L1586.35 163.148L1588.76 157.624L1590.56 150.593L1592.36 139.042L1594.16 128.496L1595.96 102.382V68.7343L1590.56 78.2761L1585.75 92.8399L1577.35 102.382L1562.34 116.443L1547.33 131.509L1526.31 150.593L1506.5 169.174L1488.48 181.729L1462.06 200.813L1442.85 216.381L1418.83 234.963L1394.21 252.54L1372 267.103L1337.77 286.187L1309.55 301.253L1290.94 311.799L1272.33 322.345L1258.51 331.385Z" fill="white"/>
<path d="M1349.78 445.384L1371.4 431.323L1381 435.843L1389.41 438.856L1397.22 440.362L1408.62 441.367L1397.22 449.402L1381 461.455L1365.99 472.001L1341.98 487.569L1318.56 503.138L1292.74 515.693L1271.12 523.226L1276.53 517.199L1290.34 499.622L1302.95 485.058L1318.56 469.992L1334.17 457.437L1349.78 445.384Z" fill="white"/>
<path d="M381.878 587.507L351.856 616.635L386.681 595.542L415.502 576.459L447.926 554.864L474.345 537.789L500.164 521.217L518.777 511.173L545.797 497.111L584.225 478.53L610.043 465.975L647.871 447.895L669.487 436.345L689.301 426.301L709.716 414.75L733.733 402.195L751.146 390.645L781.768 372.063L803.384 359.508L841.812 333.896L828.602 350.469L818.395 364.028L805.185 381.103L788.373 402.195L773.963 418.266L787.172 409.226L811.79 389.138L830.404 376.583L845.415 365.032L864.028 351.975L870.633 347.455L875.437 344.442L880.24 341.931L882.642 338.918V336.407V331.887L883.843 326.865L886.244 322.848L889.847 319.332L897.653 312.804L906.659 305.773L918.068 297.738L928.875 289.2L939.083 278.152L941.485 270.117V254.548L940.284 217.385L924.672 232.954L904.257 254.548L876.637 278.152L855.022 297.738L825.6 320.839L796.179 341.931L772.762 358.002L733.733 381.103L689.301 407.217L644.869 427.807L613.646 438.354L578.821 449.402L550 462.961L522.98 474.512L504.967 487.569L479.148 508.159L417.904 556.873L381.878 587.507Z" fill="white"/>
<path d="M1369.6 421.781L1355.79 426.803L1370.8 432.829L1382.81 437.349L1401.42 441.367L1418.23 443.878H1433.84L1447.65 441.367L1457.86 435.843L1447.65 422.785L1433.84 408.222L1424.24 399.182L1416.43 392.151L1409.22 399.182L1400.22 405.711L1384.01 414.75L1369.6 421.781Z" fill="#DFA6F3"/>
<path d="M1105.6 309.407L1127.78 302.387V316.428L1105.6 309.407Z" fill="#EE3030"/>
<path d="M1178.74 273.803L1200.33 266.281V280.322L1178.74 273.803Z" fill="#EE3030"/>
<path d="M1247.69 236.694L1266.88 229.673V243.715L1247.69 236.694Z" fill="#EE3030"/>
<path d="M1309.45 200.588L1331.63 194.069V208.11H1331.03L1309.45 200.588Z" fill="#EE3030"/>
<path d="M1372.4 164.482L1391.59 157.963V171.001L1372.4 164.482Z" fill="#EE3030"/>
<path d="M1420.97 130.884L1439.55 124.365V135.898L1420.97 130.884Z" fill="#EE3030"/>
<path d="M1466.53 94.7779L1483.92 88.2588V99.7926L1466.53 94.7779Z" fill="#EE3030"/>
<path d="M1504.91 60.6779L1522.29 54.6603V65.1912L1504.91 60.6779Z" fill="#EE3030"/>
<path d="M1539.68 31.0912L1557.07 25.0735V35.6044L1539.68 31.0912Z" fill="#EE3030"/>
<path d="M1572.66 6.01766L1588.84 1.50443V11.0324L1572.66 6.01766Z" fill="#EE3030"/>
<path d="M399.909 406.692L422.093 398.669V413.713L399.909 406.692Z" fill="#EE3030"/>
<path d="M624.746 335.985L648.728 328.463V344.009L624.746 335.985Z" fill="#EE3030"/>
<path d="M781.232 236.193L804.015 228.67V243.715L781.232 236.193Z" fill="#EE3030"/>
<path d="M915.534 149.438L933.521 142.919V154.954L915.534 149.438Z" fill="#EE3030"/>
<path d="M164.88 496.957L188.263 489.435V505.482L164.88 496.957Z" fill="#EE3030"/>
<path d="M488.755 686.44L476.146 700H661.681L660.48 696.987L653.875 684.934L646.07 674.388L635.862 660.326L628.057 650.282L619.65 640.74L608.242 628.687L591.43 613.621L574.017 600.564L559.006 592.529L555.404 603.577L551.801 613.621L543.995 626.176L534.388 638.731L517.576 656.811L503.766 670.37L488.755 686.44Z" fill="#DFA6F3"/>
<path d="M1341.98 691.965L1328.77 700L1378.6 699.498L1383.41 696.987L1390.61 693.974L1402.62 689.454L1413.43 684.432L1427.24 678.908L1436.84 673.886L1449.45 668.864L1465.07 662.335L1475.27 657.815L1488.48 652.793L1503.49 646.767L1526.91 638.731L1548.53 630.194L1570.74 622.661L1583.95 618.643L1598.96 613.621L1610.97 610.608L1618.78 608.097L1628.38 605.586L1637.99 600.564L1650 594.538V556.371H1647L1637.99 559.886L1626.58 564.406L1612.17 572.441L1598.96 578.467L1586.35 584.996L1575.55 592.027L1543.12 609.604L1526.91 618.141L1505.9 628.687L1492.69 634.714L1478.88 641.745L1457.26 651.286L1444.05 656.309L1426.64 663.339L1402.62 671.877L1387.01 676.397L1370.2 681.419L1355.79 685.938L1341.98 691.965Z" fill="white"/>
<path d="M1191.27 676.899L1181.06 685.938L1166.58 699.498H1191.27L1194.27 695.982L1206.88 685.938L1221.29 674.388L1241.1 660.326L1266.92 643.753L1287.94 630.194L1311.95 617.137L1337.77 604.08L1362.39 592.529L1402.02 572.943L1427.24 560.89L1462.66 547.331L1502.89 528.247L1524.51 515.692L1545.52 502.133L1567.14 485.56L1585.75 472.001L1605.57 456.433L1627.78 439.86L1650 423.79V386.125L1645.8 391.649L1637.39 398.68L1624.18 406.213L1612.17 413.746L1597.16 423.79L1584.55 435.34L1575.55 445.384L1545.52 470.494L1521.51 487.067L1465.67 518.706L1425.44 537.789L1373.2 562.899L1337.77 581.481L1353.98 566.415L1367.79 551.851L1389.41 530.256L1414.63 505.146L1437.45 484.556L1429.04 489.076L1415.83 495.604L1397.22 506.653L1375.6 519.71L1344.98 541.305L1320.96 559.384L1285.53 589.516L1263.92 609.604L1230.9 639.736L1210.48 659.322L1191.27 676.899Z" fill="white"/>
<path d="M1030.95 692.969L1027.95 700H1062.17L1065.78 689.454L1071.78 679.41L1079.59 670.872L1089.79 661.331L1100.6 652.291L1107.81 646.767L1116.81 640.74L1126.42 632.203L1139.03 621.657L1146.83 612.617L1157.64 597.049L1152.84 601.569L1146.83 607.093L1140.83 612.617L1133.62 618.644L1122.22 625.674L1109.01 632.203L1095.8 638.229L1083.79 643.754L1071.18 649.78L1060.97 656.309L1049.56 664.846L1042.96 670.872L1036.95 678.908L1033.95 685.436L1030.95 692.969Z" fill="white"/>
<path d="M33.024 692.969L28.2205 699.498H112.282L114.083 698.493L138.701 682.925L153.712 673.383L178.33 659.322L200.546 645.26L214.956 635.718L207.751 639.234L199.345 643.251L181.332 650.282L159.716 659.322L130.295 671.877L78.6571 694.978L68.4497 698.996L65.4475 698.493L72.6528 694.978L80.4584 689.454L86.4628 682.925L93.6681 674.89L99.6724 667.357L104.476 661.833L108.079 656.811L118.286 650.282L131.496 642.247L142.904 635.216L153.111 630.194L166.921 622.661L178.33 617.137L186.135 613.119L194.541 608.6L208.952 601.569L219.76 596.547L235.972 588.512L250.382 581.481L261.19 575.957L275.6 568.926L287.609 562.397L305.022 554.362L324.236 543.816L333.843 537.789L365.666 519.208L383.078 508.662L407.696 491.587L405.895 492.591L401.692 493.596L393.286 497.111L383.078 502.133L370.469 507.657L354.258 515.19L338.646 522.221L315.229 534.274L298.417 543.314L273.199 556.873L251.583 568.926L240.175 575.454L230.568 580.476L222.161 586.001L213.155 590.52L205.349 596.045L198.744 599.56L193.341 603.075L186.736 607.093L180.131 610.608L172.325 614.626L163.919 617.137L156.714 620.15L149.509 622.661L141.103 625.172L132.696 627.181L124.891 628.688L117.085 631.199L110.48 633.207L103.275 635.216L95.4694 637.727L86.4628 640.74L79.858 643.251L73.8536 646.767L67.2488 651.789L61.8449 656.309L56.441 660.828L52.2379 665.348L48.6353 670.37L46.2336 673.886L43.2314 678.405L39.0283 684.432L35.4257 689.956L33.024 692.969Z" fill="white"/>
<path d="M85.7374 641.38C121.673 625.993 144.239 600.518 188.263 528.55M188.263 528.55C289.546 519.783 340.254 498.727 422.093 438.285M188.263 528.55V488.432M422.093 438.285C538.507 440.105 585.35 421.694 648.728 367.578M422.093 438.285V397.164M648.728 367.578C740.699 344.485 773.67 321.765 804.015 266.281M648.728 367.578V326.959M804.015 266.281C868.648 241.829 897.303 221.556 933.521 172.506M804.015 266.281V227.166M933.521 172.506L1127.78 337.489M933.521 172.506V141.415M1127.78 337.489L1200.33 301.885M1127.78 337.489V300.882M1200.33 301.885L1266.88 266.281M1200.33 301.885V264.776M1266.88 266.281L1331.63 229.172M1266.88 266.281V228.169M1331.63 229.172L1391.59 189.556M1331.63 229.172V192.565M1391.59 189.556L1439.55 153.45M1391.59 189.556V156.459M1439.55 153.45L1483.92 116.341M1439.55 153.45V123.362M1483.92 116.341L1522.29 84.247M1483.92 116.341V87.2558M1522.29 84.247L1557.07 54.1588M1522.29 84.247V53.6573M1557.07 54.1588L1588.84 25.0735V0M1557.07 54.1588V24.0706" stroke="black" stroke-width="2"/>
<path d="M46.7659 646.395H61.1554L68.3502 630.348L74.9454 646.395H88.7353V640.378H84.5384L68.9497 620.82L67.7506 617.31L67.151 620.82L51.5624 640.378H46.7659V646.395Z" fill="#EE3030"/>
<defs>
<linearGradient id="paint0_linear_2_3" x1="1055.57" y1="78.276" x2="994.839" y2="702.003" gradientUnits="userSpaceOnUse">
<stop stop-color="#FEF8F8"/>
<stop offset="1" stop-color="#A663AC"/>
</linearGradient>
</defs>
</svg>
