<svg width="1868" height="702" viewBox="0 0 1868 702" fill="none" xmlns="http://www.w3.org/2000/svg">
<path d="M0 700.908L41.4658 658.303L60.4993 641.157L83.6114 623.492L94.4876 617.257C94.7142 616.91 95.9831 615.594 99.246 613.1C103.325 609.983 105.364 608.943 108.763 606.865C112.162 604.787 112.841 604.787 115.56 602.189C117.736 600.111 121.905 596.474 123.718 594.915L137.506 585C138.412 583.787 144.306 579.146 145.938 577.067C156.814 569.586 156.444 567.074 159.39 566.035C159.39 566.035 159.389 566.035 159.389 566.036C161.949 563.696 163.933 563.137 166.543 561.142C175.244 552.829 181.498 547.633 183.537 546.075C192.374 540.879 193.054 538.801 195.773 536.203C197.948 534.124 200.758 531.873 201.891 531.007C202.117 530.834 202.978 529.968 204.61 527.89C206.241 525.811 215.713 515.593 220.245 510.743L238.598 493.598L255.592 477.491L273.946 463.462L291.62 450.992L299.777 445.796L314.732 441.12L325.608 439.042H331.047H345.322L358.917 440.081L369.793 441.12L378.63 441.64L391.546 442.679H405.821L412.619 441.64L422.815 440.081L433.012 439.042L443.888 436.964L454.764 434.366L468.36 430.729L475.837 428.131L497.59 421.376L522.741 413.063L533.617 409.426L542.454 406.828L553.33 404.23L564.886 402.152L579.162 399.554L590.038 397.995L598.195 397.476L612.47 394.878L622.667 392.8L632.183 390.202L648.498 386.045L659.374 382.408L668.211 379.291L685.885 373.056L693.362 369.419L700.16 366.301L705.598 363.184L715.115 358.508L721.913 355.39L726.671 352.792L729.39 350.714L734.828 348.116L738.907 345.518L750.463 338.764L762.019 332.009L770.856 326.294L783.092 318.5L788.53 314.863L793.968 312.265L799.406 309.667L805.524 307.07L813.001 302.393L821.838 297.198L829.316 292.002L836.793 288.365L846.31 282.65L853.787 278.493L865.344 271.738L874.181 267.062L885.057 261.866L892.534 257.71L899.332 254.592L904.09 251.475L917.006 244.201L926.523 239.005L940.118 230.692L948.275 226.016L957.792 220.82L964.589 216.144L973.427 210.948L980.904 205.752L987.022 202.115L999.937 194.322L1010.13 186.528L1022.37 178.734L1032.57 170.941L1039.36 164.706L1047.52 159.51L1052.96 155.353L1056.36 152.755L1057.04 151.716L1061.8 155.353L1067.91 161.069L1082.87 172.499L1089.67 178.215L1115.5 198.998L1136.57 216.144L1158.32 231.731L1183.47 249.916L1192.99 256.671L1209.99 270.18L1221.54 279.532L1231.06 286.806L1234.46 289.404L1235.82 291.482L1238.54 292.521L1242.61 294.08L1246.01 294.6H1251.45L1259.61 292.521L1272.52 289.924L1281.36 288.365L1289.52 286.287L1305.83 282.65L1313.31 280.571L1319.43 278.493L1325.55 276.934L1333.02 273.817L1347.98 269.141L1354.78 265.503L1363.61 261.347L1369.73 258.749L1390.12 249.397L1413.24 236.927L1427.51 228.094L1449.94 214.065L1464.22 205.233L1486.65 190.685L1496.85 184.969L1505.68 180.293L1513.84 175.617L1523.36 170.421L1530.84 166.784L1542.39 160.549L1549.87 155.873L1556.67 151.197L1564.14 147.56L1573.66 142.364L1586.58 135.609L1596.09 130.414L1605.61 124.179L1613.77 119.503L1621.92 114.826L1631.44 110.15L1643.68 102.876L1653.87 98.1999L1664.75 91.4454L1671.55 87.2888L1680.38 82.0931L1691.94 74.819L1702.14 69.6232L1708.93 64.947L1717.09 59.2317L1725.93 54.0359L1734.09 47.801L1749.72 37.4095L1757.2 32.7333L1765.36 25.9788L1778.27 17.146L1787.79 9.35237L1794.59 4.15661L1797.98 1.55873L1799.34 0L1807.5 8.31322L1815.66 15.5873L1827.21 23.9005L1831.97 28.0571L1840.13 34.292L1845.57 38.9682L1853.05 44.164L1856.44 47.801L1861.2 50.9185L1865.28 54.0359L1868 56.1142V701.728H0V700.908Z" fill="url(#paint0_linear_12_100)"/>
<path d="M1823.81 22.3418L1817.02 16.6264L1830.61 24.9397L1846.25 37.9291L1859.16 48.3206L1866.64 54.5555V71.7015V81.5735L1863.24 78.456L1859.16 72.2211L1855.08 66.5058L1851 59.7513L1848.29 54.5555L1840.81 44.164L1836.05 36.3703L1833.33 31.1746L1830.61 28.5767L1823.81 22.3418Z" fill="#DFA6F3"/>
<path d="M1863.24 188.606L1866.64 194.841V156.392L1862.56 151.197L1855.76 142.883L1849.65 136.129L1844.21 129.375L1840.81 124.698L1833.33 113.268L1828.57 107.552L1831.97 118.463L1835.37 129.375L1837.41 137.168L1842.85 149.638L1845.57 156.392L1852.37 169.382L1859.16 181.332L1863.24 188.606Z" fill="#DFA6F3"/>
<path d="M1795.95 146.521L1793.23 148.599L1795.95 156.392L1805.46 171.98L1814.3 185.489L1825.18 199.517L1831.97 211.468L1842.85 232.77L1861.88 262.386L1866.64 269.141V194.841L1857.8 178.734L1846.25 156.392L1838.77 137.168L1828.57 107.552L1833.33 113.787L1843.53 128.855L1855.08 142.364L1866.64 156.392V81.5735L1859.84 72.7407L1848.97 55.0751L1840.81 42.6053L1833.33 30.655L1822.46 21.3026L1806.82 7.79366V47.801V59.7513V94.0433L1802.74 121.581L1801.38 128.855L1800.02 135.609L1797.98 142.364L1795.95 146.521Z" fill="#C481CF"/>
<path d="M1741.56 185.489L1740.2 187.567L1751.76 207.311L1766.04 233.809L1782.35 260.827L1795.27 283.689L1806.82 304.472L1820.42 333.048L1834.01 355.91L1840.81 353.312L1854.4 348.116L1866.64 341.881V269.141L1855.08 250.436L1841.49 228.094L1836.05 217.183L1826.53 200.037L1813.62 183.41L1803.42 167.823L1797.3 156.392L1793.23 148.599L1790.51 150.677L1787.11 153.795L1780.99 157.951L1775.55 161.588L1770.11 165.745L1764 169.901L1760.6 171.98L1755.16 174.578L1749.72 178.734L1746.32 181.332L1743.6 183.41L1741.56 185.489Z" fill="#DFA6F3"/>
<path d="M1722.53 239.525L1721.85 240.564L1728.65 249.916L1741.56 269.141L1755.84 284.208L1779.63 312.265L1793.23 328.892L1819.74 359.547L1834.01 355.91L1831.97 352.792L1823.82 337.205L1814.3 317.981L1806.82 301.874L1787.11 267.062L1774.87 246.279L1764 226.535L1749.72 200.556L1740.2 187.047L1737.49 189.645L1734.77 193.282L1732.73 196.919L1731.37 200.556L1730.69 205.752V210.428L1732.73 215.624L1734.09 221.859L1735.45 229.653V232.77L1734.77 235.888L1732.73 236.927H1731.37L1728.65 236.407L1725.93 236.927L1723.89 238.486L1722.53 239.525Z" fill="#C481CF"/>
<path d="M1704.18 258.229L1702.14 261.347L1715.05 288.365L1723.89 302.913L1732.73 322.137L1742.92 347.597L1752.44 367.34L1754.48 373.575L1755.84 375.134L1765.36 373.056L1783.03 368.899L1800.02 365.262L1819.74 359.547L1808.18 345.518L1795.94 330.451L1783.03 314.863L1770.11 299.796L1757.88 285.767L1742.92 269.141L1732.73 255.112L1721.85 240.564L1720.49 245.24L1716.41 249.397L1711.65 251.995L1707.57 255.112L1704.18 258.229Z" fill="#DFA6F3"/>
<path d="M1689.22 272.258L1682.42 279.012L1692.62 296.678L1715.73 332.529L1733.41 356.429L1737.48 363.703L1741.56 370.458L1745.64 377.212L1755.84 375.134L1755.16 374.095L1752.44 365.782L1745.64 349.155L1740.2 338.244L1733.41 323.696L1727.29 308.628L1722.53 297.717L1715.73 285.767L1707.58 270.699L1702.14 261.347L1695.34 267.582L1689.22 272.258Z" fill="#C481CF"/>
<path d="M1632.8 354.351L1626.68 361.106L1640.96 378.252L1647.76 387.604L1661.35 410.985L1667.47 420.337L1683.78 410.985L1693.98 403.711L1706.22 395.398L1711.65 389.682L1717.09 385.006L1723.21 381.889L1731.37 379.291L1738.16 378.252L1745.64 377.212L1738.16 362.145L1729.33 350.194L1720.49 338.244L1711.65 324.216L1706.22 314.863L1699.42 305.511L1689.9 291.482L1682.42 279.013L1680.38 281.091L1674.27 290.443L1669.51 297.198L1664.75 303.952L1660.67 312.785L1655.23 320.579L1647.76 332.529L1639.6 346.038L1632.8 354.351Z" fill="#DFA6F3"/>
<path d="M1612.41 375.134L1603.57 383.447L1614.45 392.28L1637.56 414.622L1650.47 428.65L1667.47 420.337L1661.35 409.946L1655.23 398.515L1644.36 380.849L1637.56 372.017L1626.68 361.105L1623.96 363.703L1617.85 369.938L1612.41 375.134Z" fill="#C481CF"/>
<path d="M1146.09 223.937L1141.33 219.781L1155.6 229.133L1167.16 236.927L1179.4 246.279L1190.27 254.073L1203.87 265.504L1209.99 271.219L1217.46 277.454L1226.3 284.728L1233.78 290.443L1237.18 294.6L1242.61 300.315L1249.41 308.109L1258.93 314.863L1270.48 322.657L1283.4 329.411L1297 334.607L1305.15 338.764L1313.31 341.881L1325.55 344.999H1342.54H1351.38L1359.53 343.96L1367.69 342.92H1377.21H1385.36L1393.52 346.557L1405.08 349.675L1415.95 355.39L1429.55 362.145L1442.47 369.419L1451.3 376.173L1461.5 382.408L1466.94 386.045L1473.73 389.682L1481.21 395.398L1480.53 397.995L1479.85 399.035L1471.7 400.074H1456.74L1442.47 403.711L1432.27 405.789L1417.99 408.387L1405.08 409.946L1394.88 410.985H1384.69L1373.81 412.024L1362.25 413.583L1354.1 414.622L1348.66 415.141L1342.54 416.181L1339.82 416.7H1338.46V416.181V413.583V410.985L1337.78 408.387L1336.42 405.789L1335.06 403.711L1333.02 402.152L1330.98 400.074L1328.26 399.035L1315.35 394.358L1309.91 391.761L1301.75 388.124L1292.92 383.447L1286.8 380.33L1277.96 374.095L1273.2 371.497L1264.37 367.86L1255.53 362.145L1243.97 354.351L1237.18 349.155L1231.06 343.96L1224.94 339.283L1221.54 335.127L1219.5 332.529L1218.14 330.451L1214.74 326.814L1214.06 323.696L1212.7 321.098L1212.02 319.02L1211.34 316.942L1209.31 314.344L1206.59 310.707L1203.87 306.03L1202.51 303.952L1201.15 301.354L1199.79 300.315L1194.35 296.678L1188.91 291.482L1183.47 286.287L1179.4 281.091L1176.68 277.973L1176 276.415L1175.32 274.856L1176 272.778V270.18V268.621L1176.68 268.101L1177.36 266.543L1180.08 264.464L1182.11 262.386L1183.47 261.347L1184.83 260.827L1187.55 260.308L1192.31 259.269L1175.32 246.279L1146.09 223.937Z" fill="#C481CF"/>
<path d="M1064.51 167.304V157.951L1093.07 180.813L1093.74 183.93L1097.82 192.243L1102.58 203.154L1110.74 214.065L1119.58 233.29L1127.05 243.162L1146.09 271.219L1154.24 284.728L1156.96 289.924L1161.04 295.639L1164.44 300.315L1167.84 304.991L1171.24 310.187L1176 318.5L1180.08 325.255L1182.79 329.931L1186.87 336.685L1190.95 341.881L1195.03 347.597L1203.19 359.027L1207.27 365.262L1212.02 372.536L1215.42 377.732L1209.31 374.614L1205.23 372.536L1203.19 370.977L1200.47 369.419L1197.75 366.821L1195.71 364.743L1192.31 361.106L1189.59 357.468L1186.19 353.831L1182.79 350.714L1175.32 343.44L1169.2 337.725L1165.8 333.048L1159 323.696L1156.96 321.098L1152.2 317.461L1145.41 311.746L1141.33 308.628L1139.29 306.55L1137.25 304.991L1135.89 303.433L1129.09 294.6L1122.3 284.728L1113.46 272.778L1108.02 264.464L1103.94 258.229L1100.54 251.994L1097.14 245.24L1094.42 240.044L1092.39 235.888L1090.35 232.251L1086.95 225.496V229.653V237.966V241.083L1087.63 243.162L1088.99 247.838L1091.03 254.073L1092.39 259.788L1093.07 264.464L1094.42 268.621L1095.78 276.415L1098.5 282.649L1102.58 293.041L1106.66 302.913L1111.42 309.667L1114.82 314.344L1115.5 316.942L1118.9 324.735L1121.62 329.931L1122.97 334.607L1125.01 338.244L1128.41 343.959L1134.53 354.871L1139.97 365.262L1144.05 373.056L1148.81 381.369L1152.2 387.604L1163.08 405.27L1169.2 415.141L1177.36 429.17L1180.08 434.885L1183.47 444.238L1178.04 442.159L1172.6 440.081L1169.2 438.522L1167.16 437.483L1165.12 435.924L1161.72 433.327L1157.64 430.729L1154.92 428.65L1150.85 423.974L1146.77 419.298L1141.33 412.544L1138.61 409.426L1135.21 405.27L1129.09 399.035L1124.33 394.358L1122.3 391.241L1115.5 381.889L1112.78 377.732L1105.3 364.223L1099.86 353.831L1097.82 350.194L1090.35 338.244L1087.63 333.048L1080.15 320.059L1074.03 311.746L1071.31 307.07L1068.59 303.433L1065.87 299.796L1061.12 290.963L1057.04 282.649L1055.68 278.493L1054.32 274.336L1057.04 271.738L1059.08 269.141L1061.8 266.543L1063.16 264.464L1063.84 261.866L1064.51 257.19V252.514V245.24V225.496V196.919V167.304Z" fill="#C481CF"/>
<path d="M998.578 363.184L994.499 357.988L999.937 355.91L1003.34 354.871L1006.06 353.312V350.714L1005.38 348.636L1004.02 344.999L1001.98 338.244L1000.62 334.607L999.937 329.931L999.257 325.774V321.098L999.937 319.02L1000.62 316.422L1002.66 313.304L1005.38 310.187L1009.45 306.55L1020.33 323.176L1034.61 347.597L1047.52 372.017L1058.4 392.28L1063.16 401.113L1067.91 408.907L1073.35 418.778L1077.43 425.013L1078.79 428.65L1082.19 436.444L1085.59 443.718L1088.31 451.512L1091.03 459.305L1092.39 463.462L1097.82 470.736L1100.54 474.373L1101.22 475.412L1102.58 480.608L1105.3 488.402L1097.82 480.088L1085.59 467.619L1076.07 457.227L1060.44 438.003L1047.52 421.376L1034.61 406.309L1027.13 396.437L1016.93 385.006L1007.41 374.095L998.578 363.184Z" fill="#C481CF"/>
<path d="M962.55 389.682L959.151 386.045L961.191 383.447L963.91 380.849L966.629 378.252L968.668 375.654L971.387 373.575L974.106 370.977L976.825 368.38L978.185 370.977L980.224 374.095L982.943 379.81L986.342 386.045L989.061 390.202L991.78 394.878L994.499 399.554L997.898 407.348L1001.3 414.622L1004.7 422.416L1010.13 433.846L1013.53 441.64L1018.29 452.031L1023.05 464.501L1026.45 474.893L1029.17 484.245L1030.53 490.48L1032.57 497.754L1030.53 494.637L1027.81 490.48L1024.41 484.765L1023.05 482.686L1018.97 474.893L1014.89 469.177L1010.81 462.942L1006.74 456.708L1000.62 447.355L998.578 444.757L995.859 440.601L994.499 438.522L991.1 432.287L985.662 422.935L979.544 413.063L975.466 406.828L974.106 404.75L969.348 397.995L967.309 394.878L962.55 389.682Z" fill="#C481CF"/>
<path d="M897.292 473.334L894.573 471.775L896.613 469.697L899.332 467.619L902.051 466.06L905.45 462.423L908.169 459.825L911.567 455.668L914.286 453.071L916.326 450.992L918.365 448.394L919.045 450.473L921.084 454.11L924.483 459.305L925.843 461.903L927.202 464.501L930.601 472.295L934 478.53L938.078 486.323L942.837 494.637L947.595 501.391L950.994 506.067L954.393 512.302L957.112 516.978L961.87 523.213L963.909 526.331L966.629 529.968L970.027 534.124L972.746 537.242L974.786 540.359L978.185 544.516L981.583 550.751L983.623 555.427L982.263 554.388L981.583 553.349L979.544 552.31L978.185 550.751L976.145 549.192L972.067 546.594L969.348 544.516L966.629 541.918L964.589 540.359L963.23 539.32L957.792 534.124L953.033 529.448L949.634 526.331L945.556 521.655L942.157 518.018L940.797 515.939L939.438 514.381L937.399 511.783L935.359 509.704L933.32 507.626L930.601 505.028L924.483 499.832L917.006 491.519L912.247 485.804L904.77 478.53L902.73 476.451L900.011 474.893L897.292 473.334Z" fill="#C481CF"/>
<path d="M795.328 671.812L796.687 673.89L800.766 670.773L804.845 667.656L810.962 664.018L815.721 661.421L821.159 659.342L828.636 656.225L834.075 654.666L838.833 653.627L844.271 653.107H848.35L847.67 651.549H846.99L842.232 642.716L840.192 640.118L836.794 635.961L832.715 630.766L828.636 626.089L822.518 618.815L814.361 611.541L806.204 603.748L794.648 593.356L787.171 587.121L777.654 579.847L772.895 576.21L769.497 574.132L765.418 572.053L759.98 568.936L756.581 566.338L757.261 569.456L757.941 573.612L758.62 577.249L759.3 581.925L760.66 585.043L762.699 589.719L764.738 596.474L767.457 603.748L769.497 608.943L772.216 615.698L774.255 621.933L776.294 625.57L779.693 631.285L782.412 635.961L784.452 642.196L785.811 646.353L787.171 650.509L789.89 656.225L791.929 660.901L793.288 664.018L794.648 668.695L795.328 671.812Z" fill="#C481CF"/>
<path d="M759.98 694.154L763.379 701.428L767.457 696.232L774.255 689.478L782.412 684.282L788.53 679.606L796.687 673.89L795.328 671.812L793.288 663.499L787.17 649.99L782.412 635.961L774.255 621.933L770.176 610.502L764.058 594.395L759.3 580.886L756.581 566.338L759.3 568.416L773.575 576.73L783.772 584.523L802.805 600.63L819.119 615.698L831.355 629.207L839.512 639.079L848.349 653.107H851.748L865.344 652.068L881.658 649.99L900.692 646.872L917.006 644.275L938.079 640.118L957.792 632.844L974.106 625.57L984.303 621.413L993.14 616.217L1001.3 613.1H1009.45L1013.53 614.659L1020.33 618.296L1025.09 621.933L1030.53 622.972L1037.32 619.855L1044.8 615.178L1053.64 609.463L1060.44 602.708L1067.23 591.278L1069.95 586.082L1071.99 578.808C1072.67 577.769 1074.03 575.379 1074.03 574.132C1074.03 572.885 1076.75 569.802 1078.11 568.416L1081.51 561.142L1084.91 551.79L1088.99 546.075L1097.82 537.761L1107.34 532.566L1120.26 528.409L1136.57 525.292L1150.17 523.733L1163.08 522.174L1173.96 520.615H1182.79L1194.35 519.057L1204.55 516.459L1216.1 513.341L1228.34 508.146L1237.86 502.43L1244.65 497.754L1250.09 491.519L1255.53 483.726L1262.33 475.412L1268.45 467.619L1277.28 458.266L1284.76 450.473L1294.96 442.159L1300.39 435.924L1309.23 430.729L1318.07 426.572L1334.38 419.298L1339.14 416.181V409.946L1336.42 404.23L1330.98 399.554L1313.99 393.319L1303.79 388.123L1288.16 380.33L1277.96 373.056L1268.45 368.899L1258.93 364.223L1250.09 357.988L1236.5 348.116L1224.94 338.764L1215.42 326.813L1211.35 316.942L1205.23 307.589L1201.15 300.835L1192.99 295.119L1184.15 286.287L1176 276.415V268.621L1180.76 263.945L1184.15 260.827L1192.99 259.269L1180.76 249.916L1168.52 241.083L1149.49 226.535L1093.07 180.813V183.41L1101.9 202.115L1110.06 214.065L1119.58 233.29L1133.17 253.553L1142.69 267.582L1152.89 283.689L1171.92 311.746L1186.87 337.205L1199.79 354.351L1215.42 377.732L1206.59 373.056L1197.75 366.821L1186.87 354.351L1170.56 338.764L1156.96 321.098L1137.25 304.991L1119.58 281.091L1103.94 257.71L1086.95 225.496V241.083L1091.03 255.632L1095.78 276.415L1106.66 302.913L1114.14 314.344L1122.98 334.607L1137.25 360.586L1150.85 386.045L1165.12 408.907L1177.36 429.69L1183.47 444.238L1168.52 438.003L1156.96 429.69L1147.45 419.818L1137.25 407.348L1125.01 394.878L1115.5 381.369L1106.66 366.821L1100.54 354.351L1095.78 346.038L1091.03 338.764L1086.95 330.97L1080.83 321.098L1075.39 312.785L1071.31 306.55L1066.55 300.835L1061.8 291.482L1058.4 285.247L1054.32 274.336L1049.56 278.493L1046.16 281.091L1042.08 283.689L1038 286.806L1034.61 288.884L1029.17 292.521L1025.09 295.119L1020.33 298.237L1009.45 306.55L1019.65 323.696L1026.45 334.607L1035.97 351.234L1053.64 383.447L1061.12 397.995L1077.43 425.533L1085.59 444.238L1092.39 463.462L1100.54 474.893L1105.3 488.402L1100.54 482.167L1092.39 473.334L1083.55 465.021L1075.39 455.668L1066.55 444.238L1058.4 434.366L1049.56 423.974L1041.4 413.583L1031.89 402.152L1021.01 389.163L1010.81 377.732L1001.98 366.821L994.499 357.988L989.061 360.586L982.264 364.743L976.825 368.38L986.342 386.045L994.499 400.074L1001.98 417.739L1012.17 439.042L1021.01 459.825L1025.77 473.334L1029.17 485.804L1032.57 497.754L1029.17 492.039L1024.41 484.765L1018.97 474.893L1010.81 463.462L1005.38 454.629L994.499 438.003L986.342 423.974L978.865 412.024L967.309 394.878L959.151 386.045L955.753 392.28L948.955 400.074L942.837 408.907L934.68 421.896L927.882 434.366L918.365 448.394L919.725 452.031L925.843 462.423L929.242 470.217L933.32 478.01L941.478 493.078L950.994 507.106L959.151 519.576L964.59 527.889L972.067 536.722L979.545 547.114L983.623 555.427L982.264 554.388L977.505 550.231L971.387 546.075L966.629 541.918L960.511 536.722L953.713 529.968L948.955 525.292L942.837 518.537L937.399 511.783L931.281 505.548L923.804 498.793L916.326 490.48L910.208 483.726L902.731 476.451L894.574 471.775L883.697 479.569L874.181 485.804L858.546 494.117L843.591 500.352L827.956 505.548L813.002 510.224L795.328 515.42L782.412 518.537L765.418 522.174L751.823 525.292L732.789 529.448L718.514 532.046L703.559 535.164L689.284 538.801L677.048 541.918L662.093 544.516L663.453 546.594L666.852 551.79L670.25 556.986L675.689 564.779L680.447 572.053L686.565 580.886L696.761 596.474L711.716 618.296L721.233 632.324L731.43 647.912L740.946 663.499L748.424 675.969L755.901 687.399L759.98 694.154Z" fill="#DFA6F3"/>
<path d="M634.903 573.093L632.863 590.758L643.06 595.434L651.217 600.111L659.374 605.826L671.61 614.139L680.447 621.413L694.722 633.883L702.879 642.196L711.716 651.549L717.834 658.303L724.632 666.616L731.43 675.449L740.266 686.36L749.103 701.428H763.379L759.98 694.154L752.502 682.204L741.626 664.538L730.75 646.872L715.795 624.011L704.239 606.865L683.846 577.249L662.093 544.516L634.903 552.31V553.868V557.505V565.299V573.093Z" fill="#C481CF"/>
<path d="M1424.79 320.579L1408.48 335.646L1427.51 333.048L1443.15 327.853L1463.54 320.579L1490.73 309.667L1531.52 289.404L1560.75 272.258L1593.37 255.112L1615.13 244.201L1640.28 227.574L1653.19 218.742L1672.23 207.831L1664.75 218.742L1658.63 226.016L1650.47 234.329L1642.32 241.083L1634.84 249.916L1629.4 257.71L1624.64 265.503L1619.89 272.258L1615.13 279.532L1606.29 287.845L1591.33 300.835L1578.42 315.383L1591.33 306.55L1601.53 298.756L1624.64 286.287L1636.2 275.375L1655.23 262.906L1663.39 256.151L1686.5 242.123L1697.38 235.368L1707.58 228.614L1721.17 220.82L1727.97 216.144L1730.69 210.948V205.752L1732.73 197.439L1736.81 191.204L1744.28 182.891L1749.72 178.734L1755.84 174.578L1762.64 170.941L1769.43 165.745L1778.27 160.029L1785.75 154.834L1791.19 150.158L1795.94 146.521L1798.66 140.805L1800.7 133.531L1802.74 121.581L1804.78 110.67L1806.82 83.6518V48.8402L1800.7 58.7121L1795.27 73.7798L1785.75 83.6518L1768.75 98.1999L1751.76 113.787L1727.97 133.531L1705.54 152.755L1685.14 165.745L1655.23 185.489L1633.48 201.596L1606.29 220.82L1578.42 239.005L1553.27 254.073L1514.52 273.817L1482.57 289.404L1461.5 300.315L1440.43 311.226L1424.79 320.579Z" fill="white"/>
<path d="M1528.12 438.522L1552.59 423.974L1563.46 428.65L1572.98 431.768L1581.82 433.327L1594.73 434.366L1581.82 442.679L1563.46 455.149L1546.47 466.06L1519.28 482.167L1492.77 498.274L1463.54 511.263L1439.07 519.057L1445.19 512.822L1460.82 494.637L1475.1 479.569L1492.77 463.982L1510.44 450.992L1528.12 438.522Z" fill="white"/>
<path d="M432.332 585.562L398.344 615.698L437.77 593.876L470.399 574.132L507.106 551.79L537.016 534.124L566.246 516.978L587.319 506.587L617.909 492.039L661.414 472.814L690.644 459.825L733.469 441.12L757.941 429.17L780.373 418.778L803.485 406.828L830.676 393.839L850.389 381.889L885.057 362.664L909.529 349.675L953.034 323.176L938.079 340.322L926.523 354.351L911.568 372.017L892.534 393.839L876.22 410.465L891.175 401.113L919.045 380.33L940.118 367.34L957.112 355.39L978.185 341.881L985.663 337.205L991.101 334.088L996.539 331.49L999.258 328.372V325.774V321.098L1000.62 315.902L1003.34 311.746L1007.42 308.109L1016.25 301.354L1026.45 294.08L1039.36 285.767L1051.6 276.934L1063.16 265.503L1065.88 257.19V241.083L1064.52 202.635L1046.84 218.742L1023.73 241.083L992.46 265.503L967.989 285.767L934.68 309.667L901.371 331.49L874.861 348.116L830.676 372.017L780.373 399.035L730.07 420.337L694.722 431.248L655.296 442.679L622.667 456.708L592.077 468.658L571.684 482.167L542.454 503.469L473.118 553.868L432.332 585.562Z" fill="white"/>
<path d="M1550.55 414.102L1534.91 419.298L1551.91 425.533L1565.5 430.209L1586.58 434.366L1605.61 436.964H1623.28L1638.92 434.366L1650.47 428.65L1638.92 415.142L1623.28 400.074L1612.41 390.721L1603.57 383.447L1595.41 390.721L1585.22 397.476L1566.86 406.828L1550.55 414.102Z" fill="#DFA6F3"/>
<path d="M553.33 687.919L539.055 701.948H749.103L747.744 698.83L740.266 686.36L731.429 675.449L719.873 660.901L711.036 650.51L701.52 640.638L688.604 628.168L669.57 612.58L649.857 599.071L632.863 590.758L628.784 602.189L624.706 612.58L615.869 625.57L604.993 638.559L585.959 657.264L570.324 671.293L553.33 687.919Z" fill="#DFA6F3"/>
<path d="M1519.28 693.634L1504.32 701.948L1560.75 701.428L1566.18 698.83L1574.34 695.713L1587.94 691.036L1600.17 685.841L1615.81 680.125L1626.68 674.93L1640.96 669.734L1658.63 662.979L1670.19 658.303L1685.14 653.107L1702.14 646.873L1728.65 638.559L1753.12 629.726L1778.27 621.933L1793.23 617.776L1810.22 612.58L1823.82 609.463L1832.65 606.865L1843.53 604.267L1854.4 599.071L1868 592.837V553.349H1864.6L1854.4 556.986L1841.49 561.662L1825.17 569.975L1810.22 576.21L1795.94 582.965L1783.71 590.239L1747 608.424L1728.65 617.257L1704.86 628.168L1689.9 634.403L1674.27 641.677L1649.79 651.549L1634.84 656.744L1615.13 664.019L1587.94 672.851L1570.26 677.528L1551.23 682.723L1534.91 687.399L1519.28 693.634Z" fill="white"/>
<path d="M1348.66 678.047L1337.1 687.399L1320.71 701.428H1348.66L1352.06 697.791L1366.33 687.399L1382.65 675.449L1405.08 660.901L1434.31 643.755L1458.1 629.726L1485.29 616.217L1514.52 602.708L1542.39 590.758L1587.26 570.495L1615.81 558.025L1655.91 543.996L1701.46 524.252L1725.93 511.263L1749.72 497.234L1774.19 480.088L1795.26 466.06L1817.7 449.953L1842.85 432.807L1868 416.181V377.212L1863.24 382.928L1853.72 390.202L1838.77 397.995L1825.17 405.789L1808.18 416.181L1793.91 428.131L1783.71 438.522L1749.72 464.501L1722.53 481.647L1659.31 514.381L1613.77 534.124L1554.63 560.103L1514.52 579.328L1532.87 563.74L1548.51 548.673L1572.98 526.331L1601.53 500.352L1627.36 479.049L1617.85 483.726L1602.89 490.48L1581.82 501.911L1557.35 515.42L1522.68 537.761L1495.49 556.466L1455.38 587.641L1430.91 608.424L1393.52 639.598L1370.41 659.862L1348.66 678.047Z" fill="white"/>
<path d="M1167.16 694.674L1163.76 701.948H1202.51L1206.59 691.036L1213.38 680.645L1222.22 671.812L1233.78 661.94L1246.01 652.588L1254.17 646.873L1264.37 640.638L1275.24 631.805L1289.52 620.894L1298.35 611.541L1310.59 595.434L1305.15 600.111L1298.35 605.826L1291.56 611.541L1283.4 617.776L1270.48 625.05L1255.53 631.805L1240.57 638.04L1226.98 643.755L1212.7 649.99L1201.15 656.744L1188.23 665.577L1180.75 671.812L1173.96 680.125L1170.56 686.88L1167.16 694.674Z" fill="white"/>
<path d="M37.3874 694.674L31.9492 701.428H127.117L129.156 700.389L157.026 684.282L174.021 674.41L201.891 659.862L227.042 645.314L243.357 635.442L235.2 639.079L225.683 643.235L205.29 650.51L180.818 659.862L147.51 672.851L89.0497 696.752L77.4936 700.908L74.0948 700.389L82.252 696.752L91.089 691.036L97.8866 684.282L106.044 675.969L112.841 668.175L118.28 662.46L122.358 657.264L133.914 650.51L148.869 642.196L161.785 634.922L173.341 629.726L188.975 621.933L201.891 616.217L210.728 612.061L220.245 607.385L236.559 600.111L248.795 594.915L267.149 586.602L283.463 579.328L295.699 573.612L312.013 566.338L325.609 559.584L345.322 551.27L367.074 540.359L377.951 534.124L413.978 514.9L433.692 503.989L461.562 486.323L459.523 487.363L454.764 488.402L445.248 492.039L433.692 497.235L419.416 502.95L401.063 510.744L383.389 518.018L356.878 530.487L337.844 539.84L309.294 553.868L284.823 566.338L271.907 573.093L261.031 578.288L251.514 584.004L241.317 588.68L232.48 594.395L225.003 598.032L218.885 601.669L211.408 605.826L203.93 609.463L195.093 613.62L185.577 616.217L177.419 619.335L169.262 621.933L159.745 624.531L150.229 626.609L141.392 628.168L132.555 630.766L125.077 632.844L116.92 634.922L108.083 637.52L97.8866 640.638L90.4092 643.235L83.6115 646.873L76.1341 652.068L70.0162 656.744L63.8983 661.421L59.1399 666.097L55.0613 671.293L52.3422 674.93L48.9434 679.606L44.185 685.841L40.1064 691.556L37.3874 694.674Z" fill="white"/>
<defs>
<linearGradient id="paint0_linear_12_100" x1="1195.03" y1="58.7121" x2="1137.52" y2="705.021" gradientUnits="userSpaceOnUse">
<stop stop-color="#FEF8F8"/>
<stop offset="1" stop-color="#A663AC"/>
</linearGradient>
</defs>
</svg>
