<svg width="2232" height="650" viewBox="0 0 2232 650" fill="none" xmlns="http://www.w3.org/2000/svg">
<path d="M0 649.038L49.5458 609.586L72.2882 593.708L99.9039 577.35L112.9 571.577C113.17 571.256 114.686 570.037 118.585 567.728C123.458 564.841 125.895 563.879 129.956 561.954C134.017 560.03 134.83 560.03 138.079 557.624C140.678 555.7 145.659 552.332 147.825 550.888L164.3 541.707C165.383 540.584 172.426 536.286 174.375 534.362C187.371 527.433 186.929 525.108 190.449 524.146C193.507 521.98 195.877 521.462 198.996 519.615C209.392 511.917 216.865 507.106 219.301 505.663C229.86 500.851 230.672 498.927 233.921 496.521C236.52 494.597 239.878 492.512 241.231 491.71C241.502 491.549 242.531 490.748 244.48 488.823C246.43 486.899 257.747 477.436 263.162 472.946L285.092 457.069L305.397 442.154L327.327 429.164L348.445 417.617L358.192 412.805L376.061 408.475L389.057 406.551H395.555H412.611L428.856 407.513L441.851 408.475L452.41 408.956L467.843 409.919H484.899L493.022 408.956L505.205 407.513L517.389 406.551L530.384 404.626L543.38 402.221L559.624 398.853L568.559 396.447L594.55 390.192L624.603 382.494L637.598 379.127L648.157 376.721L661.153 374.315L674.961 372.391L692.017 369.985L705.013 368.542L714.76 368.061L731.817 365.655L744 363.731L755.371 361.325L774.865 357.476L787.86 354.108L798.419 351.221L819.537 345.448L828.471 342.08L836.594 339.193L843.092 336.306L854.463 331.976L862.585 329.09L868.271 326.684L871.52 324.759L878.017 322.354L882.891 319.948L896.699 313.694L910.506 307.439L921.065 302.147L935.685 294.93L942.183 291.562L948.681 289.156L955.179 286.751L962.489 284.345L971.423 280.015L981.982 275.204L990.917 270.392L999.851 267.024L1011.22 261.732L1020.16 257.883L1033.96 251.628L1044.52 247.298L1057.52 242.487L1066.45 238.638L1074.58 235.751L1080.26 232.865L1095.69 226.129L1107.07 221.318L1123.31 213.62L1133.06 209.289L1144.43 204.478L1152.55 200.148L1163.11 195.337L1172.04 190.526L1179.35 187.158L1194.79 179.941L1206.97 172.724L1221.59 165.507L1233.77 158.29L1241.9 152.517L1251.64 147.705L1258.14 143.856L1262.2 141.451L1263.01 140.489L1268.7 143.856L1276.01 149.149L1293.88 159.734L1302 165.026L1332.86 184.271L1358.04 200.148L1384.03 214.582L1414.09 231.421L1425.46 237.676L1445.76 250.185L1459.57 258.845L1470.94 265.581L1475 267.987L1476.63 269.911L1479.88 270.873L1484.75 272.317L1488.81 272.798H1495.31L1505.06 270.873L1520.49 268.468L1531.05 267.024L1540.79 265.1L1560.29 261.732L1569.22 259.808L1576.53 257.883L1583.84 256.44L1592.78 253.553L1610.65 249.223L1618.77 245.855L1629.33 242.006L1636.64 239.6L1661 230.94L1688.62 219.393L1705.68 211.214L1732.48 198.224L1749.54 190.044L1776.34 176.573L1788.52 171.281L1799.08 166.95L1808.83 162.62L1820.2 157.809L1829.14 154.441L1842.94 148.668L1851.88 144.338L1860 140.007L1868.93 136.64L1880.31 131.828L1895.74 125.574L1907.11 120.762L1918.48 114.989L1928.23 110.659L1937.97 106.329L1949.34 101.999L1963.96 95.2628L1976.15 90.9326L1989.14 84.678L1997.27 80.829L2007.82 76.0178L2021.63 69.282L2033.82 64.4708L2041.94 60.1406L2051.69 54.8483L2062.24 50.037L2071.99 44.2635L2090.67 34.641L2099.61 30.3109L2109.35 24.0563L2124.79 15.8771L2136.16 8.66025L2144.28 3.849L2148.34 1.44338L2149.96 0L2159.71 7.698L2169.46 14.4338L2183.27 22.1318L2188.95 25.9808L2198.7 31.7543L2205.2 36.0844L2214.13 40.8956L2218.19 44.2635L2223.88 47.1503L2228.75 50.037L2232 51.9615V649.797H0V649.038Z" fill="url(#paint0_linear_12_100)"/>
<path d="M2179.2 20.6884L2171.08 15.396L2187.33 23.094L2206.01 35.1221L2221.44 44.7446L2230.37 50.5181V66.3953V75.5366L2226.31 72.6499L2221.44 66.8764L2216.57 61.584L2211.69 55.3294L2208.44 50.5181L2199.51 40.8956L2193.82 33.6788L2190.58 28.8675L2187.33 26.4619L2179.2 20.6884Z" fill="#DFA6F3"/>
<path d="M2226.31 174.648L2230.37 180.422V144.819L2225.5 140.007L2217.38 132.309L2210.07 126.055L2203.57 119.8L2199.51 115.47L2190.58 104.885L2184.89 99.5929L2188.95 109.697L2193.01 119.8L2195.45 127.017L2201.95 138.564L2205.2 144.819L2213.32 156.847L2221.44 167.913L2226.31 174.648Z" fill="#DFA6F3"/>
<path d="M2145.9 135.677L2142.66 137.602L2145.9 144.819L2157.28 159.252L2167.83 171.762L2180.83 184.752L2188.95 195.818L2201.95 215.544L2224.69 242.968L2230.38 249.223V180.422L2219.82 165.507L2206.01 144.819L2197.07 127.017L2184.89 99.5929L2190.58 105.366L2202.76 119.319L2216.57 131.828L2230.38 144.819V75.5367L2222.25 67.3575L2209.26 50.9993L2199.51 39.4523L2190.58 28.3864L2177.58 19.7261L2158.9 7.2169V44.2635V55.3294V87.0837L2154.03 112.583L2152.4 119.319L2150.78 125.574L2148.34 131.828L2145.9 135.677Z" fill="#C481CF"/>
<path d="M2080.93 171.762L2079.3 173.686L2093.11 191.969L2110.17 216.506L2129.66 241.525L2145.09 262.694L2158.9 281.939L2175.14 308.401L2191.39 329.571L2199.51 327.165L2215.76 322.354L2230.38 316.58V249.223L2216.57 231.902L2200.32 211.214L2193.83 201.11L2182.45 185.233L2167.02 169.837L2154.84 155.403L2147.53 144.819L2142.66 137.602L2139.41 139.526L2135.35 142.413L2128.04 146.262L2121.54 149.63L2115.04 153.479L2107.73 157.328L2103.67 159.252L2097.17 161.658L2090.67 165.507L2086.61 167.913L2083.36 169.837L2080.93 171.762Z" fill="#DFA6F3"/>
<path d="M2058.18 221.799L2057.37 222.761L2065.49 231.421L2080.93 249.223L2097.98 263.175L2126.41 289.156L2142.66 304.552L2174.33 332.939L2191.39 329.571L2188.95 326.684L2179.21 312.25L2167.83 294.449L2158.9 279.534L2135.35 247.298L2120.73 228.053L2107.73 209.771L2090.67 185.714L2079.3 173.205L2076.05 175.611L2072.8 178.979L2070.37 182.346L2068.74 185.714L2067.93 190.526V194.856L2070.37 199.667L2071.99 205.44L2073.62 212.657V215.544L2072.8 218.431L2070.37 219.393H2068.74L2065.49 218.912L2062.25 219.393L2059.81 220.836L2058.18 221.799Z" fill="#C481CF"/>
<path d="M2036.25 239.119L2033.82 242.006L2049.25 267.024L2059.81 280.496L2070.37 298.298L2082.55 321.873L2093.92 340.155L2096.36 345.929L2097.98 347.372L2109.35 345.448L2130.47 341.599L2150.78 338.231L2174.33 332.939L2160.52 319.948L2145.9 305.996L2130.47 291.562L2115.04 277.609L2100.42 264.619L2082.55 249.223L2070.37 236.232L2057.37 222.761L2055.75 227.091L2050.87 230.94L2045.19 233.346L2040.31 236.232L2036.25 239.119Z" fill="#DFA6F3"/>
<path d="M2018.38 252.11L2010.26 258.364L2022.45 274.722L2050.06 307.92L2071.18 330.052L2076.05 336.788L2080.93 343.042L2085.8 349.297L2097.98 347.372L2097.17 346.41L2093.92 338.712L2085.8 323.316L2079.3 313.212L2071.18 299.741L2063.87 285.788L2058.18 275.685L2050.06 264.619L2040.31 250.666L2033.82 242.006L2025.69 247.779L2018.38 252.11Z" fill="#C481CF"/>
<path d="M1950.97 328.127L1943.66 334.382L1960.72 350.259L1968.84 358.919L1985.08 380.57L1992.39 389.23L2011.89 380.57L2024.07 373.834L2038.69 366.136L2045.19 360.844L2051.68 356.514L2058.99 353.627L2068.74 351.221L2076.86 350.259L2085.8 349.297L2076.86 335.344L2066.3 324.278L2055.75 313.212L2045.19 300.222L2038.69 291.562L2030.57 282.902L2019.2 269.911L2010.26 258.364L2007.82 260.289L2000.51 268.949L1994.83 275.204L1989.14 281.458L1984.27 289.637L1977.77 296.854L1968.84 307.92L1959.09 320.429L1950.97 328.127Z" fill="#DFA6F3"/>
<path d="M1926.6 347.372L1916.04 355.07L1929.04 363.249L1956.65 383.938L1972.09 396.928L1992.39 389.23L1985.08 379.608L1977.77 369.023L1964.78 352.665L1956.65 344.486L1943.66 334.382L1940.41 336.788L1933.1 342.561L1926.6 347.372Z" fill="#C481CF"/>
<path d="M1369.41 207.365L1363.73 203.516L1380.79 212.176L1394.59 219.393L1409.21 228.053L1422.21 235.27L1438.45 245.855L1445.76 251.147L1454.7 256.921L1465.26 263.657L1474.19 268.949L1478.25 272.798L1484.75 278.09L1492.87 285.307L1504.24 291.562L1518.05 298.779L1533.48 305.033L1549.73 309.845L1559.48 313.694L1569.22 316.58L1583.84 319.467H1604.15H1614.71L1624.45 318.505L1634.2 317.543H1645.57H1655.32L1665.06 320.91L1678.87 323.797L1691.87 329.09L1708.11 335.344L1723.55 342.08L1734.1 348.335L1746.29 354.108L1752.79 357.476L1760.91 360.844L1769.84 366.136L1769.03 368.542L1768.22 369.504L1758.47 370.466H1740.6L1723.55 373.834L1711.36 375.759L1694.3 378.164L1678.87 379.608L1666.69 380.57H1654.51L1641.51 381.532L1627.7 382.976L1617.96 383.938L1611.46 384.419L1604.15 385.381L1600.9 385.862H1599.27V385.381V382.976V380.57L1598.46 378.164L1596.84 375.759L1595.21 373.834L1592.78 372.391L1590.34 370.466L1587.09 369.504L1571.66 365.174L1565.16 362.768L1555.41 359.4L1544.86 355.07L1537.55 352.184L1526.99 346.41L1521.3 344.004L1510.74 340.637L1500.18 335.344L1486.37 328.127L1478.25 323.316L1470.94 318.505L1463.63 314.175L1459.57 310.326L1457.13 307.92L1455.51 305.996L1451.45 302.628L1450.64 299.741L1449.01 297.335L1448.2 295.411L1447.39 293.486L1444.95 291.081L1441.7 287.713L1438.45 283.383L1436.83 281.458L1435.2 279.053L1433.58 278.09L1427.08 274.722L1420.58 269.911L1414.09 265.1L1409.21 260.289L1405.96 257.402L1405.15 255.959L1404.34 254.515L1405.15 252.591V250.185V248.742L1405.96 248.261L1406.78 246.817L1410.03 244.893L1412.46 242.968L1414.09 242.006L1415.71 241.525L1418.96 241.044L1424.65 240.081L1404.34 228.053L1369.41 207.365Z" fill="#C481CF"/>
<path d="M1271.95 154.922V146.262L1306.06 167.432L1306.87 170.318L1311.75 178.016L1317.43 188.12L1327.18 198.224L1337.74 216.025L1346.67 225.167L1369.41 251.147L1379.16 263.657L1382.41 268.468L1387.28 273.76L1391.34 278.09L1395.41 282.42L1399.47 287.232L1405.15 294.93L1410.03 301.184L1413.27 305.514L1418.15 311.769L1423.02 316.58L1427.89 321.873L1437.64 332.457L1442.51 338.231L1448.2 344.967L1452.26 349.778L1444.95 346.891L1440.08 344.967L1437.64 343.523L1434.39 342.08L1431.14 339.674L1428.71 337.75L1424.65 334.382L1421.4 331.014L1417.34 327.646L1413.27 324.759L1404.34 318.024L1397.03 312.731L1392.97 308.401L1384.85 299.741L1382.41 297.335L1376.72 293.967L1368.6 288.675L1363.73 285.788L1361.29 283.864L1358.86 282.42L1357.23 280.977L1349.11 272.798L1340.99 263.657L1330.43 252.591L1323.93 244.893L1319.06 239.119L1315 233.346L1310.93 227.091L1307.69 222.28L1305.25 218.431L1302.81 215.063L1298.75 208.808V212.657V220.355V223.242L1299.56 225.167L1301.19 229.497L1303.62 235.27L1305.25 240.563L1306.06 244.893L1307.69 248.742L1309.31 255.959L1312.56 261.732L1317.43 271.355L1322.31 280.496L1327.99 286.751L1332.05 291.081L1332.86 293.486L1336.93 300.703L1340.17 305.514L1341.8 309.845L1344.24 313.212L1348.3 318.505L1355.61 328.608L1362.1 338.231L1366.98 345.448L1372.66 353.146L1376.72 358.919L1389.72 375.278L1397.03 384.419L1406.78 397.409L1410.03 402.702L1414.09 411.362L1407.59 409.437L1401.09 407.513L1397.03 406.07L1394.59 405.107L1392.16 403.664L1388.1 401.258L1383.22 398.853L1379.97 396.928L1375.1 392.598L1370.23 388.268L1363.73 382.013L1360.48 379.127L1356.42 375.278L1349.11 369.504L1343.42 365.174L1340.99 362.287L1332.86 353.627L1329.62 349.778L1320.68 337.269L1314.18 327.646L1311.75 324.278L1302.81 313.212L1299.56 308.401L1290.63 296.373L1283.32 288.675L1280.07 284.345L1276.82 280.977L1273.57 277.609L1267.89 269.43L1263.01 261.732L1261.39 257.883L1259.76 254.034L1263.01 251.628L1265.45 249.223L1268.7 246.817L1270.32 244.893L1271.13 242.487L1271.95 238.157V233.827V227.091V208.808V182.346V154.922Z" fill="#C481CF"/>
<path d="M1193.16 336.306L1188.29 331.495L1194.79 329.571L1198.85 328.608L1202.1 327.165V324.759L1201.28 322.835L1199.66 319.467L1197.22 313.212L1195.6 309.845L1194.79 305.514L1193.97 301.665V297.335L1194.79 295.411L1195.6 293.005L1198.03 290.118L1201.28 287.232L1206.16 283.864L1219.15 299.26L1236.21 321.873L1251.64 344.486L1264.64 363.249L1270.32 371.429L1276.01 378.645L1282.51 387.787L1287.38 393.56L1289 396.928L1293.06 404.145L1297.13 410.881L1300.37 418.098L1303.62 425.315L1305.25 429.164L1311.75 435.899L1315 439.267L1315.81 440.229L1317.43 445.041L1320.68 452.258L1311.75 444.56L1297.13 433.013L1285.75 423.39L1267.07 405.588L1251.64 390.192L1236.21 376.24L1227.27 367.098L1215.09 356.514L1203.72 346.41L1193.16 336.306Z" fill="#C481CF"/>
<path d="M1150.11 360.844L1146.05 357.476L1148.49 355.07L1151.74 352.665L1154.99 350.259L1157.42 347.853L1160.67 345.929L1163.92 343.523L1167.17 341.118L1168.79 343.523L1171.23 346.41L1174.48 351.702L1178.54 357.476L1181.79 361.325L1185.04 365.655L1188.29 369.985L1192.35 377.202L1196.41 383.938L1200.47 391.155L1206.97 401.739L1211.03 408.956L1216.72 418.579L1222.4 430.126L1226.46 439.748L1229.71 448.409L1231.34 454.182L1233.77 460.918L1231.34 458.031L1228.09 454.182L1224.03 448.89L1222.4 446.965L1217.53 439.748L1212.65 434.456L1207.78 428.682L1202.91 422.909L1195.6 414.249L1193.16 411.843L1189.91 407.994L1188.29 406.07L1184.23 400.296L1177.73 391.636L1170.42 382.494L1165.55 376.721L1163.92 374.796L1158.24 368.542L1155.8 365.655L1150.11 360.844Z" fill="#C481CF"/>
<path d="M1072.14 438.305L1068.89 436.862L1071.33 434.937L1074.58 433.013L1077.82 431.569L1081.89 428.201L1085.13 425.796L1089.2 421.947L1092.44 419.541L1094.88 417.617L1097.32 415.211L1098.13 417.135L1100.57 420.503L1104.63 425.315L1106.25 427.72L1107.88 430.126L1111.94 437.343L1116 443.116L1120.87 450.333L1126.56 458.031L1132.24 464.286L1136.3 468.616L1140.37 474.389L1143.62 478.719L1149.3 484.493L1151.74 487.38L1154.99 490.748L1159.05 494.597L1162.3 497.483L1164.73 500.37L1168.79 504.219L1172.86 509.993L1175.29 514.323L1173.67 513.36L1172.86 512.398L1170.42 511.436L1168.79 509.993L1166.36 508.549L1161.48 506.144L1158.24 504.219L1154.99 501.813L1152.55 500.37L1150.93 499.408L1144.43 494.597L1138.74 490.266L1134.68 487.38L1129.81 483.05L1125.75 479.682L1124.12 477.757L1122.5 476.314L1120.06 473.908L1117.62 471.984L1115.19 470.059L1111.94 467.654L1104.63 462.842L1095.69 455.144L1090.01 449.852L1081.07 443.116L1078.64 441.192L1075.39 439.748L1072.14 438.305Z" fill="#C481CF"/>
<path d="M950.306 622.095L951.931 624.019L956.804 621.132L961.677 618.246L968.987 614.878L974.673 612.472L981.171 610.548L990.105 607.661L996.603 606.218L1002.29 605.255L1008.79 604.774H1013.66L1012.85 603.331H1012.04L1006.35 595.152L1003.91 592.746L999.852 588.897L994.979 584.086L990.105 579.756L982.795 573.02L973.049 566.284L963.302 559.067L949.494 549.445L940.559 543.671L929.188 536.936L923.503 533.568L919.442 531.643L914.568 529.719L908.07 526.832L904.009 524.426L904.822 527.313L905.634 531.162L906.446 534.53L907.258 538.86L908.883 541.747L911.319 546.077L913.756 552.332L917.005 559.067L919.442 563.879L922.69 570.133L925.127 575.907L927.564 579.275L931.625 584.567L934.874 588.897L937.311 594.671L938.935 598.52L940.559 602.369L943.808 607.661L946.245 611.991L947.87 614.878L949.494 619.208L950.306 622.095Z" fill="#C481CF"/>
<path d="M908.07 642.783L912.131 649.519L917.004 644.708L925.126 638.453L934.873 633.642L942.183 629.312L951.93 624.019L950.305 622.095L947.869 614.397L940.559 601.888L934.873 588.897L925.126 575.907L920.253 565.322L912.943 550.407L907.257 537.898L904.008 524.426L907.257 526.351L924.314 534.049L936.498 541.266L959.24 556.181L978.733 570.133L993.353 582.642L1003.1 591.784L1013.66 604.774H1017.72L1033.96 603.812L1053.46 601.888L1076.2 599.001L1095.69 596.595L1120.87 592.746L1144.43 586.01L1163.92 579.275L1176.1 575.426L1186.66 570.614L1196.41 567.728H1206.16L1211.03 569.171L1219.15 572.539L1224.84 575.907L1231.34 576.869L1239.46 573.982L1248.39 569.652L1258.95 564.36L1267.07 558.105L1275.2 547.52L1278.45 542.709L1280.88 535.973C1281.69 535.011 1283.32 532.798 1283.32 531.643C1283.32 530.489 1286.57 527.634 1288.19 526.351L1292.25 519.615L1296.31 510.955L1301.19 505.662L1311.75 497.964L1323.12 493.153L1338.55 489.304L1358.04 486.417L1374.29 484.974L1389.72 483.531L1402.72 482.087H1413.27L1427.08 480.644L1439.27 478.238L1453.07 475.352L1467.69 470.54L1479.07 465.248L1487.19 460.918L1493.69 455.144L1500.18 447.927L1508.31 440.229L1515.62 433.013L1526.17 424.352L1535.11 417.135L1547.29 409.437L1553.79 403.664L1564.35 398.853L1574.91 395.004L1594.4 388.268L1600.09 385.381V379.608L1596.84 374.315L1590.34 369.985L1570.03 364.212L1557.85 359.4L1539.17 352.184L1526.99 345.448L1515.62 341.599L1504.24 337.269L1493.69 331.495L1477.44 322.354L1463.63 313.694L1452.26 302.628L1447.39 293.486L1440.08 284.826L1435.2 278.571L1425.46 273.279L1414.9 265.1L1405.15 255.959V248.742L1410.84 244.412L1414.9 241.525L1425.46 240.081L1410.84 231.421L1396.22 223.242L1373.48 209.771L1306.06 167.432V169.837L1316.62 187.158L1326.37 198.224L1337.74 216.025L1353.98 234.789L1365.35 247.779L1377.54 262.694L1400.28 288.675L1418.15 312.25L1433.58 328.127L1452.26 349.778L1441.7 345.448L1431.14 339.674L1418.15 328.127L1398.65 313.694L1382.41 297.335L1358.86 282.42L1337.74 260.289L1319.06 238.638L1298.75 208.808V223.242L1303.62 236.714L1309.31 255.959L1322.31 280.496L1331.24 291.081L1341.8 309.845L1358.86 333.901L1375.1 357.476L1392.16 378.645L1406.78 397.89L1414.09 411.362L1396.22 405.588L1382.41 397.89L1371.04 388.749L1358.86 377.202L1344.24 365.655L1332.86 353.146L1322.31 339.674L1315 328.127L1309.31 320.429L1303.62 313.694L1298.75 306.477L1291.44 297.335L1284.94 289.637L1280.07 283.864L1274.38 278.571L1268.7 269.911L1264.64 264.138L1259.76 254.034L1254.08 257.883L1250.02 260.289L1245.14 262.694L1240.27 265.581L1236.21 267.506L1229.71 270.873L1224.84 273.279L1219.15 276.166L1206.16 283.864L1218.34 299.741L1226.46 309.845L1237.83 325.241L1258.95 355.07L1267.89 368.542L1287.38 394.041L1297.13 411.362L1305.25 429.164L1315 439.748L1320.68 452.258L1315 446.484L1305.25 438.305L1294.69 430.607L1284.94 421.947L1274.38 411.362L1264.64 402.221L1254.08 392.598L1244.33 382.976L1232.96 372.391L1219.96 360.363L1207.78 349.778L1197.22 339.674L1188.29 331.495L1181.79 333.901L1173.67 337.75L1167.17 341.118L1178.54 357.476L1188.29 370.466L1197.22 386.825L1209.41 406.551L1219.96 425.796L1225.65 438.305L1229.71 449.852L1233.77 460.918L1229.71 455.625L1224.03 448.89L1217.53 439.748L1207.78 429.164L1201.28 420.984L1188.29 405.588L1178.54 392.598L1169.61 381.532L1155.8 365.655L1146.05 357.476L1141.99 363.249L1133.87 370.466L1126.56 378.645L1116.81 390.674L1108.69 402.221L1097.32 415.211L1098.94 418.579L1106.25 428.201L1110.31 435.418L1115.19 442.635L1124.93 456.588L1136.31 469.578L1146.05 481.125L1152.55 488.823L1161.48 497.002L1170.42 506.625L1175.29 514.323L1173.67 513.36L1167.98 509.511L1160.67 505.662L1154.99 501.813L1147.68 497.002L1139.55 490.748L1133.87 486.417L1126.56 480.163L1120.06 473.908L1112.75 468.135L1103.82 461.88L1094.88 454.182L1087.57 447.927L1078.64 441.192L1068.89 436.862L1055.89 444.078L1044.52 449.852L1025.84 457.55L1007.97 463.323L989.292 468.135L971.423 472.465L950.305 477.276L934.873 480.163L914.567 483.531L898.323 486.417L875.58 490.266L858.524 492.672L840.655 495.559L823.598 498.927L808.978 501.813L791.109 504.219L792.733 506.144L796.794 510.955L800.856 515.766L807.353 522.983L813.039 529.719L820.349 537.898L832.532 552.332L850.401 572.539L861.773 585.529L873.956 599.963L885.327 614.397L894.262 625.944L903.196 636.529L908.07 642.783Z" fill="#DFA6F3"/>
<path d="M758.62 530.681L756.184 547.039L768.367 551.369L778.114 555.699L787.86 560.992L802.481 568.69L813.039 575.425L830.096 586.972L839.843 594.671L850.402 603.331L857.712 609.585L865.834 617.283L873.956 625.463L884.515 635.566L895.074 649.519H912.131L908.07 642.783L899.136 631.717L886.14 615.359L873.144 599.001L855.275 577.831L841.467 561.954L817.101 534.53L791.109 504.219L758.62 511.436V512.879V516.247V523.464V530.681Z" fill="#C481CF"/>
<path d="M1702.43 296.854L1682.93 310.807L1705.68 308.401L1724.36 303.59L1748.72 296.854L1781.21 286.751L1829.95 267.987L1864.87 252.11L1903.86 236.232L1929.85 226.129L1959.9 210.733L1975.34 202.554L1998.08 192.45L1989.14 202.554L1981.83 209.289L1972.09 216.987L1962.34 223.242L1953.41 231.421L1946.91 238.638L1941.22 245.855L1935.54 252.11L1929.85 258.845L1919.29 266.543L1901.42 278.571L1885.99 292.043L1901.42 283.864L1913.61 276.647L1941.22 265.1L1955.03 254.996L1977.77 243.449L1987.52 237.195L2015.14 224.204L2028.13 217.95L2040.31 211.695L2056.56 204.478L2064.68 200.148L2067.93 195.337V190.526L2070.37 182.828L2075.24 177.054L2084.17 169.356L2090.67 165.507L2097.98 161.658L2106.1 158.29L2114.23 153.479L2124.79 148.187L2133.72 143.375L2140.22 139.045L2145.9 135.677L2149.15 130.385L2151.59 123.649L2154.03 112.583L2156.46 102.48L2158.9 77.4611V45.2258L2151.59 54.3671L2145.09 68.3198L2133.72 77.4611L2113.41 90.9326L2093.11 105.366L2064.68 123.649L2037.88 141.451L2013.51 153.479L1977.77 171.762L1951.78 186.677L1919.29 204.478L1885.99 221.318L1855.94 235.27L1809.64 253.553L1771.47 267.987L1746.29 278.09L1721.11 288.194L1702.43 296.854Z" fill="white"/>
<path d="M1825.89 406.07L1855.13 392.598L1868.12 396.928L1879.49 399.815L1890.05 401.258L1905.48 402.221L1890.05 409.919L1868.12 421.466L1847.82 431.569L1815.33 446.484L1783.65 461.399L1748.73 473.427L1719.48 480.644L1726.79 474.87L1745.48 458.031L1762.53 444.078L1783.65 429.645L1804.77 417.617L1825.89 406.07Z" fill="white"/>
<path d="M516.577 542.228L475.965 570.133L523.074 549.926L562.061 531.643L605.922 510.955L641.66 494.597L676.585 478.719L701.764 469.097L738.315 455.625L790.297 437.824L825.223 425.796L876.393 408.475L905.633 397.409L932.437 387.787L960.053 376.721L992.542 364.693L1016.1 353.627L1057.52 335.825L1086.76 323.797L1138.74 299.26L1120.87 315.137L1107.07 328.127L1089.2 344.486L1066.45 364.693L1046.96 380.089L1064.83 371.429L1098.13 352.184L1123.31 340.155L1143.62 329.09L1168.79 316.58L1177.73 312.25L1184.23 309.363L1190.73 306.958L1193.97 304.071V301.665V297.335L1195.6 292.524L1198.85 288.675L1203.72 285.307L1214.28 279.053L1226.46 272.317L1241.9 264.619L1256.52 256.44L1270.32 245.855L1273.57 238.157V223.242L1271.95 187.639L1250.83 202.554L1223.21 223.242L1185.85 245.855L1156.61 264.619L1116.81 286.751L1077.01 306.958L1045.34 322.354L992.542 344.486L932.437 369.504L872.332 389.23L830.096 399.334L782.987 409.919L744 422.909L707.45 433.975L683.083 446.484L648.157 466.21L565.31 512.879L516.577 542.228Z" fill="white"/>
<path d="M1852.69 383.457L1834.01 388.268L1854.31 394.042L1870.56 398.372L1895.74 402.221L1918.48 404.626H1939.6L1958.28 402.221L1972.09 396.928L1958.28 384.419L1939.6 370.466L1926.6 361.806L1916.04 355.07L1906.3 361.806L1894.11 368.061L1872.18 376.721L1852.69 383.457Z" fill="#DFA6F3"/>
<path d="M661.152 637.01L644.096 650H895.074L893.449 647.113L884.515 635.566L873.956 625.463L860.148 611.991L849.589 602.369L838.218 593.227L822.786 581.68L800.043 567.247L776.489 554.737L756.183 547.039L751.31 557.624L746.436 567.247L735.877 579.275L722.882 591.303L700.139 608.623L681.458 621.614L661.152 637.01Z" fill="#DFA6F3"/>
<path d="M1815.33 642.302L1797.46 650L1864.87 649.519L1871.37 647.113L1881.12 644.227L1897.36 639.896L1911.98 635.085L1930.66 629.793L1943.66 624.982L1960.72 620.17L1981.83 613.916L1995.64 609.586L2013.51 604.774L2033.82 599.001L2065.49 591.303L2094.73 583.124L2124.79 575.907L2142.65 572.058L2162.96 567.247L2179.21 564.36L2189.76 561.954L2202.76 559.549L2215.76 554.737L2232 548.964V512.398H2227.94L2215.76 515.766L2200.32 520.096L2180.83 527.794L2162.96 533.568L2145.9 539.822L2131.28 546.558L2087.42 563.398L2065.49 571.577L2037.07 581.68L2019.2 587.454L2000.52 594.19L1971.28 603.331L1953.41 608.142L1929.85 614.878L1897.36 623.057L1876.24 627.387L1853.5 632.198L1834.01 636.529L1815.33 642.302Z" fill="white"/>
<path d="M1611.46 627.868L1597.65 636.529L1578.07 649.519H1611.46L1615.52 646.151L1632.58 636.529L1652.07 625.463L1678.87 611.991L1713.8 596.114L1742.23 583.124L1774.72 570.614L1809.64 558.105L1842.94 547.039L1896.55 528.275L1930.66 516.728L1978.58 503.738L2033 485.455L2062.24 473.427L2090.67 460.437L2119.91 444.56L2145.09 431.569L2171.89 416.654L2201.95 400.777L2232 385.381V349.297L2226.31 354.589L2214.94 361.325L2197.07 368.542L2180.83 375.759L2160.52 385.381L2143.47 396.447L2131.28 406.07L2090.67 430.126L2058.18 446.003L1982.65 476.314L1928.23 494.597L1857.56 518.653L1809.64 536.454L1831.57 522.021L1850.25 508.068L1879.49 487.38L1913.61 463.323L1944.47 443.597L1933.1 447.927L1915.23 454.182L1890.05 464.767L1860.81 477.276L1819.39 497.964L1786.9 515.285L1738.98 544.152L1709.74 563.397L1665.06 592.265L1637.45 611.029L1611.46 627.868Z" fill="white"/>
<path d="M1394.59 643.264L1390.53 650H1436.83L1441.7 639.896L1449.82 630.274L1460.38 622.095L1474.19 612.953L1488.81 604.293L1498.56 599.001L1510.74 593.227L1523.74 585.048L1540.79 574.945L1551.35 566.284L1565.97 551.369L1559.47 555.7L1551.35 560.992L1543.23 566.284L1533.48 572.058L1518.05 578.794L1500.18 585.048L1482.31 590.822L1466.07 596.114L1449.01 601.888L1435.2 608.142L1419.77 616.321L1410.84 622.095L1402.72 629.793L1398.65 636.047L1394.59 643.264Z" fill="white"/>
<path d="M44.6726 643.264L38.1748 649.519H151.887L154.323 648.557L187.625 633.642L207.93 624.5L241.232 611.029L271.284 597.557L290.777 588.416L281.031 591.784L269.659 595.633L245.293 602.369L216.052 611.029L176.253 623.057L106.402 645.189L92.594 649.038L88.5329 648.557L98.2796 645.189L108.839 639.896L116.961 633.642L126.708 625.944L134.83 618.727L141.328 613.435L146.201 608.623L160.009 602.369L177.878 594.671L193.31 587.935L207.118 583.124L225.799 575.907L241.232 570.614L251.79 566.765L263.162 562.435L282.655 555.699L297.275 550.888L319.205 543.19L338.699 536.454L353.319 531.162L372.812 524.426L389.057 518.172L412.611 510.474L438.603 500.37L451.598 494.597L494.646 476.795L518.201 466.691L551.502 450.333L549.066 451.295L543.38 452.258L532.009 455.625L518.201 460.437L501.144 465.729L479.214 472.946L458.096 479.682L426.419 491.229L403.677 499.889L369.563 512.879L340.323 524.426L324.891 530.681L311.895 535.492L300.524 540.785L288.341 545.115L277.782 550.407L268.847 553.775L261.537 557.143L252.603 560.992L243.668 564.36L233.109 568.209L221.738 570.614L211.991 573.501L202.245 575.907L190.873 578.312L179.502 580.237L168.943 581.68L158.384 584.086L149.45 586.01L139.703 587.935L129.144 590.34L116.961 593.227L108.026 595.633L99.904 599.001L90.9696 603.812L83.6595 608.142L76.3495 612.472L70.6639 616.802L65.7905 621.614L62.5416 624.982L58.4805 629.312L52.7949 635.085L47.9215 640.378L44.6726 643.264Z" fill="white"/>
<defs>
<linearGradient id="paint0_linear_12_100" x1="1427.9" y1="54.3671" x2="1386.5" y2="654.729" gradientUnits="userSpaceOnUse">
<stop stop-color="#FEF8F8"/>
<stop offset="1" stop-color="#A663AC"/>
</linearGradient>
</defs>
</svg>
