<svg width="1919" height="792" viewBox="0 0 1919 792" fill="none" xmlns="http://www.w3.org/2000/svg">
<path d="M0 790.828L42.5979 742.757L62.151 723.411L85.8941 703.479L97.0673 696.444C97.3001 696.053 98.6036 694.568 101.956 691.754C106.146 688.237 108.241 687.064 111.732 684.719C115.224 682.375 115.922 682.375 118.715 679.443C120.95 677.099 125.233 672.995 127.095 671.236L141.26 660.049C142.191 658.681 148.246 653.444 149.922 651.099C161.095 642.657 160.715 639.824 163.741 638.651C166.371 636.012 168.409 635.382 171.09 633.131C180.028 623.751 186.453 617.889 188.548 616.13C197.626 610.268 198.325 607.923 201.118 604.992C203.353 602.647 206.239 600.107 207.403 599.13C207.636 598.934 208.52 597.957 210.196 595.612C211.872 593.267 221.602 581.738 226.258 576.266L245.112 556.921L262.571 538.748L281.425 522.919L299.582 508.85L307.962 502.987L323.325 497.711L334.498 495.366H340.085H354.75L368.716 496.539L379.889 497.711L388.968 498.298L402.236 499.47H416.901L423.884 498.298L434.359 496.539L444.834 495.366L456.007 493.021L467.18 490.09L481.147 485.987L488.828 483.056L511.175 475.435L537.013 466.055L548.186 461.951L557.264 459.02L568.437 456.089L580.309 453.744L594.974 450.813L606.147 449.054L614.527 448.468L629.192 445.537L639.667 443.192L649.443 440.261L666.203 435.571L677.376 431.467L686.454 427.95L704.611 420.915L712.292 416.811L719.276 413.294L724.862 409.776L734.639 404.5L741.622 400.983L746.51 398.052L749.304 395.707L754.89 392.776L759.08 389.845L770.952 382.224L782.823 374.603L791.902 368.154L804.471 359.36L810.058 355.257L815.645 352.326L821.231 349.395L827.516 346.463L835.198 341.187L844.276 335.325L851.958 329.463L859.639 325.359L869.416 318.91L877.097 314.221L888.969 306.6L898.047 301.323L909.22 295.461L916.902 290.771L923.885 287.254L928.774 283.737L942.042 275.529L951.818 269.667L965.785 260.287L974.165 255.011L983.941 249.149L990.924 243.873L1000 238.01L1007.68 232.148L1013.97 228.044L1027.24 219.251L1037.71 210.457L1050.28 201.664L1060.76 192.87L1067.74 185.836L1076.12 179.973L1081.71 175.283L1085.2 172.352L1085.9 171.18L1090.79 175.283L1097.07 181.732L1112.43 194.629L1119.42 201.078L1145.95 224.527L1167.6 243.873L1189.95 261.46L1215.79 281.978L1225.56 289.599L1243.02 304.841L1254.89 315.393L1264.67 323.6L1268.16 326.531L1269.56 328.876L1272.35 330.049L1276.54 331.808L1280.03 332.394H1285.62L1294 330.049L1307.27 327.118L1316.34 325.359L1324.72 323.014L1341.48 318.91L1349.17 316.566L1355.45 314.221L1361.74 312.462L1369.42 308.944L1384.78 303.668L1391.76 299.565L1400.84 294.875L1407.13 291.944L1428.08 281.392L1451.82 267.322L1466.48 257.356L1489.53 241.528L1504.19 231.562L1527.24 215.147L1537.71 208.699L1546.79 203.423L1555.17 198.147L1564.95 192.284L1572.63 188.181L1584.5 181.146L1592.18 175.87L1599.17 170.594L1606.85 166.49L1616.62 160.628L1629.89 153.007L1639.67 147.144L1649.45 140.11L1657.83 134.833L1666.21 129.557L1675.98 124.281L1688.55 116.074L1699.03 110.798L1710.2 103.177L1717.18 98.4871L1726.26 92.6247L1738.13 84.4175L1748.61 78.5551L1755.59 73.2791L1763.97 66.8305L1773.05 60.9682L1781.43 53.9334L1797.49 42.2087L1805.17 36.9326L1813.55 29.3116L1826.82 19.3457L1836.6 10.5522L1843.58 4.68986L1847.07 1.7587L1848.47 0L1856.85 9.37972L1865.23 17.587L1877.1 26.9667L1881.99 31.6566L1890.37 38.6913L1895.95 43.9674L1903.64 49.8298L1907.13 53.9334L1912.02 57.4508L1916.21 60.9682L1919 63.3131V791.753H0V790.828Z" fill="url(#paint0_linear_12_100)"/>
<path d="M1873.61 25.208L1866.62 18.7594L1880.59 28.1392L1896.65 42.795L1909.92 54.5196L1917.6 61.5544V80.9001V92.0385L1914.11 88.5211L1909.92 81.4863L1905.73 75.0378L1901.54 67.4167L1898.75 61.5544L1891.07 49.8298L1886.18 41.0363L1883.38 35.174L1880.59 32.2428L1873.61 25.208Z" fill="#DFA6F3"/>
<path d="M1914.11 212.802L1917.6 219.837V176.456L1913.41 170.594L1906.43 161.214L1900.14 153.593L1894.56 145.972L1891.07 140.696L1883.38 127.799L1878.5 121.35L1881.99 133.661L1885.48 145.972L1887.57 154.765L1893.16 168.835L1895.95 176.456L1902.94 191.112L1909.92 204.595L1914.11 212.802Z" fill="#DFA6F3"/>
<path d="M1844.98 165.318L1842.18 167.663L1844.98 176.456L1854.75 194.043L1863.83 209.285L1875.01 225.113L1881.99 238.597L1893.16 262.632L1912.72 296.047L1917.6 303.668V219.837L1908.53 201.664L1896.65 176.456L1888.97 154.765L1878.5 121.35L1883.39 128.385L1893.86 145.386L1905.73 160.628L1917.6 176.456V92.0385L1910.62 82.0726L1899.45 62.1407L1891.07 48.0711L1883.39 34.5877L1872.21 24.0356L1856.15 8.79351V53.9334V67.4168V106.108L1851.96 137.178L1850.56 145.386L1849.17 153.007L1847.07 160.628L1844.98 165.318Z" fill="#C481CF"/>
<path d="M1789.11 209.285L1787.71 211.63L1799.59 233.907L1814.25 263.805L1831.01 294.289L1844.28 320.083L1856.15 343.532L1870.12 375.775L1884.08 401.569L1891.07 398.638L1905.03 392.776L1917.6 385.741V303.668L1905.73 282.564L1891.77 257.356L1886.18 245.045L1876.4 225.699L1863.13 206.94L1852.66 189.353L1846.37 176.456L1842.18 167.662L1839.39 170.007L1835.9 173.525L1829.61 178.215L1824.03 182.318L1818.44 187.008L1812.16 191.698L1808.66 194.043L1803.08 196.974L1797.49 201.664L1794 204.595L1791.21 206.94L1789.11 209.285Z" fill="#DFA6F3"/>
<path d="M1769.56 270.253L1768.86 271.426L1775.84 281.978L1789.11 303.668L1803.78 320.669L1828.22 352.326L1842.18 371.085L1869.42 405.673L1884.08 401.569L1881.99 398.052L1873.61 380.465L1863.83 358.774L1856.15 340.601L1835.9 301.323L1823.33 277.874L1812.16 255.597L1797.49 226.286L1787.72 211.044L1784.92 213.975L1782.13 218.078L1780.03 222.182L1778.64 226.286L1777.94 232.148V237.424L1780.03 243.286L1781.43 250.321L1782.83 259.115V262.632L1782.13 266.15L1780.03 267.322H1778.64L1775.84 266.736L1773.05 267.322L1770.96 269.081L1769.56 270.253Z" fill="#C481CF"/>
<path d="M1750.7 291.358L1748.61 294.875L1761.88 325.359L1770.95 341.774L1780.03 363.464L1790.51 392.19L1800.28 414.466L1802.38 421.501L1803.78 423.26L1813.55 420.915L1831.71 416.225L1849.17 412.121L1869.42 405.673L1857.55 389.845L1844.98 372.844L1831.71 355.257L1818.44 338.256L1805.87 322.428L1790.51 303.668L1780.03 287.84L1768.86 271.426L1767.46 276.702L1763.27 281.392L1758.38 284.323L1754.2 287.84L1750.7 291.358Z" fill="#DFA6F3"/>
<path d="M1735.34 307.186L1728.36 314.807L1738.83 334.739L1762.57 375.189L1780.73 402.155L1784.92 410.363L1789.11 417.984L1793.3 425.605L1803.78 423.26L1803.08 422.087L1800.28 412.708L1793.3 393.948L1787.71 381.637L1780.73 365.223L1774.45 348.222L1769.56 335.911L1762.57 322.428L1754.19 305.427L1748.61 294.875L1741.63 301.91L1735.34 307.186Z" fill="#C481CF"/>
<path d="M1677.38 399.811L1671.09 407.432L1685.76 426.777L1692.74 437.329L1706.71 463.71L1712.99 474.262L1729.75 463.71L1740.23 455.503L1752.8 446.123L1758.38 439.674L1763.97 434.398L1770.26 430.881L1778.64 427.95L1785.62 426.777L1793.3 425.605L1785.62 408.604L1776.54 395.121L1767.46 381.637L1758.38 365.809L1752.8 355.257L1745.81 344.705L1736.04 328.876L1728.36 314.807L1726.26 317.152L1719.98 327.704L1715.09 335.325L1710.2 342.946L1706.01 352.912L1700.42 361.705L1692.74 375.189L1684.36 390.431L1677.38 399.811Z" fill="#DFA6F3"/>
<path d="M1656.43 423.26L1647.35 432.64L1658.52 442.605L1682.27 467.813L1695.54 483.642L1712.99 474.262L1706.71 462.537L1700.42 449.64L1689.25 429.708L1682.27 419.742L1671.09 407.432L1668.3 410.363L1662.02 417.397L1656.43 423.26Z" fill="#C481CF"/>
<path d="M1177.38 252.666L1172.49 247.976L1187.15 258.529L1199.03 267.322L1211.6 277.874L1222.77 286.668L1236.73 299.565L1243.02 306.013L1250.7 313.048L1259.78 321.255L1267.46 327.704L1270.95 332.394L1276.54 338.842L1283.52 347.636L1293.3 355.257L1305.17 364.05L1318.44 371.671L1332.41 377.534L1340.79 382.224L1349.17 385.741L1361.74 389.258H1379.19H1388.27L1396.65 388.086L1405.03 386.913H1414.81H1423.19L1431.57 391.017L1443.44 394.534L1454.61 400.983L1468.58 408.604L1481.85 416.811L1490.93 424.432L1501.4 431.467L1506.99 435.571L1513.97 439.674L1521.65 446.123L1520.95 449.054L1520.26 450.227L1511.88 451.399H1496.51L1481.85 455.503L1471.37 457.848L1456.71 460.779L1443.44 462.537L1432.96 463.71H1422.49L1411.32 464.882L1399.44 466.641L1391.06 467.813L1385.48 468.4L1379.19 469.572L1376.4 470.158H1375V469.572V466.641V463.71L1374.3 460.779L1372.91 457.848L1371.51 455.503L1369.42 453.744L1367.32 451.399L1364.53 450.227L1351.26 444.95L1345.67 442.019L1337.29 437.916L1328.22 432.64L1321.93 429.122L1312.85 422.087L1307.96 419.156L1298.89 415.053L1289.81 408.604L1277.94 399.811L1270.95 393.948L1264.67 388.086L1258.38 382.81L1254.89 378.12L1252.8 375.189L1251.4 372.844L1247.91 368.74L1247.21 365.223L1245.81 362.292L1245.11 359.947L1244.42 357.602L1242.32 354.671L1239.53 350.567L1236.73 345.291L1235.34 342.946L1233.94 340.015L1232.54 338.842L1226.96 334.739L1221.37 328.876L1215.78 323.014L1211.6 317.152L1208.8 313.634L1208.1 311.876L1207.41 310.117L1208.1 307.772V304.841V303.082L1208.8 302.496L1209.5 300.737L1212.29 298.392L1214.39 296.047L1215.78 294.875L1217.18 294.289L1219.97 293.702L1224.86 292.53L1207.41 277.874L1177.38 252.666Z" fill="#C481CF"/>
<path d="M1093.58 188.767V178.215L1122.91 204.009L1123.61 207.526L1127.8 216.906L1132.68 229.217L1141.06 241.528L1150.14 263.218L1157.82 274.357L1177.38 306.013L1185.76 321.255L1188.55 327.118L1192.74 333.566L1196.23 338.842L1199.72 344.118L1203.22 349.981L1208.1 359.36L1212.29 366.981L1215.09 372.258L1219.28 379.879L1223.47 385.741L1227.66 392.189L1236.04 405.087L1240.23 412.121L1245.11 420.329L1248.61 426.191L1242.32 422.674L1238.13 420.329L1236.04 418.57L1233.24 416.811L1230.45 413.88L1228.35 411.535L1224.86 407.432L1222.07 403.328L1218.58 399.224L1215.09 395.707L1207.41 387.5L1201.12 381.051L1197.63 375.775L1190.65 365.223L1188.55 362.292L1183.66 358.188L1176.68 351.739L1172.49 348.222L1170.39 345.877L1168.3 344.118L1166.9 342.36L1159.92 332.394L1152.94 321.255L1143.86 307.772L1138.27 298.392L1134.08 291.357L1130.59 284.323L1127.1 276.702L1124.3 270.839L1122.21 266.15L1120.11 262.046L1116.62 254.425V259.115V268.494V272.012L1117.32 274.357L1118.72 279.633L1120.81 286.668L1122.21 293.116L1122.91 298.392L1124.3 303.082L1125.7 311.876L1128.49 318.91L1132.68 330.635L1136.87 341.773L1141.76 349.395L1145.25 354.671L1145.95 357.602L1149.44 366.395L1152.24 372.258L1153.63 377.534L1155.73 381.637L1159.22 388.086L1165.51 400.397L1171.09 412.121L1175.28 420.915L1180.17 430.295L1183.66 437.329L1194.84 457.261L1201.12 468.4L1209.5 484.228L1212.29 490.677L1215.78 501.229L1210.2 498.884L1204.61 496.539L1201.12 494.78L1199.03 493.608L1196.93 491.849L1193.44 488.918L1189.25 485.987L1186.46 483.642L1182.27 478.366L1178.08 473.09L1172.49 465.469L1169.7 461.951L1166.2 457.261L1159.92 450.227L1155.03 444.95L1152.94 441.433L1145.95 430.881L1143.16 426.191L1135.48 410.949L1129.89 399.224L1127.8 395.121L1120.11 381.637L1117.32 375.775L1109.64 361.119L1103.35 351.739L1100.56 346.463L1097.77 342.36L1094.97 338.256L1090.09 328.29L1085.9 318.91L1084.5 314.221L1083.1 309.531L1085.9 306.6L1087.99 303.668L1090.78 300.737L1092.18 298.392L1092.88 295.461L1093.58 290.185V284.909V276.702V254.425V222.182V188.767Z" fill="#C481CF"/>
<path d="M1025.84 409.776L1021.65 403.914L1027.24 401.569L1030.73 400.397L1033.52 398.638V395.707L1032.82 393.362L1031.43 389.258L1029.33 381.637L1027.94 377.534L1027.24 372.258L1026.54 367.568V362.292L1027.24 359.947L1027.94 357.016L1030.03 353.498L1032.82 349.981L1037.01 345.877L1048.19 364.637L1062.85 392.189L1076.12 419.742L1087.29 442.605L1092.18 452.571L1097.07 461.365L1102.66 472.503L1106.85 479.538L1108.24 483.642L1111.73 492.435L1115.23 500.642L1118.02 509.436L1120.81 518.229L1122.21 522.919L1127.8 531.127L1130.59 535.23L1131.29 536.403L1132.68 542.265L1135.48 551.058L1127.8 541.679L1115.23 527.609L1105.45 515.885L1089.39 494.194L1076.12 475.434L1062.85 458.434L1055.17 447.295L1044.7 434.398L1034.92 422.087L1025.84 409.776Z" fill="#C481CF"/>
<path d="M988.83 439.674L985.338 435.571L987.433 432.64L990.226 429.708L993.019 426.777L995.114 423.846L997.908 421.501L1000.7 418.57L1003.49 415.639L1004.89 418.57L1006.99 422.087L1009.78 428.536L1013.27 435.571L1016.06 440.261L1018.86 445.537L1021.65 450.813L1025.14 459.606L1028.63 467.813L1032.13 476.607L1037.71 489.504L1041.2 498.298L1046.09 510.022L1050.98 524.092L1054.47 535.816L1057.27 546.369L1058.66 553.403L1060.76 561.611L1058.66 558.093L1055.87 553.403L1052.38 546.955L1050.98 544.61L1046.79 535.816L1042.6 529.368L1038.41 522.333L1034.22 515.298L1027.94 504.746L1025.84 501.815L1023.05 497.125L1021.65 494.78L1018.16 487.745L1012.57 477.193L1006.29 466.055L1002.1 459.02L1000.7 456.675L995.813 449.054L993.718 445.537L988.83 439.674Z" fill="#C481CF"/>
<path d="M921.79 534.058L918.997 532.299L921.092 529.954L923.885 527.609L926.678 525.85L930.17 521.747L932.963 518.816L936.455 514.126L939.248 511.195L941.343 508.85L943.438 505.919L944.136 508.263L946.231 512.367L949.723 518.229L951.12 521.161L952.516 524.092L956.008 532.885L959.499 539.92L963.689 548.714L968.578 558.093L973.466 565.714L976.958 570.99L980.449 578.025L983.243 583.301L988.131 590.336L990.226 593.853L993.019 597.957L996.511 602.647L999.304 606.164L1001.4 609.682L1004.89 614.372L1008.38 621.406L1010.48 626.682L1009.08 625.51L1008.38 624.338L1006.29 623.165L1004.89 621.406L1002.8 619.648L998.606 616.716L995.812 614.372L993.019 611.44L990.924 609.682L989.528 608.509L983.941 602.647L979.053 597.371L975.561 593.853L971.371 588.577L967.879 584.474L966.483 582.129L965.086 580.37L962.991 577.439L960.896 575.094L958.801 572.749L956.008 569.818L949.723 563.956L942.041 554.576L937.153 548.127L929.471 539.92L927.376 537.575L924.583 535.816L921.79 534.058Z" fill="#C481CF"/>
<path d="M817.042 757.998L818.439 760.343L822.628 756.826L826.818 753.309L833.103 749.205L837.992 746.274L843.578 743.929L851.26 740.411L856.846 738.653L861.735 737.48L867.321 736.894H871.511L870.813 735.135H870.115L865.226 725.169L863.131 722.238L859.64 717.548L855.45 711.686L851.26 706.41L844.975 698.203L836.595 689.996L828.215 681.202L816.344 669.477L808.662 662.443L798.885 654.235L793.997 650.132L790.505 647.787L786.316 645.442L780.729 641.924L777.237 638.993L777.936 642.511L778.634 647.201L779.332 651.304L780.031 656.58L781.427 660.098L783.522 665.374L785.617 672.995L788.411 681.202L790.505 687.064L793.299 694.685L795.394 701.72L797.489 705.824L800.98 712.272L803.774 717.548L805.869 724.583L807.265 729.273L808.662 733.963L811.455 740.411L813.55 745.688L814.947 749.205L816.344 754.481L817.042 757.998Z" fill="#C481CF"/>
<path d="M780.728 783.206L784.22 791.414L788.41 785.551L795.393 777.93L803.773 772.068L810.058 766.792L818.438 760.343L817.041 757.998L814.946 748.619L808.661 733.377L803.773 717.548L795.393 701.72L791.203 688.823L784.918 670.65L780.03 655.408L777.237 638.993L780.03 641.338L794.695 650.718L805.17 659.511L824.723 677.685L841.483 694.685L854.053 709.927L862.432 721.066L871.511 736.894H875.002L888.969 735.722L905.729 733.377L925.282 729.859L942.042 726.928L963.69 722.238L983.941 714.031L1000.7 705.824L1011.18 701.134L1020.25 695.272L1028.63 691.754H1037.01L1041.2 693.513L1048.19 697.617L1053.08 701.72L1058.66 702.893L1065.65 699.375L1073.33 694.099L1082.41 687.651L1089.39 680.03L1096.37 667.132L1099.16 661.27L1101.26 653.063C1101.96 651.89 1103.35 649.194 1103.35 647.787C1103.35 646.38 1106.15 642.902 1107.54 641.338L1111.04 633.131L1114.53 622.579L1118.72 616.13L1127.8 606.751L1137.57 600.888L1150.84 596.198L1167.6 592.681L1181.57 590.922L1194.84 589.164L1206.01 587.405H1215.09L1226.96 585.646L1237.43 582.715L1249.31 579.198L1261.87 573.335L1271.65 566.887L1278.63 561.611L1284.22 554.576L1289.81 545.782L1296.79 536.403L1303.08 527.609L1312.15 517.057L1319.84 508.264L1330.31 498.884L1335.9 491.849L1344.98 485.987L1354.05 481.297L1370.81 473.09L1375.7 469.572V462.537L1372.91 456.089L1367.32 450.813L1349.86 443.778L1339.39 437.916L1323.33 429.122L1312.85 420.915L1303.08 416.225L1293.3 410.949L1284.22 403.914L1270.25 392.776L1258.38 382.224L1248.61 368.74L1244.42 357.602L1238.13 347.05L1233.94 339.429L1225.56 332.98L1216.48 323.014L1208.1 311.876V303.082L1212.99 297.806L1216.48 294.289L1225.56 292.53L1212.99 281.978L1200.42 272.012L1180.87 255.597L1122.91 204.009V206.94L1131.99 228.044L1140.37 241.528L1150.14 263.218L1164.11 286.081L1173.89 301.91L1184.36 320.083L1203.91 351.739L1219.28 380.465L1232.55 399.811L1248.61 426.191L1239.53 420.915L1230.45 413.88L1219.28 399.811L1202.52 382.224L1188.55 362.292L1168.3 344.118L1150.14 317.152L1134.08 290.771L1116.62 254.425V272.012L1120.81 288.426L1125.7 311.876L1136.87 341.773L1144.56 354.671L1153.63 377.534L1168.3 406.845L1182.27 435.571L1196.93 461.365L1209.5 484.814L1215.79 501.229L1200.42 494.194L1188.55 484.814L1178.77 473.676L1168.3 459.606L1155.73 445.537L1145.95 430.295L1136.87 413.88L1130.59 399.811L1125.7 390.431L1120.81 382.224L1116.62 373.43L1110.34 362.292L1104.75 352.912L1100.56 345.877L1095.67 339.429L1090.79 328.876L1087.29 321.842L1083.1 309.531L1078.22 314.221L1074.72 317.152L1070.53 320.083L1066.34 323.6L1062.85 325.945L1057.27 330.049L1053.08 332.98L1048.19 336.497L1037.01 345.877L1047.49 365.223L1054.47 377.534L1064.25 396.293L1082.41 432.64L1090.09 449.054L1106.85 480.124L1115.23 501.229L1122.21 522.919L1130.59 535.816L1135.48 551.058L1130.59 544.024L1122.21 534.058L1113.13 524.678L1104.75 514.126L1095.67 501.229L1087.29 490.09L1078.22 478.366L1069.84 466.641L1060.06 453.744L1048.89 439.088L1038.41 426.191L1029.33 413.88L1021.65 403.914L1016.06 406.845L1009.08 411.535L1003.49 415.639L1013.27 435.571L1021.65 451.399L1029.33 471.331L1039.81 495.366L1048.89 518.816L1053.77 534.058L1057.27 548.127L1060.76 561.611L1057.27 555.162L1052.38 546.955L1046.79 535.816L1038.41 522.919L1032.82 512.953L1021.65 494.194L1013.27 478.366L1005.59 464.882L993.718 445.537L985.338 435.571L981.846 442.605L974.863 451.399L968.578 461.365L960.198 476.021L953.215 490.09L943.438 505.919L944.835 510.022L951.12 521.747L954.612 530.54L958.801 539.334L967.181 556.335L976.958 572.163L985.338 586.232L990.924 595.612L998.606 605.578L1006.29 617.303L1010.48 626.682L1009.08 625.51L1004.19 620.82L997.908 616.13L993.019 611.44L986.735 605.578L979.751 597.957L974.863 592.681L968.578 585.06L962.991 577.439L956.707 570.404L949.025 562.783L941.343 553.403L935.058 545.782L927.377 537.575L918.997 532.299L907.824 541.093L898.047 548.127L881.986 557.507L866.622 564.542L850.561 570.404L835.198 575.68L817.041 581.543L803.773 585.06L786.315 589.164L772.348 592.681L752.795 597.371L738.13 600.302L722.767 603.819L708.102 607.923L695.533 611.44L680.169 614.372L681.566 616.717L685.058 622.579L688.549 628.441L694.136 637.235L699.024 645.442L705.309 655.408L715.784 672.995L731.147 697.617L740.924 713.445L751.399 731.032L761.175 748.619L768.857 762.688L776.538 775.585L780.728 783.206Z" fill="#DFA6F3"/>
<path d="M652.237 646.614L650.142 666.546L660.616 671.822L668.996 677.098L677.376 683.547L689.946 692.927L699.024 701.134L713.689 715.203L722.069 724.583L731.147 735.135L737.432 742.756L744.416 752.136L751.399 762.102L760.477 774.413L769.555 791.414H784.22L780.729 783.206L773.047 769.723L761.874 749.791L750.701 729.859L735.337 704.065L723.466 684.719L702.516 651.304L680.17 614.371L652.237 623.165V624.924V629.027V637.821V646.614Z" fill="#C481CF"/>
<path d="M1463.69 361.705L1446.93 378.706L1466.48 375.775L1482.55 369.913L1503.5 361.705L1531.43 349.395L1573.33 326.531L1603.36 307.186L1636.88 287.84L1659.22 275.529L1685.06 256.77L1698.33 246.804L1717.88 234.493L1710.2 246.804L1703.92 255.011L1695.54 264.391L1687.16 272.012L1679.47 281.978L1673.89 290.771L1669 299.565L1664.11 307.186L1659.22 315.393L1650.14 324.773L1634.78 339.429L1621.51 355.843L1634.78 345.877L1645.26 337.084L1669 323.014L1680.87 310.703L1700.42 296.634L1708.8 289.013L1732.55 273.184L1743.72 265.563L1754.2 257.942L1768.16 249.149L1775.14 243.873L1777.94 238.01V232.148L1780.03 222.768L1784.22 215.734L1791.9 206.354L1797.49 201.664L1803.78 196.974L1810.76 192.87L1817.74 187.008L1826.82 180.56L1834.5 174.697L1840.09 169.421L1844.98 165.318L1847.77 158.869L1849.87 150.662L1851.96 137.178L1854.06 124.867L1856.15 94.3834V55.1058L1849.87 66.2443L1844.28 83.245L1834.5 94.3834L1817.04 110.798L1799.59 128.385L1775.14 150.662L1752.1 172.352L1731.15 187.008L1700.42 209.285L1678.08 227.458L1650.14 249.149L1621.51 269.667L1595.68 286.668L1555.87 308.944L1523.05 326.531L1501.4 338.842L1479.75 351.153L1463.69 361.705Z" fill="white"/>
<path d="M1569.84 494.78L1594.98 478.366L1606.15 483.642L1615.93 487.159L1625 488.918L1638.27 490.09L1625 499.47L1606.15 513.54L1588.69 525.85L1560.76 544.024L1533.52 562.197L1503.5 576.853L1478.36 585.646L1484.64 578.611L1500.7 558.093L1515.37 541.093L1533.52 523.506L1551.68 508.85L1569.84 494.78Z" fill="white"/>
<path d="M444.136 660.684L409.219 694.685L449.722 670.064L483.242 647.787L520.951 622.579L551.678 602.647L581.706 583.301L603.354 571.577L634.779 555.162L679.471 533.471L709.499 518.816L753.494 497.711L778.634 484.228L801.678 472.503L825.422 459.02L853.355 444.364L873.606 430.881L909.221 409.19L934.36 394.534L979.053 364.637L963.69 383.982L951.819 399.81L936.455 419.742L916.902 444.364L900.142 463.124L915.506 452.571L944.137 429.122L965.785 414.466L983.243 400.983L1004.89 385.741L1012.57 380.465L1018.16 376.947L1023.75 374.016L1026.54 370.499V367.568V362.292L1027.94 356.429L1030.73 351.739L1034.92 347.636L1044 340.015L1054.47 331.808L1067.74 322.428L1080.31 312.462L1092.18 299.565L1094.98 290.185V272.012L1093.58 228.631L1075.42 246.804L1051.68 272.012L1019.56 299.565L994.416 322.428L960.198 349.394L925.98 374.016L898.746 392.776L853.355 419.742L801.678 450.226L750.002 474.262L713.689 486.573L673.186 499.47L639.667 515.298L608.242 528.782L587.292 544.024L557.264 568.059L486.035 624.924L444.136 660.684Z" fill="white"/>
<path d="M1592.88 467.227L1576.82 473.09L1594.28 480.124L1608.24 485.401L1629.89 490.09L1649.45 493.022H1667.6L1683.66 490.09L1695.54 483.642L1683.66 468.4L1667.6 451.399L1656.43 440.847L1647.35 432.64L1638.97 440.847L1628.5 448.468L1609.64 459.02L1592.88 467.227Z" fill="#DFA6F3"/>
<path d="M568.437 776.172L553.772 792H769.555L768.159 788.483L760.477 774.413L751.399 762.102L739.527 745.688L730.449 733.963L720.672 722.825L707.404 708.755L687.851 691.168L667.6 675.926L650.141 666.546L645.951 679.443L641.762 691.168L632.683 705.824L621.51 720.48L601.957 741.584L585.895 757.412L568.437 776.172Z" fill="#DFA6F3"/>
<path d="M1560.76 782.62L1545.4 792L1603.36 791.414L1608.94 788.483L1617.32 784.965L1631.29 779.689L1643.86 773.827L1659.92 767.378L1671.09 761.516L1685.76 755.654L1703.92 748.033L1715.79 742.757L1731.15 736.894L1748.61 729.859L1775.84 720.48L1800.98 710.514L1826.82 701.72L1842.18 697.03L1859.64 691.168L1873.61 687.651L1882.69 684.72L1893.86 681.788L1905.03 675.926L1919 668.891V624.338H1915.51L1905.03 628.441L1891.77 633.717L1875.01 643.097L1859.64 650.132L1844.98 657.753L1832.41 665.96L1794.7 686.478L1775.84 696.444L1751.4 708.755L1736.04 715.79L1719.98 723.997L1694.84 735.136L1679.47 740.998L1659.22 749.205L1631.29 759.171L1613.13 764.447L1593.58 770.309L1576.82 775.586L1560.76 782.62Z" fill="white"/>
<path d="M1385.48 765.033L1373.61 775.586L1356.77 791.414H1385.48L1388.97 787.31L1403.63 775.586L1420.39 762.102L1443.44 745.688L1473.47 726.342L1497.91 710.514L1525.84 695.272L1555.87 680.03L1584.5 666.546L1630.59 643.683L1659.92 629.614L1701.12 613.785L1747.91 591.508L1773.05 576.853L1797.49 561.024L1822.63 541.679L1844.28 525.85L1867.32 507.677L1893.16 488.332L1919 469.572V425.605L1914.11 432.053L1904.33 440.261L1888.97 449.054L1875 457.847L1857.55 469.572L1842.88 483.055L1832.41 494.78L1797.49 524.092L1769.56 543.437L1704.61 580.37L1657.83 602.647L1597.07 631.959L1555.87 653.649L1574.72 636.062L1590.79 619.061L1615.93 593.853L1645.26 564.542L1671.79 540.506L1662.02 545.782L1646.65 553.403L1625 566.301L1599.86 581.543L1564.25 606.751L1536.32 627.855L1495.12 663.029L1469.98 686.478L1431.57 721.652L1407.82 744.515L1385.48 765.033Z" fill="white"/>
<path d="M1199.02 783.793L1195.53 792H1235.34L1239.53 779.689L1246.51 767.965L1255.59 757.999L1267.46 746.86L1280.03 736.308L1288.41 729.859L1298.89 722.825L1310.06 712.859L1324.72 700.548L1333.8 689.996L1346.37 671.822L1340.79 677.098L1333.8 683.547L1326.82 689.996L1318.44 697.03L1305.17 705.238L1289.81 712.859L1274.44 719.893L1260.48 726.342L1245.81 733.377L1233.94 740.998L1220.67 750.964L1212.99 757.999L1206.01 767.378L1202.52 774.999L1199.02 783.793Z" fill="white"/>
<path d="M38.4079 783.793L32.8213 791.414H130.587L132.682 790.241L161.313 772.068L178.771 760.93L207.403 744.515L233.241 728.101L250.001 716.962L241.621 721.066L231.844 725.756L210.894 733.963L185.755 744.515L151.537 759.171L91.4807 786.138L79.6091 790.828L76.1175 790.241L84.4974 786.138L93.5756 779.689L100.559 772.068L108.939 762.688L115.922 753.895L121.509 747.446L125.699 741.584L137.57 733.963L152.933 724.583L166.202 716.376L178.073 710.514L194.135 701.72L207.403 695.272L216.481 690.582L226.258 685.306L243.017 677.098L255.587 671.236L274.442 661.856L291.202 653.649L303.772 647.201L320.532 638.993L334.498 631.372L354.75 621.993L377.096 609.682L388.269 602.647L425.28 580.956L445.532 568.645L474.163 548.714L472.068 549.886L467.18 551.058L457.403 555.162L445.532 561.024L430.867 567.473L412.012 576.266L393.856 584.474L366.621 598.543L347.068 609.096L317.738 624.924L292.599 638.993L279.33 646.614L268.157 652.477L258.381 658.925L247.906 664.201L238.827 670.65L231.146 674.754L224.861 678.857L217.179 683.547L209.498 687.651L200.42 692.34L190.643 695.272L182.263 698.789L173.883 701.72L164.107 704.651L154.33 706.996L145.252 708.755L136.174 711.686L128.492 714.031L120.112 716.376L111.034 719.307L100.559 722.825L92.8773 725.756L85.8941 729.859L78.2125 735.722L71.9275 740.998L65.6426 746.274L60.7543 751.55L56.5644 757.412L53.7711 761.516L50.2794 766.792L45.3912 773.827L41.2012 780.275L38.4079 783.793Z" fill="white"/>
<defs>
<linearGradient id="paint0_linear_12_100" x1="1227.66" y1="66.2443" x2="1156.51" y2="794.288" gradientUnits="userSpaceOnUse">
<stop stop-color="#FEF8F8"/>
<stop offset="1" stop-color="#A663AC"/>
</linearGradient>
</defs>
</svg>
